<?xml version="1.0" encoding="UTF-8"?>
<!DOCTYPE svg PUBLIC "-//W3C//DTD SVG 1.1//EN" "http://www.w3.org/Graphics/SVG/1.1/DTD/svg11.dtd">
<!-- Creator: CorelDRAW 2018 (64-Bit) -->
<svg xmlns="http://www.w3.org/2000/svg" xml:space="preserve" width="4.49311in" height="4.14689in" version="1.1" style="shape-rendering:geometricPrecision; text-rendering:geometricPrecision; image-rendering:optimizeQuality; fill-rule:evenodd; clip-rule:evenodd"
viewBox="0 0 4515 4167.09"
 xmlns:xlink="http://www.w3.org/1999/xlink">
 <defs>
  <style type="text/css">
   <![CDATA[
    .fil1 {fill:#FEFEFE}
    .fil0 {fill:#31456F}
    .fil5 {fill:#D6766B}
    .fil2 {fill:#E9E3DD}
    .fil6 {fill:#31456F;fill-rule:nonzero}
    .fil3 {fill:#3A4660;fill-rule:nonzero}
    .fil4 {fill:#D6766B;fill-rule:nonzero}
   ]]>
  </style>
 </defs>
 <g id="Layer_x0020_1">
  <metadata id="CorelCorpID_0Corel-Layer"/>
  <g id="_2718066613232">
   <polygon class="fil0" points="2310.68,17.99 3865.04,1569.27 3865.04,2628.86 2319.91,4149.1 2156.42,4027.06 751.74,2628.86 751.74,1540.34 "/>
   <polygon class="fil1" points="1665.88,1248.28 2931.07,1248.28 3127.86,1445.07 3127.86,2999.18 2931.07,3195.97 1665.88,3195.97 1469.09,2999.18 1469.09,1445.07 "/>
   <polygon class="fil1" points="2117.11,1048.92 2494.85,1048.92 2494.85,1213.76 2117.11,1213.76 "/>
   <polygon class="fil1" points="1838.94,625.12 2757.93,625.12 2824.23,691.4 2824.23,921.28 2757.93,987.56 1838.94,987.56 1772.63,921.28 1772.63,691.4 "/>
   <polygon class="fil2" points="1840,1395.04 2756.95,1395.04 2873.98,1512.08 2873.98,2932.17 2756.95,3049.21 1840,3049.21 1722.97,2932.17 1722.97,1512.08 "/>
   <path class="fil3" d="M1840 1374.11l925.61 0 123.17 123.18 6.14 14.8 0 1420.09 -6.14 14.8 -123.17 123.18 -934.28 0 -123.17 -123.18 -6.14 -14.8 0 -1420.09 6.14 -14.8 123.17 -123.18 8.66 0zm908.29 41.87l-899.62 0 -104.76 104.77 0 1402.76 104.76 104.77 899.62 0 104.76 -104.77 0 -1402.76 -104.76 -104.77z"/>
   <path class="fil4" d="M265.82 2083.54l2034.66 2034.66 2034.66 -2034.66 -2034.66 -2034.66 -2034.66 2034.66zm2000.24 2069.32l-2034.9 -2034.9c-9.48,-9.48 -14.23,-21.96 -14.23,-34.42 0,-12.45 4.75,-24.93 14.23,-34.41l2034.9 -2034.9c9.48,-9.48 21.96,-14.23 34.41,-14.23 12.46,0 24.94,4.75 34.42,14.23l2034.9 2034.9 -0.05 0.05c9.52,9.54 14.28,21.99 14.28,34.37 0,12.38 -4.76,24.83 -14.28,34.37l0.05 0.05 -2034.9 2034.9c-9.48,9.48 -21.96,14.23 -34.42,14.23 -12.45,0 -24.93,-4.75 -34.41,-14.23zm2069.28 -2069.43c0.05,-0.04 0.04,-0.03 0,0zm0 0.24c0.03,0.03 0.05,0.04 0,0z"/>
   <path class="fil5" d="M3632.53 746.2l0 0c10.11,10.11 10.11,26.64 0,36.76l-281.72 281.72 -36.76 -36.76 281.72 -281.72c10.11,-10.11 26.65,-10.11 36.76,0z"/>
   <path class="fil5" d="M963.14 3415.59l0 0c10.11,10.11 26.65,10.11 36.76,0l281.72 -281.72 -36.76 -36.76 -281.72 281.72c-10.11,10.11 -10.11,26.65 0,36.76z"/>
   <path class="fil5" d="M965.78 748.85l0 0c10.11,-10.11 26.65,-10.11 36.76,-0l281.72 281.72 -36.76 36.76 -281.72 -281.72c-10.11,-10.11 -10.11,-26.64 0,-36.76z"/>
   <path class="fil5" d="M3642.33 3425.4l0 -0c10.11,-10.11 10.11,-26.65 0,-36.76l-281.72 -281.72 -36.76 36.76 281.72 281.72c10.11,10.11 26.65,10.11 36.76,0z"/>
   <path class="fil6" d="M175.04 1540.34l4180.72 0c40.1,0 76.69,16.46 103.21,43 26.54,26.41 43,63.01 43,103.21l0 796.07c0,40.21 -16.46,76.83 -42.94,103.3 -26.48,26.47 -63.07,42.94 -103.28,42.94l-4180.72 0c-40.2,0 -76.8,-16.46 -103.28,-42.94 -26.47,-26.47 -42.92,-63.09 -42.92,-103.3l0 -796.07c0,-40.12 16.46,-76.65 42.94,-103.17 26.63,-26.59 63.2,-43.05 103.26,-43.05z"/>
   <path class="fil4" d="M1444.67 2386.13c-5.07,-17.23 -7.65,-37.32 -7.65,-60.1 0,-22.78 2.58,-42.87 7.65,-60.1 5.14,-17.23 11.74,-30.98 19.78,-41.19 8.13,-10.28 18.06,-18.63 29.89,-25.08 11.74,-6.47 23.33,-10.78 34.59,-12.92 11.26,-2.16 23.28,-3.28 35.99,-3.28 28.9,0 57.25,5.49 85.11,16.47l0 36.07c-26.19,-11.67 -53.08,-17.51 -80.59,-17.51 -32.86,0 -56.69,8.48 -71.49,25.36 -14.8,16.88 -22.17,44.32 -22.17,82.18 0,37.45 7.37,64.75 22.17,81.9 14.8,17.09 38.63,25.64 71.49,25.64 27.5,0 54.39,-5.84 80.59,-17.51l0 35.85c-27.86,11.11 -56.21,16.68 -85.11,16.68 -12.7,0 -24.73,-1.12 -35.99,-3.28 -11.26,-2.14 -22.85,-6.45 -34.59,-12.92 -11.83,-6.45 -21.75,-14.8 -29.89,-25.08 -8.04,-10.21 -14.65,-23.96 -19.78,-41.19zm479.4 79.12l0 -278.02 38.76 0 0 241.75 137.97 0 0 36.27 -176.73 0zm438.91 -114.56l0 -163.46 38.76 0 0 166.72c0,27.31 6.12,47.46 18.34,60.51 12.22,12.99 31.11,19.52 56.69,19.52 25.56,0 44.44,-6.54 56.69,-19.52 12.22,-13.05 18.34,-33.21 18.34,-60.51l0 -166.72 38.76 0 0 163.46c0,37.52 -9.95,66.55 -29.73,87.25 -19.87,20.7 -47.88,31.07 -84.06,31.07 -36.21,0 -64.19,-10.37 -84.06,-31.07 -19.81,-20.7 -29.73,-49.74 -29.73,-87.25zm511.01 114.56l0 -278.02 96.22 0c18.89,0 34.74,2.49 47.72,7.5 12.92,5.07 22.36,11.74 28.14,20.09 5.84,8.33 9.86,16.24 12.16,23.9 2.23,7.56 3.32,15.7 3.32,24.37 0,8.07 -1.1,15.41 -3.32,22.23 -2.23,6.8 -4.94,12.29 -8.13,16.4 -3.19,4.02 -6.39,7.56 -9.73,10.5 -3.32,2.91 -6.1,4.92 -8.4,6.03l-3.28 1.59 5.29 2.23c2.14,0.83 6.03,3.06 11.67,6.6 5.62,3.61 10.56,7.56 14.8,12 4.31,4.39 8.26,10.65 11.87,18.69 3.67,8 5.49,16.81 5.49,26.26 0,9.25 -1.25,17.86 -3.76,25.84 -2.49,8 -6.93,16.4 -13.34,25.17 -6.39,8.74 -16.6,15.69 -30.63,20.9 -14.04,5.14 -31.33,7.71 -51.97,7.71l-104.13 0zm38.76 -34.17l62.94 -0.42c21.47,0 37.36,-3.63 47.79,-10.78 10.36,-7.22 15.56,-19.18 15.56,-35.92 0,-17.23 -5.7,-28.97 -17.09,-35.22 -11.46,-6.25 -27.79,-9.38 -49.1,-9.38l-60.1 0 0 91.71zm0 -125.88l57.04 0c17.29,0 30.43,-2.86 39.46,-8.62 9.03,-5.77 13.53,-16.55 13.53,-32.25 0,-16.05 -4.79,-27.15 -14.36,-33.47 -9.6,-6.34 -23.7,-9.47 -42.24,-9.47l-53.43 0 0 83.8z"/>
   <path class="fil4" d="M291.7 2343.98c-10.65,0 -19.28,-8.64 -19.28,-19.28 0,-10.65 8.63,-19.28 19.28,-19.28l831.2 0c10.65,0 19.28,8.64 19.28,19.28 0,10.65 -8.64,19.28 -19.28,19.28l-831.2 0z"/>
   <path class="fil4" d="M3392.1 2343.98c-10.65,0 -19.28,-8.64 -19.28,-19.28 0,-10.65 8.64,-19.28 19.28,-19.28l831.18 0c10.65,0 19.28,8.64 19.28,19.28 0,10.65 -8.64,19.28 -19.28,19.28l-831.18 0z"/>
   <polygon class="fil5" points="1284.68,2241.09 1301.7,2295.22 1357.08,2282.89 1318.71,2324.69 1357.08,2366.49 1301.7,2354.16 1284.68,2408.29 1267.67,2354.16 1212.28,2366.49 1250.65,2324.69 1212.28,2282.89 1267.67,2295.22 "/>
   <polygon class="fil5" points="3222.76,2241.09 3239.78,2295.22 3295.16,2282.89 3256.79,2324.69 3295.16,2366.49 3239.78,2354.16 3222.76,2408.29 3205.75,2354.16 3150.36,2366.49 3188.74,2324.69 3150.36,2282.89 3205.75,2295.22 "/>
   <path class="fil4" d="M291.7 2343.98c-10.65,0 -19.28,-8.64 -19.28,-19.28 0,-10.65 8.63,-19.28 19.28,-19.28l831.2 0c10.65,0 19.28,8.64 19.28,19.28 0,10.65 -8.64,19.28 -19.28,19.28l-831.2 0z"/>
   <path class="fil4" d="M3392.1 2343.98c-10.65,0 -19.28,-8.64 -19.28,-19.28 0,-10.65 8.64,-19.28 19.28,-19.28l831.18 0c10.65,0 19.28,8.64 19.28,19.28 0,10.65 -8.64,19.28 -19.28,19.28l-831.18 0z"/>
   <polygon class="fil5" points="1284.68,2241.09 1301.7,2295.22 1357.08,2282.89 1318.71,2324.69 1357.08,2366.49 1301.7,2354.16 1284.68,2408.29 1267.67,2354.16 1212.28,2366.49 1250.65,2324.69 1212.28,2282.89 1267.67,2295.22 "/>
   <polygon class="fil5" points="3222.76,2241.09 3239.78,2295.22 3295.16,2282.89 3256.79,2324.69 3295.16,2366.49 3239.78,2354.16 3222.76,2408.29 3205.75,2354.16 3150.36,2366.49 3188.74,2324.69 3150.36,2282.89 3205.75,2295.22 "/>
   <path class="fil4" d="M167.13 1519.4l4180.72 0c22.44,0 43.98,4.55 63.72,12.77 20.35,8.48 38.76,20.93 54.21,36.37l0.06 0.06c15.45,15.39 27.9,33.77 36.39,54.14 8.22,19.74 12.77,41.32 12.77,63.81l0 796.08c0,22.48 -4.55,44.05 -12.75,63.8 -8.52,20.5 -20.96,38.93 -36.32,54.3 -15.37,15.37 -33.79,27.8 -54.29,36.33 -19.75,8.21 -41.31,12.75 -63.79,12.75l-4180.72 0c-22.48,0 -44.04,-4.54 -63.79,-12.75 -20.5,-8.52 -38.92,-20.96 -54.29,-36.33 -15.37,-15.37 -27.79,-33.79 -36.3,-54.28 -8.21,-19.76 -12.75,-41.33 -12.75,-63.81l0 -796.08c0,-22.43 4.54,-43.95 12.75,-63.67 8.49,-20.39 20.93,-38.79 36.33,-54.22l0.08 -0.08c15.47,-15.45 33.9,-27.91 54.29,-36.41 19.75,-8.22 41.27,-12.77 63.69,-12.77zm4180.72 41.87l-4180.72 0c-16.87,0 -32.98,3.38 -47.66,9.5 -15.33,6.39 -29.2,15.77 -40.84,27.38 -11.56,11.59 -20.91,25.43 -27.29,40.77 -6.1,14.65 -9.47,30.75 -9.47,47.64l0 796.08c0,16.96 3.37,33.11 9.47,47.78 6.35,15.28 15.7,29.11 27.31,40.71 11.62,11.62 25.45,20.98 40.72,27.33 14.67,6.1 30.81,9.48 47.76,9.48l4180.72 0c16.94,0 33.09,-3.37 47.76,-9.48 15.27,-6.35 29.1,-15.71 40.72,-27.33 11.62,-11.62 20.98,-25.45 27.33,-40.73 6.1,-14.67 9.48,-30.82 9.48,-47.77l0 -796.08c0,-16.96 -3.38,-33.1 -9.49,-47.78 -6.39,-15.33 -15.73,-29.13 -27.29,-40.63l-0.08 -0.08c-11.55,-11.56 -25.38,-20.9 -40.72,-27.29 -14.67,-6.11 -30.79,-9.49 -47.69,-9.49z"/>
   <path class="fil4" d="M272.42 2085.93l0 -363.98 131.33 0c40.38,0 71.76,10.01 93.95,30.02 22.28,19.92 33.38,48.2 33.38,84.58 0,36.47 -11.1,64.66 -33.38,84.58 -22.29,20.01 -53.66,30.01 -94.13,30.01l-80.4 0 0 134.79 -50.75 0zm50.75 -179.54l75.76 0c32.38,0 54.03,-6.27 65.03,-18.82 10.91,-12.46 16.37,-29.38 16.37,-50.48 0,-21.19 -5.46,-38.02 -16.28,-50.48 -10.82,-12.55 -32.56,-18.83 -65.12,-18.83l-75.76 0 0 138.61zm391.26 179.54l0 -363.98 237.38 0 0 47.48 -186.63 0 0 110.78 164.26 0 0 47.47 -164.26 0 0 110.78 186.63 0 0 47.47 -237.38 0zm429.46 0l0 -363.98 134.24 0c40.66,0 72.58,9.55 95.95,28.56 23.37,19.01 35.02,46.2 35.02,81.4 0,29.83 -7.73,53.48 -23.28,71.03 -15.56,17.55 -34.93,29.65 -58.12,36.2l96.68 146.79 -59.94 0 -87.95 -138.61 -81.86 0 0 138.61 -50.75 0zm50.75 -186.08l81.31 0c31.65,0 53.29,-6.18 64.94,-18.46 11.64,-12.28 17.46,-28.19 17.46,-47.84 0,-44.57 -28.2,-66.85 -84.49,-66.85l-79.22 0 0 133.15zm411.54 186.08l0 -363.98 228.65 0 0 47.48 -177.9 0 0 110.78 156.62 0 0 47.47 -156.62 0 0 158.25 -50.75 0zm415.9 -149.98l0 -214.01 50.75 0 0 218.28c0,35.74 8,62.12 24.01,79.22 16.01,17.01 40.75,25.56 74.22,25.56 33.47,0 58.21,-8.55 74.21,-25.56 16.01,-17.1 24.01,-43.47 24.01,-79.22l0 -218.28 50.75 0 0 214.01c0,49.11 -13.01,87.13 -38.93,114.23 -26.01,27.1 -62.66,40.65 -110.05,40.65 -47.39,0 -84.04,-13.55 -110.05,-40.65 -25.92,-27.1 -38.93,-65.12 -38.93,-114.23zm506.49 149.98l0 -363.98 55.03 0 119.24 157.25 119.96 -157.25 55.03 0 0 363.98 -50.75 0 0 -286.95 -124.24 163.07 -123.51 -163.07 0 286.95 -50.75 0zm556.33 0l0 -363.98 237.38 0 0 47.48 -186.63 0 0 110.78 164.26 0 0 47.47 -164.26 0 0 110.78 186.63 0 0 47.47 -237.38 0zm429.46 0l0 -363.98 134.24 0c40.66,0 72.58,9.55 95.95,28.56 23.37,19.01 35.02,46.2 35.02,81.4 0,29.83 -7.73,53.48 -23.28,71.03 -15.56,17.55 -34.93,29.65 -58.12,36.2l96.68 146.79 -59.94 0 -87.95 -138.61 -81.86 0 0 138.61 -50.75 0zm50.75 -186.08l81.31 0c31.65,0 53.29,-6.18 64.94,-18.46 11.64,-12.28 17.46,-28.19 17.46,-47.84 0,-44.57 -28.2,-66.85 -84.49,-66.85l-79.22 0 0 133.15zm284.39 -75.85l40.47 -106.96 51.2 0 -45.84 106.96 -45.84 0zm129.23 -3.73c0,-28.56 10.37,-52.75 31.01,-72.76 20.74,-19.92 52.75,-29.92 96.14,-29.92 32.74,0 63.94,7.37 93.86,22.19l0 49.48c-26.65,-16.1 -55.94,-24.19 -87.68,-24.19 -55.02,0 -82.58,18.37 -82.58,55.21 0,9.82 4.82,18.46 14.55,25.83 9.64,7.37 21.56,13.19 35.74,17.64 14.19,4.37 29.74,10.1 46.66,17.01 16.92,7.01 32.47,14.46 46.66,22.38 14.19,7.91 26.1,19.46 35.74,34.74 9.55,15.28 14.37,33.01 14.37,53.29 0,31.11 -11.64,55.39 -34.93,72.85 -23.28,17.55 -55.48,26.28 -96.5,26.28 -36.47,0 -72.49,-8.73 -108.23,-26.1l0 -52.3c33.74,20.64 68.3,30.92 103.68,30.92 56.66,0 85.04,-17.19 85.22,-51.66 0,-14.73 -4.82,-27.28 -14.37,-37.74 -9.55,-10.37 -21.47,-17.92 -35.65,-22.56l-46.93 -15.92c-17.01,-5.91 -32.56,-11.91 -46.75,-18.1 -14.1,-6.28 -26.01,-15.92 -35.65,-29.01 -9.55,-13.09 -14.37,-28.92 -14.37,-47.57z"/>
  </g>
 </g>
</svg>
