<?xml version="1.0" encoding="utf-8"?>
<!-- Generator: Adobe Illustrator 16.0.0, SVG Export Plug-In . SVG Version: 6.00 Build 0)  -->
<!DOCTYPE svg PUBLIC "-//W3C//DTD SVG 1.1//EN" "http://www.w3.org/Graphics/SVG/1.1/DTD/svg11.dtd">
<svg version="1.1" id="Layer_1" xmlns="http://www.w3.org/2000/svg" xmlns:xlink="http://www.w3.org/1999/xlink" x="0px" y="0px"
	 width="111.25px" height="62.75px" viewBox="0 0 111.25 62.75" enable-background="new 0 0 111.25 62.75" xml:space="preserve">
<g>
	<path fill="#7A7A7A" d="M85.451,40.81c6.768,0,12.258-5.489,12.258-12.257c0-6.768-5.49-12.219-12.258-12.219
		s-12.257,5.489-12.257,12.219C73.194,35.282,78.684,40.81,85.451,40.81z M85.451,19.529c4.963,0,9.023,4.061,9.023,9.024
		c0,4.962-4.061,9.022-9.023,9.022s-9.023-4.061-9.023-9.022C76.428,23.589,80.488,19.529,85.451,19.529z"/>
	<path fill="#7A7A7A" d="M62.629,58.328c0,0.903,0.715,1.617,1.617,1.617h42.561c0.902,0,1.617-0.714,1.617-1.617
		c0-8.46-6.881-15.377-15.379-15.377H78.007v3.233h15.038c6.168,0,11.242,4.587,12.031,10.527H65.976L62.629,58.328z"/>
</g>
<g>
	<path fill="#7A7A7A" d="M25.451,40.81c6.768,0,12.258-5.489,12.258-12.257c0-6.768-5.49-12.219-12.258-12.219
		s-12.257,5.489-12.257,12.219C13.194,35.282,18.684,40.81,25.451,40.81z M25.451,19.529c4.963,0,9.023,4.061,9.023,9.024
		c0,4.962-4.061,9.022-9.023,9.022s-9.023-4.061-9.023-9.022C16.428,23.589,20.488,19.529,25.451,19.529z"/>
	<path fill="#7A7A7A" d="M45.076,56.712H5.976c0.79-5.903,5.865-10.527,12.031-10.527h15.038v-3.233H18.007
		c-8.459,0-15.377,6.88-15.377,15.377c0,0.903,0.714,1.617,1.617,1.617h42.561c0.902,0,1.617-0.714,1.617-1.617L45.076,56.712z"/>
</g>
<g>
	<path fill="#7A7A7A" d="M55.526,34.873c8.867,0,16.06-7.192,16.06-16.059s-7.192-16.01-16.06-16.01
		c-8.867,0-16.059,7.191-16.059,16.01C39.467,27.631,46.66,34.873,55.526,34.873z M55.526,6.991c6.503,0,11.823,5.32,11.823,11.823
		c0,6.502-5.32,11.822-11.823,11.822c-6.502,0-11.823-5.32-11.823-11.822C43.704,12.311,49.024,6.991,55.526,6.991z"/>
	<path fill="#7A7A7A" d="M27.743,59.945h55.764c1.183,0,2.118-0.936,2.118-2.119c0-11.084-9.015-20.146-20.148-20.146H45.773
		c-11.084,0-20.148,9.014-20.148,20.146C25.625,59.01,26.561,59.945,27.743,59.945z M45.773,41.916h19.704
		c8.08,0,14.729,6.01,15.764,13.793H30.009C31.043,47.975,37.694,41.916,45.773,41.916z"/>
</g>
</svg>
