<?xml version="1.0" encoding="UTF-8"?>
<!DOCTYPE svg PUBLIC "-//W3C//DTD SVG 1.0//EN" "http://www.w3.org/TR/2001/REC-SVG-20010904/DTD/svg10.dtd">
<!-- Creator: CorelDRAW 2018 (64-Bit) -->
<svg xmlns="http://www.w3.org/2000/svg" xml:space="preserve" width="25px" height="25px" version="1.0" shape-rendering="geometricPrecision" text-rendering="geometricPrecision" image-rendering="optimizeQuality" fill-rule="evenodd" clip-rule="evenodd"
viewBox="0 0 1.81 1.81"
 xmlns:xlink="http://www.w3.org/1999/xlink">
 <g id="Layer_x0020_1">
  <metadata id="CorelCorpID_0Corel-Layer"/>
  <g id="_2889379186080">
   <g>
    <circle fill="none" stroke="#D6766B" stroke-width="0.09" stroke-miterlimit="2.61313" cx="0.9" cy="0.59" r="0.41"/>
    <g>
     <path fill="#D6766B" fill-rule="nonzero" d="M0.86 1.63l0.09 0c0,0.02 -0.02,0.04 -0.05,0.04 -0.02,0 -0.04,-0.02 -0.04,-0.04zm0 -0.63l0.09 0 0 0.63 -0.09 0 0 -0.63zm0.09 0l-0.09 0c0,-0.02 0.02,-0.05 0.04,-0.05 0.03,0 0.05,0.03 0.05,0.05z"/>
    </g>
    <g>
     <path fill="#D6766B" fill-rule="nonzero" d="M0.59 1.4l0 0.1c-0.02,0 -0.05,-0.02 -0.05,-0.05 0,-0.03 0.03,-0.05 0.05,-0.05zm0.63 0l0 0.1 -0.63 0 0 -0.1 0.63 0zm0 0.1l0 -0.1c0.02,0 0.04,0.02 0.04,0.05 0,0.03 -0.02,0.05 -0.04,0.05z"/>
    </g>
   </g>
   <rect fill="none" width="1.81" height="1.81"/>
  </g>
 </g>
</svg>
