<?xml version="1.0" encoding="UTF-8"?>
<!DOCTYPE svg PUBLIC "-//W3C//DTD SVG 1.0//EN" "http://www.w3.org/TR/2001/REC-SVG-20010904/DTD/svg10.dtd">
<!-- Creator: CorelDRAW 2018 (64-Bit) -->
<svg xmlns="http://www.w3.org/2000/svg" xml:space="preserve" width="25px" height="25px" version="1.0" shape-rendering="geometricPrecision" text-rendering="geometricPrecision" image-rendering="optimizeQuality" fill-rule="evenodd" clip-rule="evenodd"
viewBox="0 0 1.53 1.53"
 xmlns:xlink="http://www.w3.org/1999/xlink">
 <g id="Layer_x0020_1">
  <metadata id="CorelCorpID_0Corel-Layer"/>
  <g id="_2889379207872">
   <g>
    <g>
     <g>
      <circle fill="none" stroke="#D6766B" stroke-width="0.09" stroke-miterlimit="2.61313" cx="0.64" cy="0.65" r="0.29"/>
      <g>
       <path fill="#D6766B" fill-rule="nonzero" d="M1.16 0.15c0.01,-0.02 0.04,-0.02 0.06,0 0.01,0.02 0.01,0.05 -0.01,0.06l-0.05 -0.06zm-0.33 0.28l0.33 -0.28 0.05 0.06 -0.33 0.29 -0.05 -0.07zm0.05 0.07c-0.02,0.01 -0.04,0.01 -0.06,-0.01 -0.01,-0.01 -0.01,-0.04 0.01,-0.06l0.05 0.07z"/>
      </g>
     </g>
     <polyline fill="none" stroke="#D6766B" stroke-width="0.13" stroke-miterlimit="2.61313" points="0.77,0.16 1.22,0.15 1.22,0.6 "/>
    </g>
    <g>
     <path fill="#D6766B" fill-rule="nonzero" d="M0.64 0.98c-0.09,0 -0.18,-0.03 -0.24,-0.09 -0.06,-0.06 -0.09,-0.15 -0.09,-0.24 0,-0.09 0.03,-0.17 0.09,-0.23 0.06,-0.06 0.15,-0.1 0.24,-0.1l0 0.09c-0.07,0 -0.13,0.03 -0.18,0.07 -0.04,0.04 -0.07,0.11 -0.07,0.17 0,0.07 0.03,0.13 0.07,0.17 0.05,0.05 0.11,0.08 0.18,0.08l0 0.08z"/>
     <g>
      <path fill="#D6766B" fill-rule="nonzero" d="M0.67 1.38c0,0.01 -0.01,0.03 -0.03,0.03 -0.02,0 -0.04,-0.02 -0.04,-0.03l0.07 0zm0 -0.37l0 0.37 -0.07 0 0 -0.37 0.07 0zm-0.07 0c0,-0.01 0.02,-0.03 0.04,-0.03 0.02,0 0.03,0.02 0.03,0.03l-0.07 0z"/>
     </g>
     <g>
      <path fill="#D6766B" fill-rule="nonzero" d="M0.42 1.29c-0.02,0 -0.03,-0.02 -0.03,-0.04 0,-0.02 0.01,-0.03 0.03,-0.03l0 0.07zm0.44 0l-0.44 0 0 -0.07 0.44 0 0 0.07zm0 -0.07c0.01,0 0.03,0.01 0.03,0.03 0,0.02 -0.02,0.04 -0.03,0.04l0 -0.07z"/>
     </g>
    </g>
   </g>
   <rect fill="none" width="1.53" height="1.53"/>
  </g>
 </g>
</svg>
