<?xml version="1.0" encoding="UTF-8"?>
<!DOCTYPE svg PUBLIC "-//W3C//DTD SVG 1.0//EN" "http://www.w3.org/TR/2001/REC-SVG-20010904/DTD/svg10.dtd">
<!-- Creator: CorelDRAW 2018 (64-Bit) -->
<svg xmlns="http://www.w3.org/2000/svg" xml:space="preserve" width="13px" height="22px" version="1.0" shape-rendering="geometricPrecision" text-rendering="geometricPrecision" image-rendering="optimizeQuality" fill-rule="evenodd" clip-rule="evenodd"
viewBox="0 0 0.41 0.66"
 xmlns:xlink="http://www.w3.org/1999/xlink">
 <g id="Layer_x0020_1">
  <metadata id="CorelCorpID_0Corel-Layer"/>
  <g id="_1915142514208">
   <circle fill="none" stroke="#314570" stroke-width="0.06" stroke-miterlimit="2.61313" cx="0.2" cy="0.2" r="0.17"/>
   <g>
    <path fill="#314570" fill-rule="nonzero" d="M0.18 0.64l0.04 0c0,0.01 0,0.02 -0.02,0.02 -0.01,0 -0.02,-0.01 -0.02,-0.02zm0 -0.26l0.04 0 0 0.26 -0.04 0 0 -0.26zm0.04 0l-0.04 0c0,-0.01 0.01,-0.02 0.02,-0.02 0.02,0 0.02,0.01 0.02,0.02z"/>
   </g>
   <g>
    <path fill="#314570" fill-rule="nonzero" d="M0.07 0.55l0 0.04c-0.01,0 -0.02,-0.01 -0.02,-0.02 0,-0.01 0.01,-0.02 0.02,-0.02zm0.27 0l0 0.04 -0.27 0 0 -0.04 0.27 0zm0 0.04l0 -0.04c0.01,0 0.02,0.01 0.02,0.02 0,0.01 -0.01,0.02 -0.02,0.02z"/>
   </g>
  </g>
 </g>
</svg>
