<?xml version="1.0" encoding="UTF-8"?>
<!DOCTYPE svg PUBLIC "-//W3C//DTD SVG 1.0//EN" "http://www.w3.org/TR/2001/REC-SVG-20010904/DTD/svg10.dtd">
<!-- Creator: CorelDRAW 2018 (64-Bit) -->
<svg xmlns="http://www.w3.org/2000/svg" xml:space="preserve" width="16px" height="22px" version="1.0" shape-rendering="geometricPrecision" text-rendering="geometricPrecision" image-rendering="optimizeQuality" fill-rule="evenodd" clip-rule="evenodd"
viewBox="0 0 0.5 0.68"
 xmlns:xlink="http://www.w3.org/1999/xlink">
 <g id="Layer_x0020_1">
  <metadata id="CorelCorpID_0Corel-Layer"/>
  <g id="_1915529976736">
   <g>
    <g>
     <circle fill="none" stroke="#D6766B" stroke-width="0.05" stroke-miterlimit="2.61313" cx="0.17" cy="0.29" r="0.15"/>
     <g>
      <path fill="#D6766B" fill-rule="nonzero" d="M0.44 0.03c0.01,-0.01 0.02,-0.01 0.03,0 0.01,0.01 0,0.03 0,0.03l-0.03 -0.03zm-0.17 0.15l0.17 -0.15 0.03 0.03 -0.17 0.15 -0.03 -0.03zm0.03 0.03c-0.01,0.01 -0.03,0.01 -0.04,0 0,-0.01 0,-0.03 0.01,-0.03l0.03 0.03z"/>
     </g>
    </g>
    <polyline fill="none" stroke="#D6766B" stroke-width="0.07" stroke-miterlimit="2.61313" points="0.24,0.04 0.47,0.03 0.47,0.26 "/>
   </g>
   <g id="_1915529976512">
    <path fill="#314570" fill-rule="nonzero" d="M0.17 0.46c-0.05,0 -0.09,-0.02 -0.12,-0.05 -0.03,-0.03 -0.05,-0.07 -0.05,-0.12 0,-0.05 0.02,-0.09 0.05,-0.12 0.03,-0.03 0.07,-0.05 0.12,-0.05l0 0.04c-0.03,0 -0.07,0.02 -0.09,0.04 -0.02,0.02 -0.03,0.05 -0.03,0.09 0,0.03 0.01,0.06 0.03,0.09 0.02,0.02 0.06,0.03 0.09,0.03l0 0.05z"/>
    <g>
     <path fill="#314570" fill-rule="nonzero" d="M0.19 0.66c0,0.01 -0.01,0.02 -0.02,0.02 -0.01,0 -0.02,-0.01 -0.02,-0.02l0.04 0zm0 -0.19l0 0.19 -0.04 0 0 -0.19 0.04 0zm-0.04 0c0,-0.01 0.01,-0.01 0.02,-0.01 0.01,0 0.02,0 0.02,0.01l-0.04 0z"/>
    </g>
    <g>
     <path fill="#314570" fill-rule="nonzero" d="M0.06 0.61c-0.01,0 -0.02,0 -0.02,-0.01 0,-0.01 0.01,-0.02 0.02,-0.02l0 0.03zm0.22 0l-0.22 0 0 -0.03 0.22 0 0 0.03zm0 -0.03c0.01,0 0.02,0.01 0.02,0.02 0,0.01 -0.01,0.01 -0.02,0.01l0 -0.03z"/>
    </g>
   </g>
  </g>
 </g>
</svg>
