<svg id="Layer_3" enable-background="new 0 0 64 64" height="512" viewBox="0 0 64 64" width="512" xmlns="http://www.w3.org/2000/svg"><g><path d="m22 56h-18c-1.105 0-2-.895-2-2v-16c0-1.105.895-2 2-2h18c1.105 0 2 .895 2 2v16c0 1.105-.895 2-2 2z" fill="#c66b60"/><path d="m6 28h14v4h-14z" fill="#4d5d7a"/><circle cx="13" cy="16" fill="#f5b953" r="8"/><path d="m8 32h10v4h-10z" fill="#8892a0"/><path d="m21.847 36h-17.847c-1.105 0-2 .895-2 2v12.269c1.929 1.101 4.143 1.731 6.5 1.731 7.456 0 13.5-6.268 13.5-14 0-.681-.063-1.345-.153-2z" fill="#e47c6e"/><g fill="#78b75b"><path d="m62 34h-22v6l-8-8 8-8v6h22"/><path d="m53 2-14 14 4 4h-11v-11l4 4 11-11"/><path d="m53 62-14-14 4-4h-11v11l4-4 11 11"/></g><g><path d="m3.101 45h19.799v2h-19.799z" fill="#fff" transform="matrix(.707 -.707 .707 .707 -28.719 22.666)"/></g><g><path d="m17 52c-1.654 0-3-1.346-3-3s1.346-3 3-3 3 1.346 3 3-1.346 3-3 3zm0-4c-.552 0-1 .449-1 1s.448 1 1 1 1-.449 1-1-.448-1-1-1z" fill="#fff"/></g><g><path d="m10 45c-1.654 0-3-1.346-3-3s1.346-3 3-3 3 1.346 3 3-1.346 3-3 3zm0-4c-.552 0-1 .449-1 1s.448 1 1 1 1-.449 1-1-.448-1-1-1z" fill="#fff"/></g><path d="m16 13h-2v-2h-2v2h-1c-.404 0-.77.244-.924.617-.155.374-.069.804.217 1.09l2.293 2.293h-2.586v2h2v2h2v-2h1c.404 0 .77-.244.924-.617.155-.374.069-.804-.217-1.09l-2.293-2.293h2.586z" fill="#4d5d7a"/><g><path d="m13 25c-4.963 0-9-4.038-9-9s4.037-9 9-9 9 4.038 9 9-4.037 9-9 9zm0-16c-3.859 0-7 3.14-7 7s3.141 7 7 7 7-3.14 7-7-3.141-7-7-7z" fill="#f9d18b"/></g></g></svg>