<svg height="438pt" viewBox="-4 0 438 438.41798" width="438pt" xmlns="http://www.w3.org/2000/svg"><path d="m389.800781 111.417969h-39.589843v-98.199219c-.074219-3.269531-1.707032-6.304688-4.390626-8.167969-2.6875-1.863281-6.101562-2.332031-9.1875-1.257812l-85.734374 30.386719-31.578126-31.28125c-3.914062-3.875-10.226562-3.863282-14.121093.03125l-73.875 73.871093-100 35.796875c-18.132813 4.226563-31 20.332032-31.113281 38.949219v247.289063c0 22.054687 18.351562 39.582031 40.40625 39.582031h349.183593c22.054688 0 40.410157-17.527344 40.410157-39.582031v-247.289063c0-22.054687-18.355469-40.128906-40.410157-40.128906zm-59.589843-84.042969v84.042969h-1.289063l-62.136719-61.675781zm-117.921876-3.394531 88.21875 87.4375h-175.652343zm-115.71875 87.4375h-2.878906l4.492188-1.609375zm293.230469 307h-349.183593c-11.027344 0-20.40625-8.554688-20.40625-19.582031v-247.289063c0-11.027344 9.378906-20.128906 20.40625-20.128906h349.183593c11.027344 0 20.410157 9.101562 20.410157 20.128906v49.871094h-69.464844c-27.28125-.074219-49.460938 21.980469-49.535156 49.261719v.425781 48.171875c0 27.570312 21.964843 50.140625 49.535156 50.140625h69.464844v49.417969c0 11.027343-9.382813 19.582031-20.410157 19.582031zm20.410157-197v108h-69.464844c-16.535156 0-29.535156-13.601563-29.535156-30.140625v-48.171875c-.175782-16.222657 12.835937-29.515625 29.058593-29.6875h.476563zm0 0"/><path d="m329.449219 275.5625c0 17.535156 14.214843 31.75 31.75 31.75 17.535156 0 31.75-14.214844 31.75-31.75s-14.214844-31.75-31.75-31.75c-17.535157 0-31.75 14.214844-31.75 31.75zm31.75-11.75c6.488281 0 11.75 5.261719 11.75 11.75 0 6.492188-5.261719 11.75-11.75 11.75-6.492188 0-11.75-5.257812-11.75-11.75 0-6.488281 5.257812-11.75 11.75-11.75zm0 0"/><path d="m224.632812 225.417969c5.519532 0 10-4.476563 10-10 0-5.523438-4.480468-10-10-10h-78.847656c-5.519531 0-10 4.476562-10 10 0 5.523437 4.480469 10 10 10h22.5625c9.292969.144531 17.6875 5.578125 21.621094 14h-44.183594c-5.519531 0-10 4.476562-10 10 0 5.523437 4.480469 10 10 10h44.183594c-3.933594 8.421875-12.328125 13.855469-21.621094 14h-22.5625c-4.101562.03125-7.78125 2.546875-9.289062 6.367187-1.511719 3.816406-.550782 8.167969 2.421875 10.996094l56.390625 53.300781c3.976562 3.832031 10.304687 3.710938 14.132812-.265625 3.832032-3.976562 3.714844-10.304687-.261718-14.132812-.046876-.042969-.089844-.085938-.136719-.128906l-38.1875-36.238282c19.460937-1.042968 35.863281-14.886718 40.160156-33.898437h13.617187c5.519532 0 10-4.476563 10-10 0-5.523438-4.480468-10-10-10h-13.625c-1.167968-5-3.191406-9-5.90625-14zm0 0"/></svg>