<svg xmlns="http://www.w3.org/2000/svg" width="100" height="50"><path fill="#fff" d="M0 .1h100v50H0z"/><path d="M17.16 24.14c.05 0 .1 0 .16-.02 0 .08-.1.12-.1.2 0 0 0 0-.02 0 .04.2.1.37.14.57v.02c.4.1.17.45.36.72-.05 0-.1 0-.15.03l.02.05c.13 0 .08.1.03.1l.08.33c.08.05.14.1.07.2 0 0 0 0-.02 0l.6 2.17c.18.74.36 1.26.53 1.58.1.2.22.4.36.56.04-.06.07-.1 0 0 .08.1.17.2.26.3.16.16.33.28.5.37-.03-.23-.18-.5-.2-.9.16.1.28.24.3.54.04-.02.12-.02.1-.08.16.07-.15.25.08.44.08-.02.05.08 0 0-.02 0-.04 0-.06 0-.04 0-.05.03-.06.05.07 0 .14.03.2.05.23.04.48.04.75 0-.02 0-.03-.02-.04-.04.02-.17.06 0 .06.05.12-.02.25-.04.38-.08.33-.1.62-.24.85-.45.02-.02.04-.04.07-.06-.02-.1.03-.1.06-.08.17-.2.3-.43.38-.7.1-.38.14-.75.1-1.13-.04-.37-.16-.95-.37-1.74l-.94-3.46c-.2-.8-.4-1.36-.55-1.7-.14-.35-.33-.64-.57-.9-.23-.23-.53-.4-.9-.53-.03 0-.06 0-.08 0-.04 0-.08 0-.12 0 0 0 0-.02 0-.04-.08 0-.15-.03-.2-.03 0 0 0 .03 0 .05-.05 0-.1 0-.13.02 0-.03 0-.05-.02-.08-.2 0-.4.02-.6.08-.5.13-.88.4-1.15.77-.1.15-.2.32-.26.5 0 .03 0 .07-.02.05-.08.24-.1.5-.1.78 0 .36.07.84.2 1.44zm1.22 4.48c.05.03-.03-.02 0 0zm-.5-1.83c.1 0 .15.05.16.16-.13.05-.13-.07-.16-.17zm.8 2.1c.1 0 .15.06.16.17-.08-.02-.14-.06-.15-.17zm.3.2c-.02-.18.28.03 0 0zm-1.22-4.66c.2-.2-.12.24 0 0zm1.9 6.47c-.23-.1.13-.33 0 0zm-1.6-5.8c.14-.24.2.32 0 0zm.03-.26c-.04-.02.04.04 0 0zm1.63 5.27c.27.17-.16.25 0 0zm-.13-.83c-.03-.02.05.04 0 0zm.44 1.12c.2-.2-.12.23 0 0zm-.42-2.18c-.13.05-.14-.08-.16-.18.08.02.15.07.16.18zm-.9-3.02c-.02-.02.06.04.02 0zm-.5-1.56c-.02-.2.27.02 0 0zm1.65 5.72c-.02-.2.28.02 0 0zm.72 2c-.03-.2.26 0 0 0zm.27-.25c-.02-.02.05.04 0 0zm-1.75-5.96c-.04-.35.05-.33.03-.6.15.1.15.56-.03.6zm1.68 4.73c-.03-.03.05.03 0 0zm.57 1.48zm-.2-2.13c.02-.27.1.24 0 0zm.8 1.05c.06.04-.02-.02 0 0zm-.12-1.23c.1.05.1.26.2.36-.25.1-.3-.25-.2-.36zm-1.58-5.67c.03-.27.1.24 0 0zm1.5 5.28c.06.04-.02-.02 0 0zm.55.9c.05.04-.03-.02 0 0zm-1.65-6.1c.06-.24.2.2 0 0zm1.8 5.42c.05.04-.03-.02 0 0zm.12.3c-.03-.18.26.03 0 0zm-.06-.7c-.04 0-.1 0-.13.02 0-.06 0-.1 0-.14.03 0 .07-.02.12-.02 0 .04 0 .08.02.13zm.14.44zm-1.6-6.52c-.02-.02.05.04 0 0zm.62 2.14c.05.04-.03-.02 0 0zm-.74-2.5c.03-.28.1.23 0 0zm1.9 7.3c.05-.25.13.25.02 0zM21.4 23.8c.05.04-.03-.02 0 0zm-.44-1.1s.04.02 0 0zm1.3 4.84c.13-.04.15.28-.02.2 0-.03 0-.08-.02-.12.06 0 .06-.04.05-.08zm-1.22-3.94c-.02-.2.28.02 0 0zm-.28-1.34c-.17-.06-.23-.26-.33-.4.24-.04.3.16.34.4zm1.1 5.1c.02-.28.1.23 0 0zm-1.55-5.42s.03.02 0 0zm-.44-1.05s.03.02 0 0zm.5 1.9c.12-.02.13-.1.25-.1.06.13-.1.4-.2.22-.02-.05-.03-.1-.04-.14zm1.9 7.2c.05.03-.03-.03 0 0zm.06.77c0-.04 0-.1-.02-.13.06 0 .06-.02.05-.06.12-.05.14.27-.03.2zm-1.27-4.6c-.02-.2.27.02 0 0zm-1.54-5.4c.05-.02.1-.02.14-.03 0 .05 0 .1.02.14-.04 0-.1 0-.13.02 0-.05 0-.1-.02-.13zm-.2.35c.1-.27.1.38 0 0zm.38 1.05c.14.22.57.37.5.64-.16-.15-.28-.42-.5-.25.06-.22-.07-.25 0-.4zm-.46-.78c-.03-.02.05.03 0 0zm.52 1.95c.13-.05.1.1.2.1 0 .17-.24.05-.2-.1zm.54 2.55c-.02-.2.28.02 0 0zm-1.14-3.83c.04.04-.04-.02 0 0zm-.55-.96c.08-.04.1.04.2.03-.02.06-.07.08-.06.15-.04 0-.08 0-.12.02 0-.06-.02-.13-.03-.2zm.3.8c.2-.2-.1.24 0 0zm-.26-.48c.07-.25.23.17 0 0zm-.12.08c.13.08.28.14.27.42-.26.08-.24-.2-.28-.42zm.22.92c.02-.1.1-.18.2-.2.14-.05.24 0 .32.13.07.13.18.47.33 1.02l1.38 5.16c.13.52.2.85.2 1 0 .17-.08.26-.2.3-.15.04-.25 0-.33-.12-.07-.1-.2-.47-.35-1.07l-1.36-5.07c-.15-.54-.2-.88-.2-1.04-.1-.03-.2-.2-.23-.3.18-.06.17.13.24.2zm-.52-1.13c.08-.02.06.08 0 0-.07.02-.05-.1 0 0zm.4 1.98zm1.93 7.45c-.12-.03-.03-.1-.03-.2.12.04.03.12.03.2zm-1.42-5.1c-.1-.04-.22-.07-.23-.23.1-.02.14.06.26.03-.02.05-.05.1-.03.2zm-.28-1.27c0-.02 0 0 .02 0 0 0 0 0-.02 0zm-.8-2.57c.12-.05.13.07.15.17-.05 0-.07-.06-.14-.04 0-.06 0-.1-.02-.14zm.3 1.13c.1-.03.06.08 0 0-.18 0 .03-.3 0 0zm-.7-1.87c.18-.13.24.26.04.2-.02-.07-.03-.14-.04-.2zm.56 1.75c-.22.1-.15-.2-.28-.2.06-.2.23.13.3.2zm-.5-1.1c-.08 0-.1-.1-.2-.1 0-.16.24-.04.2.1zm.68 3.32c.14-.05.1.17.22.16-.05.2-.28.03-.22-.16zm-.73-2.06c-.02-.2.27.02 0 0zm.4 1.3c0 .02 0 .02 0 .02.04.02 0 0 0 0zm-.76-2.3c.1-.03.12.04.14.12-.06 0-.06.03-.06.07-.07 0-.07-.1-.1-.18zm.6 2.54c0-.16.32-.08.27.1-.1.12-.08 0-.25.03 0-.05.07-.05.12-.07 0-.07-.1-.04-.14-.05zm-.6-2.14c.04.04-.04-.02 0 0zm-.1.22c.08.1.28.16.17.3.2.04 0 .35 0 0-.1-.04-.16-.14-.18-.3zm.86 3.28c-.02-.2.27.02 0 0zm1.02 3.85c.05.03-.04-.03 0 0zm-1.3-4.74c-.04 0-.08.02-.13.02 0-.04 0-.08-.02-.13.05 0 .1 0 .13-.02 0 .05 0 .1.02.13zm-.46-1.24c.08-.26.08.4 0 0zm.04.26c-.02-.2.27.02 0 0zm.08.1c.18.12.25.45.1.6-.18-.08-.1-.45-.1-.6zm-.2 13.47c-.06-.03-.06-.1-.08-.18.08 0 .14.06.16.17-.03 0-.06 0-.08 0 .6.3 1.2.56 1.8.78.04-.2.06-.4.03-.6-.08-.04-.16-.07-.24-.1.05.04.1.1.1.18-.18.1-.27-.35-.35-.14-.08 0-.1-.08-.1-.18-.15-.06-.3-.13-.45-.2-.07 0-.18-.1-.25-.08 0 0 0-.02 0-.03-.14-.07-.28-.14-.43-.22.02.06.07.06.1.1.18 0-.03.28 0 0-.28.08-.35-.13-.45-.3-.03 0-.06-.03-.1-.05 0 .02-.02.04-.04.06-.12 0-.08-.2-.22-.16 0-.02 0-.03.02-.04-.04-.02-.07-.04-.1-.06 0 .06-.05.1-.12.06 0-.04-.02-.08-.02-.12 0 0 .02 0 .03 0 0-.02-.03-.03-.04-.04-.05.2-.1.4-.18.57.34.2.67.4 1 .58zm.72-.1c.16-.06.27-.04.28.14-.13-.02-.28 0-.28-.16zm7.93 7.33c-.16.02-.32.03-.47.05-.03.06-.13.17-.05.02 0 0 0 0 .02-.02-.07 0-.14 0-.2.02 0 0 0 .02 0 .03-.03 0-.04-.02-.06-.03-.88.07-1.76.08-2.63.03 0 .03.02.07.02.1-.04 0-.08.02-.12.03 0-.04-.02-.08-.02-.12 0 0 .02 0 .03 0-.05 0-.1-.02-.17-.02 0 .04-.03.06-.12 0-.82-.07-1.65-.2-2.46-.36.03.15 0 .25-.16.26 0-.1 0-.23.08-.27-.96-.22-1.9-.5-2.82-.83 0 .02.02.05.02.08-.1.04-.13-.04-.14-.12-.03 0-.05-.02-.08-.03 0 0 0 .03 0 .05-.07.02-.13 0-.2-.03 0-.04.02-.06.04-.1-.26-.1-.52-.2-.78-.3-.05.05-.2.08-.14-.07-.07-.03-.15-.07-.22-.1.06.08.08.2.1.34-.15-.03-.3-.25-.22-.4-.18-.1-.35-.18-.53-.27-.04.1-.07.2-.05.26-.23-.07-.16-.2-.08-.33-.12-.06-.23-.12-.35-.18.04.03.03.15.17.08-.03.16-.33.08-.3-.1.04 0 .07-.02.1 0-.15-.1-.28-.16-.42-.24-.1-.07-.22-.13-.32-.2 0 0 0 .02 0 .03.2-.02-.02.28 0 0-.08 0-.1-.04-.08-.07-.35-.22-.7-.44-1.03-.67-.2-.15-.42-.3-.62-.46-.03.1-.06.22-.1.33 1.7 1.25 3.56 2.24 5.54 2.92 0-.13 0-.24.04-.3.18.05.16.2.1.35.25.08.5.15.73.23.05-.06.1-.1.02-.25.2-.04.17.14.15.3.52.14 1.05.27 1.6.38-.02-.04-.02-.07-.03-.1.05 0 .1-.02.13-.02 0 .05.02.1.02.14-.02 0-.04 0-.06 0 .77.15 1.54.26 2.32.32.02-.02.02-.02.02 0 .6.05 1.22.07 1.83.06.02 0 .05 0 .07 0 .53 0 1.06-.04 1.6-.1.03-.03.03-.02.02 0 .08 0 .16 0 .24-.02 0-.1.02-.2.03-.32zm-12.4-2.6c.05.03-.03-.02 0 0zm2.03 1.25c0-.2.28 0 0 0zm.56.17c.02-.26.1.24-.02 0zm1.5.54s0 0 .02 0zm7.92.82c.04-.27.12.24 0 0zm.14.44c.06 0 .1-.02.16-.02 0 .04 0 .08 0 .13-.14.07-.15-.02-.16-.1zm17.62-13.08c0-.02 0-.05-.02-.07.04 0 .1.04.02.07zM4.3 34.92c.04.03.05.07.06.12-.02-.04-.04-.07-.05-.1zm33.08 4.9s0 0 0-.02.04-.03.06-.03c.3-.28.6-.58.9-.9 0-.1-.04-.24-.1-.35-.43.47-.9.93-1.37 1.36.06 0 .04.08 0 0-.2.17-.38.33-.57.48 0 .1-.02.2-.12.16 0-.02 0-.03 0-.05-.4.3-.78.6-1.18.88-.02.05-.03.1-.03.15-.03 0-.06-.04-.08-.07-1.82 1.24-3.87 2.2-6.1 2.8-.72.2-1.43.34-2.14.45.02.1-.1.08-.1.17-.07 0-.08-.08-.1-.14-.12.02-.25.04-.38.06 0 .1 0 .2-.02.3.32-.03.64-.07.95-.13-.03-.03-.06-.07 0-.15.04 0 .1.06.14.13.33-.05.66-.12 1-.2-.1-.05 0-.27.12-.25.06.15-.08.15-.1.25.2-.04.4-.1.57-.14 0-.04 0-.08-.02-.12.05 0 .1-.02.14-.02 0 .03 0 .07.02.1.32-.07.63-.17.93-.27 0 0 0-.03-.02-.05.07 0 .13-.03.2-.04 0 .02 0 .03 0 .04.4-.14.8-.3 1.2-.45 0-.03 0-.07-.05-.1.08 0 .1-.04.12-.1.12.03.13.07.1.13.37-.14.73-.3 1.08-.47 0-.07-.02-.15-.03-.22.1 0 .12-.1.24-.1 0 .1 0 .17 0 .23.07-.03.13-.06.2-.1-.04-.07-.1-.13-.1-.27.08.06.14.13.2.23 1.2-.63 2.33-1.37 3.37-2.2 0 0 0-.03-.02-.06.02-.17.06-.03.06.03.23-.2.47-.4.7-.6 0-.02 0-.05-.02-.08.04 0 .1 0 .13-.02.07-.05.15-.13.23-.2zm.56-.9c-.03-.03.05.03 0 0zm-4.97 3.97c.05.02-.03-.03 0 0zm.93-.7c.04-.26.12.25 0 0zm1.72-1.13c.04.04-.04-.02 0 0zm.78-.78c.2-.2-.12.23 0 0zm-15.67 3.3c0 .02 0 .06 0 .1.02 0 .02 0 .02 0h-.04l.03-.1zm1.5-2.7l.04-.3.7.1.1-.82-.42-.05c-.02 0-.05.02-.12.02 0 0 0-.03 0-.03l-.28-.04c0 .06-.07.04-.13 0l-.36-.06c0 .02 0 .04-.02.06-.1.03-.15-.02-.18-.08l-.96-.12c0 .02 0 .03 0 .06-.03 0-.06 0-.08 0l-.1.74.58.07c0-.03 0-.06-.02-.1.05 0 .1 0 .13 0 .02.04.02.08.03.12 0 0 0 0-.02 0l-.33 2.78s0 .02 0 .04l-.03.2c.02-.06.07-.1.15-.1-.06.15 0 .34.1.2.08.06.07.1.02.14l.85.1.1-.73s0 0-.02 0l.08-.57s-.03 0-.04-.02c0-.05.02-.07.04-.07l.2-1.47c-.03 0-.06 0-.1 0-.02-.1.06-.08.1-.05zm.24-.65c.2-.1.13.2.18.3-.07-.03-.1-.13-.2-.1 0-.05.04-.1.02-.2zm-.23-.22c-.02-.08.08-.05 0 0 .02.07-.1.05 0 0zm-.1.2c.03-.25.12.25 0 0zm-.1.23c0-.2.28 0 0 0zm-.7.1c.28-.05.02.17.12.32-.14.03-.07-.22-.12-.3zm-.15 3.06c.05-.22.2.23 0 0zm-.15-2.47c.03-.27.1.23 0 0zm.8 2.43c.04.04-.04-.02-.02 0zm.04-.47c-.1 0-.15-.05-.17-.16-.1.23-.26-.15-.02-.13.02.06.02.1.03.14.1-.02.16.04.16.17zM21.56 42c.1.02.15.06.16.17-.08 0-.14-.06-.16-.17zm.28.48c.15-.2-.16.22 0 0zm.1-.15c-.1-.16-.07-.43-.24-.67-.07.02-.06.1-.17.1-.02-.13-.04-.26-.06-.4-.08.02-.15.02-.15-.1-.1.03-.17-.04 0-.06-.02-.08.06-.1.02-.2.15-.02.08.26.13.37.24-.07.26.16.42.2-.1.36.26.46.06.77zm-.2-1.2c0-.07 0-.14-.03-.2.18-.12.24.26.04.2zm.02-.34c.03-.26.1.25 0 0zm6.65 2.57l1.93-.6-.24-.8-.8.27-.28-.85.7-.23-.23-.74-.7.22-.24-.73.74-.24-.1-.3c-.1-.04-.13-.22-.2-.34.03 0 .06-.02.1-.02l-.04-.13-1.5.48c.18.38.3 1.1.2 1.3.3.46.3 1.2.35 1.7l.1.3c.03.04.06.12.07.2l.15.5zm1.5-1.13c.1-.23.06.5 0 0zm-.65.04c-.04-.02.05.03 0 0zm-1.12-2.85c.2-.1.13.18.18.3.06-.02.13-.03.2-.04 0 .1.03.22-.1.22.12.32-.2.1 0 0-.02-.1-.1-.08-.1-.2-.1-.02-.16-.13-.18-.3zm-.08-.06zm.38 1.52c.05.03-.03-.02 0 0zm-.3-.6c0-.2.28 0 0 0zm.26 1.92c.3-.07.32.25.4.47-.06.02-.1 0-.13-.05-.06.05-.04.16-.17.16.15-.3-.03-.25-.1-.58zm.06 1.12c-.03-.03.05.03 0 0zm-7.14-2.07c0-.02 0-.04 0-.06.03 0 .07.04 0 .06zM28.37 5.5c0 .07.03.13.05.17-.1-.02-.17-.04-.26-.06.04-.04.08-.1.2-.1zm-8.93-.28c0 .07-.08.1-.1.03-.16.03-.3.06-.46.1.03.1.05.22.1.3.06-.02.12-.03.18-.05-.02-.08-.04-.17-.1-.22.13-.04.15.07.22.1 0-.1.13-.07.2-.03 0 .1-.14.07-.2.03 0 .04 0 .07 0 .1.16-.04.3-.07.45-.1 0-.1 0-.2-.03-.27.08.04.15.15.16.26.47-.1.95-.17 1.43-.23 0-.03 0-.03.02 0 .56-.07 1.1-.1 1.66-.13-.02-.1-.04-.2-.07-.3-.3 0-.6.02-.9.05.05 0 .07.04.13.04-.03.04-.05.1-.04.2-.1-.04-.15-.13-.17-.24-.4.03-.78.08-1.16.13 0 0 .04.03.07.03-.02.1-.13.06-.2-.02-.23.04-.45.08-.67.12.07.02.12.07.13.16-.13.05-.14-.06-.16-.15-.1.02-.2.04-.3.06 0 0 0 0 0 .02-.05 0-.1.02-.14.03 0 0 0-.03 0-.04-.02.02-.04.02-.06.02zm.72.05c.03-.27.1.24 0 0zm-3.6.8c-.25.1-.52.2-.78.3-.03.1-.03.22-.17.23.03-.05.04-.12.06-.18-2.7 1.16-5.05 2.86-6.94 4.93 0 .1.03.2.06.32-.1-.02-.14-.1-.2-.18-.53.6-1.04 1.24-1.5 1.9.03.03.05.07-.06.08-.04.07-.1.14-.14.2 0 .03 0 .05.02.07-.02 0-.04 0-.05 0-.12.16-.23.33-.34.5 0 .03 0 .04 0 .03-.06.1-.1.17-.16.25.1 0 .1.24.15.34-.18.06-.13-.2-.2-.27-.3.5-.57.98-.8 1.5.1 0-.03.35.13.3-.13.15-.2-.04-.2-.22-.03.1-.08.2-.12.3 0 .03 0 .06-.02.04-.12.26-.24.53-.35.8 0 0 0 .03 0 .04-.1.18-.16.37-.23.55 0 .02 0 .02 0 .03-.13.33-.25.66-.35 1 0 0 0 .03 0 .04 0 0 0 0-.02 0-.02.08-.04.15-.06.2.06 0 .1-.02.1-.07.1.12.1.3.08.5-.1-.06-.14-.23-.2-.4-.06.26-.13.5-.2.76 0 0 0 .03 0 .05-.2.76-.35 1.5-.46 2.28.02.02.04.04.05.03 0 .1-.04.1-.07.1-.12.92-.18 1.86-.17 2.82.05-.02.1-.04.13-.06-.2.02.02-.27 0 0 .05.05 0 .14-.1.23.02 1.54.23 3.1.64 4.68.1-.25.26.2.05.2.02.1.05.18.08.28 0 0 0 .02 0 .04.16.5.32 1.02.5 1.5.07.05.1.15.13.23-.02 0-.03 0-.04-.02.4 1.06.88 2.05 1.43 3 .02-.14.25.03.02.02 1 1.7 2.26 3.24 3.7 4.55 0-.02 0-.05.02-.08.22 0 .13.1.04.14.45.4.92.78 1.4 1.14.02-.1.06-.2.1-.3-1.02-.78-1.96-1.66-2.8-2.62-.03.02-.06.02-.1 0 0-.04-.02-.1-.03-.14-.06-.07-.12-.14-.18-.2-.1-.02-.14-.1-.14-.16-.24-.3-.48-.6-.7-.9-.02.02-.04.05-.03.07-.14-.02-.08-.1-.03-.16-.16-.22-.32-.45-.47-.68-.03 0-.06 0-.1 0 0-.06-.02-.14-.03-.2-.38-.6-.73-1.2-1.05-1.84-.02-.02-.04-.06-.05-.1-.22-.46-.43-.92-.62-1.4 0 .03 0 .05 0 .08-.03 0-.07 0-.12.02 0-.04 0-.1-.02-.13.04 0 .08 0 .12-.02-.16-.37-.3-.76-.43-1.16-.02 0-.04 0-.08 0 0-.06.02-.08.05-.08-.02-.07-.04-.15-.07-.23 0 .02 0 .04-.02.06 0 0-.03 0-.05 0 0 .02 0 .04 0 .06.08-.02.06.1 0 0-.03 0-.07-.04 0-.06-.02-.05-.07-.07-.14-.05.02-.05.05-.08.13-.08-.06-.14-.3-.13-.18-.3.16-.1.1.1.2.1-.05-.16-.1-.34-.15-.52-.12-.48-.23-.96-.33-1.44-.1-.1-.15-.22-.17-.43.04.04.08.08.12.1-.14-.74-.22-1.5-.27-2.25-.1 0-.13-.13-.17-.23.08 0 .1.05.17.07-.02-.28-.03-.55-.03-.83 0-.02 0-.03 0-.04 0-.55.02-1.1.06-1.64-.04-.06-.02-.22-.06-.3.04 0 .07.02.08.03.06-.6.14-1.18.24-1.76-.05-.2-.23-.33-.15-.48.1.04.12.2.17.3.03-.1.05-.23.08-.34-.07 0-.17-.15-.17-.23.18-.14.1.13.18.15.16-.74.36-1.46.6-2.17 0-.06 0-.12-.03-.16.03 0 .06 0 .07 0 .17-.48.36-.97.57-1.44-.03-.04-.03-.1-.05-.17.06 0 .1 0 .12.03.03-.07.06-.14.1-.22-.04.07-.14.04-.2 0 .03.2-.26 0 0 0 .03-.08.07-.14.18-.15.02.07-.07.1.02.12 0 0 0 .02 0 .03.2-.47.45-.93.7-1.38 0-.06.03-.08.05-.08.02-.07.06-.13.1-.2.18-.3.38-.63.58-.94-.05-.05-.1-.13-.12-.2.1 0 .15.03.2.08.27-.4.56-.8.86-1.2-.06-.13-.05-.38 0-.44.1.02.22.03.32.03.3-.38.64-.74.97-1.1-.02-.02-.03-.08 0-.2.06.04.1.08.1.12.07-.1.14-.17.22-.24-.02 0 0 0 0 0 .18-.2.37-.37.56-.54 0 0 0 0 0-.02 0 0 0 0 .02 0 1.77-1.64 3.86-2.98 6.2-3.9.5-.2 1-.38 1.53-.54-.04-.06-.06-.14-.08-.23.08.04.14.1.18.2.2-.06.37-.1.55-.16.07-.02.14-.03.2-.05.02-.03.03-.03.04 0 .07-.03.16-.05.24-.07-.12-.03-.2-.13-.26-.25-.1.02-.2.04-.3.07-.56.15-1.12.33-1.66.53 0 0 0 0 .02.02.2-.02-.02.28 0 0-.1.04-.1.1-.2.04zm-7.2 33.16c-.03-.02.04.04 0 0zm-1.1-1.2c.02-.26.1.24 0 0zm-1.73-2.48c.04 0 .1-.02.13-.02 0 .04 0 .08.02.12-.04 0-.1.02-.13.02 0-.04 0-.08-.02-.13zM5.5 33.66c-.1-.25.2-.04 0 0 .1.26-.18.05 0 0zm-1.1-3.24c0 .2-.3-.02 0 0-.12-.26.18-.04 0 0zm-.5-2.23c.04.04-.04-.02 0 0zm-.17-1.8c.05.02-.03-.03 0 0zm-.2-.9c.05-.23.2.23 0 0zm.25-2.4c-.1-.05-.16-.15-.18-.3.1.03.16.13.18.3zm.34-2.77c.04.04-.04-.02 0 0zm.56-2.13c-.02-.2.28.02 0 0zm1.58-3.15c.03-.27.1.23 0 0zm12.38-9.47c.05.04-.03-.02 0 0zm-1.5.38c.03-.26.1.24 0 0zM45 21.06c-.1-.57-.23-1.13-.37-1.68-.02-.07-.04-.14-.06-.2 0 0-.02.02-.04.02.1.35-.02.55-.06.8-.2-.03-.08-.65.06-.8 0-.02 0-.04 0-.06-.2.02 0-.28 0 0 0 0 .02 0 .03 0-.34-1.2-.77-2.35-1.28-3.44 0 .04-.02.06-.1-.03 0-.06.03-.07.05-.06-.5-1.02-1.06-2-1.7-2.93-.04.04 0 .14-.13.13 0-.1 0-.2.03-.28-.4-.56-.8-1.1-1.25-1.6 0 .04-.05.08-.13.06 0-.07-.02-.13-.02-.2 0 0 .02 0 .03 0-.23-.28-.47-.54-.72-.8 0 0-.02 0-.04 0 0 0 0-.03 0-.04-.7-.73-1.45-1.4-2.24-2.03-.05 0-.1.02-.18.04 0-.02 0-.04 0-.06-.15.07-.53.26-.54-.05.1.14.45-.1.53.05 0-.03.04-.05.07-.06-1.74-1.34-3.67-2.42-5.73-3.2 0 .04 0 .05-.02 0-.28-.1-.57-.2-.86-.3-.04.04-.1.06-.14.07-.1.02-.2 0-.3-.04-.2.13-.38.27-.5.46-.2-.28.16-.42.4-.58 0 0 0 0 0-.02-.02-.02-.02-.04-.02-.07-2.3-.67-4.7-.97-7.15-.86 0 0 0 0-.03 0-.9.04-1.78.14-2.68.3 0 .07.02.14.02.2-.1 0-.12-.1-.15-.18-.2.04-.4.07-.6.12.03.04.05.1.05.17-.07 0-.1-.07-.14-.14-.36.07-.7.16-1.07.25-.25.08-.5.16-.76.24 0 .1 0 .23-.06 0-.1.05-.2.08-.3.1 0 0 0 .02 0 .02.16-.08.14.1.22.16.1-.03.16.04.15.17-.08-.02-.14-.07-.15-.18-.13.04-.15-.07-.22-.1 0-.02 0-.04 0-.06-.14.03-.26.07-.38.12.08 0 .15 0 .15.1.17-.1.23.27.03.2 0-.06-.02-.13-.03-.2-.04.02-.1.02-.13.03 0-.03 0-.07-.02-.12-.3.36-.45 1-.5 1.5.12-.05.23-.1.34-.13-.03-.03-.05-.1.03-.16-.13-.12 0-.1-.04-.27.1-.06.15.3.04.26.03.06.03.1.03.13.55-.2 1.12-.4 1.7-.56-.02 0-.03-.02-.04-.05.02-.18.07 0 .06.05.07-.02.14-.05.2-.06 0 0 .02 0 .03 0 0-.04 0-.1-.06-.15.12-.06.14.02.15.13.07-.02.13-.04.2-.06 0-.04 0-.1.02-.13-.26.1-.12-.37-.37-.28 0-.12.1-.17.24-.17 0 .2.1.3.13.44.06 0 .1.03.13.1.4-.1.8-.2 1.22-.27.06 0 .1-.02.16-.03-.04-.02-.1-.1-.06-.18.07 0 .06.12.15.1 0 .03 0 .05-.02.07.05-.02.1-.03.15-.04.08 0 .17-.02.25-.04-.12-.03-.2-.25-.12-.37.18.1.15.22.13.37 1.1-.16 2.2-.23 3.3-.22.02-.1.04-.06.05 0 .26 0 .5.02.74.03.1-.1.07-.05.03 0 1.3.07 2.55.27 3.77.57.23-.08.45-.24.48-.42.05 0 .08.05.14.04 0 .04 0 .1.02.13-.16.08-.26.2-.37.32.88.23 1.73.5 2.55.85.04-.06.13 0 .1.04.74.3 1.46.65 2.16 1.04 0-.03 0-.05 0-.07-.13.04-.15-.28.02-.2 0 .04.02.08.02.12-.04 0-.07.02-.05.08.05 0 .1.07.13.14.05.02.1.05.15.08.62.36 1.22.75 1.8 1.17.05-.1.07 0 .07.05 1.32.97 2.53 2.1 3.6 3.37 0-.13.06-.3.06-.36.2.1-.02.35.16.5-.03 0-.06 0-.08 0 .42.52.8 1.05 1.18 1.6.02-.02.06-.02.15.04-.02.05-.04.07-.07.07.33.5.63 1 .92 1.53.22.08.5.06.7.18-.13.1-.46.05-.65-.08.73 1.36 1.3 2.82 1.73 4.38 0 .02 0 .05.02.07 0 0 .03.03 0 0 .36 1.38.57 2.75.65 4.12.05-.1.12-.2.18-.24-.1-.26.2-.05 0 0-.04.22-.1.43-.16.63 0 .15 0 .3 0 .47.06.05.08.14.1.2-.03.03-.06.02-.1 0 0 .53 0 1.04-.05 1.55.05.08.02.2-.02.3-.14 1.6-.48 3.2-1 4.7.1.02.13.03.14-.1.15.06 0 .27-.2.3-.02.03-.03.06-.04.1.07.03.12.1.18.12-.04.12-.15.1-.23.02-.06.2-.13.37-.2.55 0 .03 0 .04-.02.05-.37.93-.8 1.84-1.3 2.7-.1.18-.22.37-.33.55.1.22.2.45.3.72-.1-.2-.23-.4-.37-.62-.62 1-1.32 1.93-2.1 2.8-.02.03-.03.04-.05.05-.04.05-.08.1-.12.14.06.06.1.14.13.27.24-.04.1-.34.33-.38-.02.07-.1.4 0 .38 0 .08-.1.1-.18.1.02.28.23.3.28.54-.35-.1-.4-.6-.67-.8-.3.3-.6.6-.9.9 0 .02 0 .04-.06.05-.54.5-1.12 1-1.72 1.44.13 0 .08.23.12.33.2-.02 0 .28 0 0-.1-.04-.15-.13-.17-.28-.9.66-1.84 1.25-2.84 1.77.1.26.15.56.25.8-.23-.1-.27-.46-.37-.74-.14.08-.3.15-.44.22.02.06 0 .12-.04.02-.2.1-.4.2-.6.28.05 0 .1.1-.07.08 0-.03 0-.05 0-.06-.26.1-.53.23-.8.33 0 .02 0 .04 0 .06-.05 0-.05.04-.05.08-.05 0-.06-.04-.07-.1-.16.07-.32.13-.48.18.03.06.03.15-.08.03-.02 0-.04 0-.06 0 0 .03 0 .04 0 .06 0 0-.04-.02-.06-.02-.1.03-.2.06-.32.1 0 .06 0 .1-.04 0-.17.07-.35.12-.52.17.02.07.02.2-.05.06 0-.02.02-.03.02-.04-.1.03-.2.06-.3.08-.95.26-1.93.45-2.9.56-.02.27-.04.5 0 .7-.25-.04-.12-.45-.48-.18-.04-.17-.05-.33-.04-.46-.33.02-.64.05-.96.06.02.02.03.06.03.1-.05 0-.1-.04-.13-.1-.1 0-.2 0-.28.02-.02.03-.05.06-.12.03 0 0 0-.02 0-.03-.8.02-1.62-.02-2.4-.1-.02.03-.03.05-.03.07-.04 0-.05-.04-.05-.07-.44-.05-.88-.1-1.3-.18 0 .08-.02.17-.02.2-.13 0-.1-.1-.07-.2-1.03-.2-2.05-.45-3.04-.78-.03.12-.04.23.06.3-.04.17-.3 0-.28-.15.07-.05.1-.1.14-.2-1.27-.43-2.5-.98-3.66-1.65-.66-.38-1.3-.8-1.92-1.26-.1.4-.22.84-.33 1.28.33.22.66.45 1 .66 0-.02 0-.03 0-.04.05.02.1.05.2.03 0 .04-.04.07-.05.1.2.12.38.23.57.34.1-.1.07-.04.03.02.4.2.8.43 1.23.63.05-.06.08-.02.08.04.05.02.1.05.15.07 0 0 0-.02.02-.03.05.03.08.06.1.1.2.1.4.18.6.27.05-.02.1-.03.14-.03 0 .03 0 .06 0 .1.86.35 1.75.66 2.66.9.03-.05.12-.13.12.05.12.02.25.05.38.08.03-.02.06 0 .07.02 1.15.3 2.32.48 3.5.57 0-.05 0-.1 0-.14.1 0 .13.07.14.15.25.02.5.03.76.04-.02-.04-.02-.1 0-.14.1 0 .13.1.23.1 0 .02-.02.04-.03.05.98.02 1.96 0 2.96-.12-.04-.15-.06-.3-.1-.45.12-.02.22-.04.33-.05-.02.2.02.33.04.47 1-.12 2-.3 2.98-.58 1.06-.3 2.08-.65 3.05-1.07-.06-.1-.1-.23-.1-.4.18-.06.15.2.17.37.23-.1.45-.2.68-.3-.02-.07-.03-.14-.04-.2.1-.02.18-.03.27-.04-.06.04-.07.12-.12.18 1.05-.5 2.04-1.1 2.98-1.76 0 0 0 0 0-.02-.03-.06-.02-.12 0-.17-.16-.15-.32-.32-.43-.55.07-.16.23.1.17-.16.1-.22.06.38.3.2 0-.06.04-.08.04-.13.15-.04.08.22.13.3-.04 0-.1.02-.13.03.02.06.04.12.07.16.03-.03.08-.04.12-.06.08-.02.17-.02.24 0 .64-.47 1.25-.97 1.83-1.5 0-.02-.04-.03-.02-.03 0 0 0 0 .02.02.28-.3.57-.56.84-.85 0-.02-.03-.03-.07-.02 0-.05 0-.1-.02-.13.1-.04.14.03.15.1.55-.57 1.06-1.17 1.54-1.8 0 0 0-.02 0-.03.3-.38.58-.76.84-1.16-.03-.1.03-.14.03-.22.04 0 .08 0 .1.03.12-.18.24-.36.35-.55 0-.05 0-.1.03-.14.02 0 .04 0 .05 0 .13-.2.25-.4.37-.62 0 0 0-.02 0-.03 0 0 .02-.02.03-.03.1-.16.17-.32.25-.48-.03 0-.07 0-.1.02 0-.05-.02-.1-.02-.13.04 0 .08 0 .12-.02 0 .04.02.07.02.1.14-.26.27-.53.4-.8 0-.12.06-.18.08-.3 0 0 .03 0 .05 0 .05-.12.1-.23.15-.35 0-.08.02-.1.05-.12.06-.14.12-.28.17-.43-.04-.02-.07-.06-.12-.06 0-.04 0-.08.05-.08.04 0 .08 0 .13-.02 0 0 0 0 0 .02.32-.83.6-1.7.8-2.55-.02-.02-.04-.06-.05-.08.03 0 .05 0 .07 0 .02-.07.03-.14.05-.22 0 0-.02 0-.03 0 0-.1.03-.23.1-.3.15-.7.26-1.38.35-2.07-.02 0-.05.02-.12 0 0-.1.1-.07.12-.03.04-.35.07-.7.1-1.06 0-.04-.02-.08-.02-.1-.04 0-.1 0-.13 0 .02-.22.08-.42.18-.6.05-1.48-.06-3-.32-4.5 0 0-.03 0-.06-.13.02-.03.02-.04.03-.05zM16.3 5.3c-.2 0 .05-.14-.03-.25.08 0 .14.06.16.17-.08 0-.1.03-.12.08zm.08.06c.07-.25.23.17 0 0zm.43.2c.05.03-.02-.03 0 0zm-.23-.63c.06-.22.2.23 0 0zm.33.4c.04-.18.03-.27-.07-.44.14.08.08-.03.26-.05-.08.16.07.48-.2.5zm.46 0c.07-.24.23.18 0 0zm.35-1.04c.06.02-.02-.04 0 0zm-.12.8c.1.03.14.12.17.23-.12-.04-.27-.1-.17-.23zm.24.22c-.04-.02.05.04 0 0zm.04-.53c-.04 0-.1 0-.13 0 0-.03 0-.08-.02-.12.05 0 .1 0 .14-.02 0 .04 0 .1.02.13zm0-.4c0-.07-.02-.13-.03-.2.17-.13.23.26.03.2zm.86.05c-.06 0-.13.02-.2.03 0-.02 0-.04 0-.06-.08.02-.06-.1 0 0 .05-.02.06-.07.04-.14.06 0 .1.04.14.04 0 .04 0 .1.02.13zm.7.34c.06.03-.02-.03 0 0zm-.05-.8c.05.05-.03 0 0 0zm.43.27c-.02-.2.28.02 0 0zm0-.33c.1-.26.1.4 0 0zm.22.1c.04-.27.12.24 0 0zm.12.3c.2-.2.14.14.25.3-.27.14-.08-.33-.26-.3zm.1-.53c.08-.24.24.18 0 0zm.33.35c.05.03-.04-.02 0 0zm-.1-.18c.04-.27.12.24 0 0zm.38.33c.28.24-.13.27 0 0zm.76.2c-.13.02-.16-.13-.17-.3.1.04.16.14.18.3zm.43-.2c-.03-.02.05.04 0 0zm.65-.43c-.02.08-.06.15-.17.16-.04-.13.08-.14.18-.16zm0 .4c0-.06.05-.08.04-.14.04 0 .1-.02.13-.02.05.14-.07.14-.17.17zm1.17-.46c-.04 0 .04.05 0 0zm.2.5c.04-.26.12.25 0 0zm3.66-.06c.04-.27.12.24 0 0zm.5-.15c-.27.04-.05-.26 0 0 .12.06.2.18.26.34-.14-.04-.35-.2-.25-.35zm.42.5c-.04.02-.1.03-.13.03 0-.04-.02-.08-.03-.12.04 0 .1 0 .13-.02 0 .05 0 .1.02.13zm.16-.2c.06-.24.2.2 0 0zm.6.48c.1.02.15.07.16.18-.08-.02-.14-.06-.16-.18zm.53.05c-.22.03-.16-.07-.16-.24.12 0 .17.08.17.23zm.2.3c.02-.27.1.24 0 0zm-.04-.2c.03-.26.12.25 0 0zm.24-.16c-.04-.03.04.03 0 0zm.57-.1c.04 0 .08 0 .13-.02 0 .04 0 .1.02.13-.05 0-.1 0-.13.02-.02-.04-.02-.08-.03-.13zm-.48.28c-.04-.02.04.03 0 0zm.27.48c-.04-.02.04.04 0 0zm.56.24c-.27.04-.25-.32-.2-.5-.2.04-.24-.16-.27-.35.15.03.25.12.26.36.07.16.32.3.2.5zm.25-.83c.04-.27.12.24 0 0zm.38.72c-.03-.02.05.04 0 0zm-.13-.44c-.1 0-.15-.06-.16-.17.1-.02.16.04.16.17.2 0-.02.28 0 0zm.83 1.12c.2-.02-.02.28 0 0-.1 0-.08-.14-.1-.25-.22 0-.2-.36-.3-.55.2.12.34.35.3.54.26-.07.05.12.1.24zm.57.3c.05.04-.03-.02 0 0zm-.17-.7c-.05 0-.1.02-.13.03 0-.04 0-.1-.02-.13.05 0 .1 0 .14-.02 0 .04 0 .08.02.13zm-.2-.36c.08 0 .07.12.16.1 0 .2-.2.05-.15-.1zm.4.86c.04-.27.12.24 0 0zm.37-.2c-.17.07 0-.35-.18-.3.14-.17.2.12.18.3zm.5.32c-.13 0-.16-.14-.17-.3.14 0 .16.14.18.3zm.44.65c-.03 0 .05.05 0 0zm1.57.42c.03-.27.12.24 0 0zm-1.06-.5c.05.05-.03 0 0 0zm-.03-.18c-.14 0-.16-.14-.18-.3.2-.1.13.18.18.3zm.74 1.33c-.06 0-.1 0-.14.02 0-.1-.03-.18-.04-.27.04 0 .08 0 .13-.02 0 .1.03.18.04.27zm-.23-1.35c-.04 0-.08 0-.13.02 0-.04 0-.1-.02-.13.04 0 .1 0 .13 0 0 .03 0 .08.02.12zM36 8.1c-.1-.2.1-.15.22-.18 0 .1-.1.16-.23.17zm1.44 1.66c.03-.27.1.24 0 0zm.42-.6c-.03-.02.05.04 0 0zm.92 1.63c.05.03-.03-.03 0 0zm.62.55c-.04-.02.04.03 0 0zm.6.16c.04-.25.13.25 0 0zm-.3.46c.02-.27.1.24 0 0zm.38.8c.04-.27.12.23 0 0zm-.6-2.08c-.02-.2.28 0 0 0zm.58 1.68c0-.02 0-.04 0-.06 0 .02 0 .04 0 .06zm.02-.1c0-.03 0-.05.02-.06 0 0-.02.04-.02.07zm.02-.17c0-.07-.02-.14-.03-.2.17-.13.24.25.03.2zm.5 1.36c.02-.27.1.24 0 0zm-.48-2.1c-.2-.02 0-.2-.05-.32.15 0 .08.28.05.32zm.57 1.5c-.04-.03.03.03 0 0zm-.35-1.27c.05.02-.03-.03 0 0zm-.1-.26c-.02-.2.27.02 0 0zm.5 1.17c0-.05 0-.12-.02-.18.17-.13.23.25.03.2zm.53 1.18c-.03-.03.05.03 0 0zm.22.55c.03-.26.12.24 0 0zm.1-.6c.05.03-.03-.03 0 0zm-.23-.23c-.02-.18.07-.3.05-.47.14.05.2.5-.05.47zM12.04 42.48c-.03-.02.05.04 0 0zm.1.2c-.03-.04.05.02 0 0zm.38.32c.1-.27.08.38 0 0zm.1-.15c-.03 0-.08 0-.12.02 0-.05 0-.1-.02-.13.04 0 .08 0 .12-.02 0 .04.02.1.03.13zm.45.32c.2-.2-.12.24 0 0zm.16.17c0 .1.04.22-.1.2 0-.03 0-.07-.02-.1.05-.02.1-.03.07-.1.02 0 .04 0 .06 0-.02-.07.1-.05 0 0zm.5.58c.04.03-.04-.02 0 0zm-.13-.3c.03-.27.12.23 0 0zm.3.14c-.27.1-.06-.2 0 0 .27-.05.05.25 0 0zm1 1.08c.06.04-.02-.02 0 0zm2.06.13c.04-.26.12.24 0 0zm-2.17-1.3c.26.17-.17.26 0 0zm.23.7c-.03-.03.05.03 0 0zm-.05-.32c-.04 0-.1 0-.13 0 0-.03 0-.07-.02-.1.04-.02.1-.03.13-.03 0 .04 0 .08.02.13zm.07.05c.05.03-.03-.02 0 0zm.92.38c.03-.27.1.24 0 0zm.18.36c.04.02 0 0 0 0zm0-.4c.07-.22.2.23 0 0zm.5.58c-.05 0-.1.02-.13.02 0-.04-.02-.08-.02-.12.04 0 .08-.02.12-.02 0 .04.02.08.02.12zm.35.2c.02.08-.08.06 0 0-.05-.27.25-.05 0 0zm.4.47c.12-.3.13.2 0 0zm.36-.26c0-.07-.02-.13-.04-.2.18-.12.24.26.04.2zm1.2.2c-.03-.03.06.03 0 0zm.3.2c0-.04 0-.08-.02-.12.06 0 .06-.03.06-.08.1-.04.14.28-.04.2zm.07-.4c-.04 0-.1.02-.13.02 0-.04 0-.08-.02-.12.04 0 .08-.02.13-.03 0 .05.02.1.03.14zm.58.76c-.14-.1-.16-.25-.13-.43.1-.02.18-.02.18-.1.23.25-.23.14-.04.53zm.22-.3c.03-.26.12.25 0 0zm.1.2c-.02-.2.27 0 0 0zm1.5.33c.05-.22.2.23 0 0zm.2.04c.04.04-.04-.02 0 0zm-.32-.74c-.04-.14.02-.2.16-.22-.06.08.02.25-.16.23zm.3.28c-.05-.14.1-.15.02-.32.18-.13.15.35-.02.33zm.7-.17c-.26.05-.2-.14-.18-.3.1.04.16.14.17.3zm.9-.08c-.03-.02.05.03 0 0zm-.5.15c-.08.02-.05-.1 0 0 .07-.02.05.08 0 0zm.24.3c-.05 0-.06-.03-.07-.07 0-.04-.02-.08-.02-.12.06 0 .12 0 .2-.03-.02.1-.1.12-.1.22zm.2.02c.04-.27.12.24 0 0zm.1-.2c.03-.07.05-.13.03-.22.23-.13.06.3.3.16-.04.2-.22 0-.33.05zm.9-.1c-.03-.02.05.04 0 0zm1.05.43c-.15.22-.2-.17-.12-.25.1 0 .1.15.1.25.1-.02.06.08 0 0zm1-1.02c.05.03-.03-.03 0 0zm3.42.1c-.02-.2.27.02 0 0zm.67-.7c.02-.27.1.24 0 0zm.2.5c-.08 0-.05-.1 0 0 .2.03-.02.34 0 0zm.3-.13c-.13.06-.1-.1-.2-.1 0-.16.24-.04.2.1zm1.73-1.47c-.02-.2.27.02 0 0zm.35.54c.03-.26.1.24 0 0zm.24-.1c0-.07-.02-.13-.03-.2.06 0 .12-.02.18-.03-.05.07.02.24-.16.22zm.52-1.2c-.02-.03.05.03 0 0zm2.3-1.24c-.04-.02.04.04 0 0zm.15.17c.02-.26.1.24 0 0zm-.17-.57c-.02-.2.28.02 0 0zm.9 0c-.02-.03.06.02 0 0zm.6-.44c-.07-.1-.22-.07-.24-.23.08-.02.16-.03.25-.04.03.1-.06.15-.02.26zm.12-.5c.04 0 .08 0 .12 0 0 .06.02.12.04.18-.05-.02-.1-.04-.2-.02 0-.06.06-.08.05-.15zm.35.6c-.04.02-.08.03-.12.03 0-.04-.02-.08-.02-.12.04 0 .08 0 .12 0 0 .03.02.07.02.1zm.07-1.18c.15 0 .08.27.05.32-.2-.03.06-.18-.05-.32zm.27.87c.2-.2-.1.24 0 0zm.25-.1c-.04-.03.04.02 0 0zm0-.28c-.15-.1-.33-.46-.25-.8.22-.04.3.16.33.4-.1-.07-.1 0-.2.03.07.12.24.22.13.37zm.1-.27c.1-.28.12.2 0 0zm.4-1.52c.05.04-.03-.02 0 0zm-.14.3c.04.02-.04-.04 0 0zm.37.26c-.23.08-.14-.25-.2-.38.2 0 .38.23.2.37zm.1-.5c-.02-.15-.05-.3 0-.4.25-.07.17.42 0 .4zm.4-.4c-.1 0-.08-.18-.27-.08 0-.04 0-.08-.02-.12.06 0 .06-.04.05-.08.16 0 .32.17.24.3zm.26-.03c.02-.27.1.24 0 0zm.06-.8c0-.06.05-.07.04-.14.04 0 .08 0 .13-.02.05.14-.07.15-.17.17zm.45-.4c-.2-.03.06-.14.05-.2.22.02-.06.13-.04.2zm.15-.35c.03-.27.12.24 0 0zm.03-.2c.12-.3.13.2 0 0zm.4-.73c.1-.04.2.4 0 .32-.1-.18.06-.18 0-.33zm.05.64c.17.1.32.24.4.46-.2-.05-.46-.3-.4-.46zm.1-.6c0-.06.05-.08.04-.15.04-.02.08-.02.13-.03.05.13-.07.14-.17.16zm.15-.3c.03-.26.1.24 0 0zm.33-.38c-.15.27-.24-.16 0 0zm.25-.1c-.26-.03-.1-.37-.08-.52.1.12.1.3.08.5.08 0 .05.1 0 0zm.36-.6c-.45-.08.1-.66.2-.88 0-.2-.2-.1-.2-.3.73.3-.12.57 0 1.2zm.58-.1c0 .02.02.02.02.02s-.02 0-.02 0zm-.02-.5c-.28.1-.16-.3 0 0zm.26-.45c-.06.02-.13.04-.2.04.03-.2-.1-.15-.1-.3.14.08.07-.02.25-.05-.1.13.06.1.05.3zm.17-.54c-.32-.13-.18 0-.44.14-.07-.24.23-.2.12-.48-.1.03-.18-.05-.02-.07.14-.14.06-.1.02-.33.34.04.12.45.3.74zm-.02-.46c.07-.25.24.17 0 0zm.5-3.04c.04.03-.04-.02 0 0zm-.17 2.66c-.1-.1-.18-.44-.14-.5.08.02.1.13.22.1.04.18-.1.2-.07.4zm.42-.33c-.04 0-.08 0-.06.06-.04 0-.08.02-.12.02-.02-.1 0-.14.03-.2-.28.06-.06-.25 0 0 .04 0 .08 0 .12-.02 0 .04 0 .1.02.13zm-.42-1.8c-.08.02-.16.02-.15-.1.04 0 .08 0 .13-.02 0 .05 0 .1.02.13.16-.23.14.22 0 0zm.44 1.13c.05.03-.03-.03 0 0zm-.6-1.3c-.25-.1.1-.24 0-.45.17.04.23.24.32.4-.25.04-.27-.3-.32.06zm.7 1.08c.04.05-.04 0 0 0zm-.3-1.06c.02-.26.1.24 0 0zm.37.73c.06.04-.02-.02 0 0zm.05-4.95c-.1-.25.2-.04 0 0 .02.08-.08.06 0 0zm-.1.5c.06-.03.04.07 0 0-.2 0 0-.3 0 0zm-.05.2c0 .05.02.12.03.18-.16.02-.2-.1-.24.1-.2-.07.07-.27.2-.3zm.6 2.52c-.1-.06-.26-.1-.3-.28-.24-.13-.45-.3-.6-.56.23.14.55.16.6.56.15.03.28.1.3.28zm-.1-.77c.05-.22.2.23 0 0zm-.1-.12c-.17-.13-.1.12-.3.12.1-.43.36-.76.45-1.2.26.36-.23.67-.15 1.08zm-.42-3.02c-.02-.2.27.02 0 0zm-.33-6c-.02-.2.27 0 0 0zm0-.97c.03-.02.03-.02 0 0zm0 .03c-.02 0-.03 0-.03.02 0 0 0 0 0-.02 0 0 0 0 .02 0zm-.05.05c-.02.02-.02.02 0 0zm-.15-.34c-.03-.02.05.04 0 0zm.02.14c-.2.3.13-.22 0 0zm.65 3.18c.05.04-.03-.02 0 0zm-1.6-5.4c.3-.1-.05.25.17.23 0 .06-.03.07-.07.08-.04 0-.08 0-.12.02-.04-.15.1-.16.02-.33zm1.4 5.04c-.02-.03.06.03 0 0zm-.05.4c-.14 0-.07-.3.08-.28.08.17-.1.15-.08.28zm.1.3c.02.06.03.1.03.14-.04 0-.08 0-.13.02 0-.04 0-.08-.02-.13.05 0 .1-.02.13-.03zm-.7-2.44c0-.05.04-.1.02-.2.07.02.13.06.15.17-.07 0-.13 0-.2.02zm-.7-2.52c.04-.27.13.24 0 0zm-.52-1.7c-.02-.2.27.03 0 0zm.58 2.02c.02.07-.08.05 0 0-.24-.17.2-.15 0 0zm1.67 6.18c-.1.06.06.3-.15.3 0-.14-.02-.3.15-.3zm-1.68-5.45c-.02-.08.1-.06 0 0 0 .1.12.3-.08.27.1-.13-.12-.18.08-.27zm1.15 5.4c0-.06-.02-.12-.04-.2.18-.1.24.27.04.2zm.2.76c.02-.25.1.26 0 0zm.06-.33c.03-.26.12.25 0 0zm-1.55-5.47c.1-.05.13.03.15.1-.05 0-.05.04-.05.08-.08 0-.07-.1-.1-.18zM44 22.32c-.03-.1.05-.15.02-.27.1-.04.17.34-.02.27zm1.03 2.73c-.13-.1-.17.1-.33 0 0-.1.1-.13.1-.23.1.04.25 0 .23.23zm.26-1.23c-.17.24-.45.57-.26.9-.1.02-.2.03-.3.05 0-.2.17-.28.1-.54.2.05.2-.47.27-.7.1.03.17.13.2.3zm0-.4c-.05 0-.1.02-.14.03 0-.05 0-.1-.02-.13.04 0 .1-.02.13-.02 0 .04 0 .08.02.13zm-1.5-5.55c.16-.04.18.1.23.23-.17.05-.23-.05-.23-.23zM5.1 33.76c-.2-.45-.4-.9-.58-1.36 0 0 0 0 0-.02-.06-.14-.1-.27-.15-.4-.12-.1-.2-.22-.3-.3.05-.06.12-.06.18-.03-.07-.22-.15-.44-.22-.67-.1.17-.24.3-.17.6-.26-.24-.2.1-.43.2-.48-.32.2-.67.56-.94-.06-.18-.1-.36-.16-.54-.3-1.06-.48-2.13-.6-3.2-.03.07-.12.2-.04.03.02-.02.04-.03.05-.04 0-.04 0-.07 0-.1-.03 0-.05-.02-.1-.06.03-.06.06-.07.08-.06-.05-.43-.07-.87-.1-1.3-.24.15-.53.27-.66.3.05.3-.3.5-.52.5.05.9.17 1.8.34 2.7.1-.17.1.16 0 .08.1.5.2.98.35 1.46.1.4.22.78.34 1.16.03 0 .03-.04.03-.08.17.02.04.1 0 .16.34 1.06.77 2.08 1.27 3.05.28-.12.58-.68.8-1.15zm-.38-.08c.18-.1.14.12.17.23-.12 0-.17-.08-.18-.23zm-1.9-7.33c.24-.02.02.3 0 0-.2.02 0-.27 0 0zm-.24-.16c.05.04-.03-.02 0 0zm.35 1.33c.13-.24.2.3 0 0zm.2 1.16c.1-.26.17.16.17.3-.27.03 0-.28-.18-.3zm-.1 1.86c.2-.2-.12.24 0 0zm.2.5c-.02.3.05-.3 0 0zm-.77-3.17c.1 0 .15.06.16.17-.13.05-.13-.07-.16-.17zm.45.7c.04-.25.12.25 0 0zm.1-.14c.06.05-.02 0 0 0zm-.06-.04c-.1-.03-.14-.12-.17-.23.12.04.27.1.17.23zm-.34-.87c.05.03-.03-.03 0 0zm-.5-1.05c.1.02.15.07.16.18-.13.05-.13-.07-.15-.18zm0 .34c.1.03.12.18.17.3.25.06-.17.22 0 0-.2.07-.26-.2-.17-.3zm.48 2.54c.18-.1.13.13.17.24-.12 0-.17-.1-.17-.24zm.2.37s-.02 0-.02 0zm-.35-.47c.03-.26.1.25 0 0zm.25.75c.02 0 .04 0 .06 0 0-.07-.02-.14-.03-.2.1 0 .16.06.17.17-.04 0-.08.02-.12.02 0 .1.04.2.1.25.04 0 .08 0 .07.05.08 0 .16 0 .15.1-.04.02-.08.03-.12.03 0-.04-.02-.08-.03-.13-.03 0-.07 0-.07-.05-.18.1-.14-.12-.17-.24zm.6 2.02c.03 0 .08-.02.12-.03 0 .05 0 .1.02.13-.04 0-.1.02-.13.02 0-.04-.02-.08-.03-.12zm.42 1.44c.07-.25.24.18 0 0zm.6 1.22c-.13-.03-.03-.12-.04-.2.12.03.03.12.04.2zm-.15-1.7c-.14 0-.15-.07-.1-.17.05-.02.1-.03.13-.03-.02.06-.05.1-.03.2zM2.5 25.6c-.03-.07.08-.05 0 0 0 .05 0 .1 0 .13.26-.08.45-.2.64-.34 0-.28 0-.55 0-.82-.02.02-.05.03-.1 0 0-.05-.02-.12-.03-.18-.06.02-.04-.1 0 0 .07-.04.12-.02.15.02.02-.9.1-1.8.25-2.67-.1-.04-.15-.1-.15-.3.1 0 .14.04.18.1.12-.67.26-1.32.44-1.97 0-.02 0-.03 0-.04.1-.37.23-.74.35-1.1-.04-.27-.17-.55-.18-1 .14.18.2.5.25.8.15-.47.33-.92.52-1.37 0-.04-.03-.1-.05-.13.03 0 .07.02.1.04.16-.37.33-.73.5-1.1 0-.02 0-.06 0-.1.02 0 .05 0 .07 0 .14-.28.3-.55.45-.82.2-.4.45-.78.7-1.16.33-.48.67-.95 1.03-1.4-.54.08-.87-.02-1.36.08 0-.02 0-.05-.02-.08-.02 0-.05 0-.08 0s-.05 0-.08 0c-.2.27-.4.55-.6.84.12.14.18.38.2.65-.17-.03-.22-.44-.23-.62-.15.24-.3.47-.45.7.1.03.12.28-.04.22 0-.03-.02-.07-.02-.1-.37.6-.7 1.24-1 1.9 0 0 .02.04 0 .08 0 0-.03.02-.06.02-.2.42-.37.84-.53 1.26.02.04.04.08.05.13-.04 0-.08 0-.1 0-.1.24-.18.48-.26.72.02.02.04.06-.03.07-.08.22-.15.46-.22.7.05.06.03.2.06.3-.08-.03-.1-.05-.12-.1-.02.1-.05.2-.08.3.08-.07.02.03-.02.08-.2.72-.35 1.46-.47 2.2-.24 1.54-.33 3.1-.23 4.7.12-.16.46-.16.46-.4.02 0 .04 0 .07 0-.02-.07.03-.1.04-.15-.05 0-.1-.1 0-.13zm3.96-12.5c.04-.26.12.24 0 0zm.04.2c.03-.27.1.23 0 0zm-.1.2c.03-.26.12.25 0 0zm-.12.1c.2-.2-.12.23 0 0zm-.32-.8c.08 0 .14.05.16.16-.13.05-.14-.07-.16-.17zm.17.68c.04-.26.12.25 0 0zm-.25.44c.03-.27.12.24 0 0zm-.6 1.88c.04.03-.04-.02 0 0zm.04-.47c0-.2.28.02 0 0zm-.1-.25c-.03-.02.05.04 0 0zm-.1.2c.28.26-.13.3 0 .02zm-.46.75c.16-.05.18.1.23.22-.18.05-.2-.1-.25-.22zm.32 0c.04-.25.12.25 0 0zm-.46-1.23c.08.02.14.06.16.17-.13.05-.14-.07-.16-.17zm.2.4c0-.02 0-.06-.02-.1.02.04.03.08.03.1.06.23 0 .22.2.52-.17 0-.2-.2-.36-.2-.05-.18.17-.16.16-.3zm0 .5c.02.05.03.12.04.18-.14.06-.1-.1-.2-.1 0-.07.1-.07.17-.1zm.02.84c.05.04-.03-.02 0 0zm-.28-.48c.07-.24.24.18 0 0zm.17.63c.2-.2-.12.23 0 0zm-.78-.4c.1.08.34.2.1.3.03.08-.07.06 0 0 0-.16-.13-.12-.1-.3zm.1.64c.03-.27.12.24 0 0zm-.7 4.46c.04.03-.04-.02 0 0zm-.2-.43c.07 0 .14.06.15.17-.13.05-.14-.07-.16-.17zm.13-.35c-.03-.02.05.03 0 0zm.37-.53c.05.03-.03-.03 0 0zm.18-.5c.05.04-.03-.02 0 0zm.1-.27c-.05 0-.1 0-.14.02-.02-.04-.02-.1-.03-.13.04 0 .1 0 .13-.02 0 .04 0 .1.02.13zm0-1.58c-.02-.2.27 0 0 0zm.13.44c.08-.28.08.37 0 0zm.05.3c.04-.26.13.25 0 0zm-.65-.87c.17-.04.2.12.24.3-.2.05-.24-.12-.25-.3zm.06.78c.04-.26.12.25 0 0zm.06.33c.04 0 .1-.02.13-.02 0 .05 0 .1 0 .14-.03 0-.08 0-.12.02 0-.05 0-.1-.02-.13zm.14.83c0 .04 0 .1.02.13-.07 0-.13 0-.2.02 0-.04 0-.1 0-.13.05-.02.1-.03.18-.04zm-.46-.78c.03-.27.12.24 0 0zm.04 1.05c.05.03-.03-.03 0 0zm.2.5c-.1.22-.28-.2 0 0zm-.22-.23c.08-.02.05.08 0 0-.25.02-.04-.3 0 0zm0 .32c-.15.04-.22-.02-.23-.16.07.06.23 0 .22.16zm-.4-.46c-.03-.2.26.02 0 0zm-.28.77c.05.04-.03-.02 0 0zm-.02 1.06c.03-.28.1.23 0 0zM3 23.86c.02-.26.1.25 0 0zm-.53-.37c-.02-.2.28.02 0 0zm.57.7c-.05 0-.07-.06-.13-.05 0-.04 0-.08-.02-.13.14-.05.14.07.17.18zm-.2-.37c.05-.26.13.24 0 0zm-.6-2.07c.05-.27.13.24 0 0zm.3 1.4c.16-.22-.15.2 0 0zm-.17-.7c-.18 0-.17-.3-.27-.42.3.04.15.2.27.42zm-.02.66c-.02-.2.27.02 0 0zm.56 1.9c-.15.03-.17-.12-.22-.24.17-.05.2.1.23.23zm-.9-.4c.14-.2-.2.32 0 0zm.45.73c-.12.23-.3-.2 0 0zM27.28 38.6c.15-.04.3-.08.45-.13-.08-.16-.15-.34-.2-.54-.14.04-.27.08-.4.1-.8.22-1.58.36-2.36.42-.1.16.13.02.12.22.12 0 .12-.1.24-.1 0 .16-.16.32-.25.1-.07 0-.14.02-.2.03-.05-.05-.1-.12-.1-.23-1.54.1-3.05-.05-4.48-.43 0 .03.03.06.04.1-.18.04-.27-.05-.3-.18-.12-.03-.23-.06-.34-.1 0 .05 0 .1-.06 0 0 0 0-.02 0-.02-.04 0-.07-.02-.1-.04-.05.18-.1.37-.14.57 1.87.62 3.9.86 5.93.63 0 0 0-.02 0-.04-.26-.07.16-.23 0 0 .1-.05.12 0 .1.03.04 0 .07-.02.1-.02-.02-.05 0-.1.1-.13-.1-.26.18-.05 0 0 0 .05.02.08.02.1.6-.07 1.2-.18 1.8-.35zm-5.7-.24c.04.03-.04-.02 0 0zm-1 .3c.04.03-.04-.03 0 0zm-.07-.4c.06.05-.02 0 0 0zm1.1.23c.1-.3.12.2 0 0zm.23.2c.1.04.14.13.17.25-.12 0-.17-.1-.17-.24zm.67.16c-.05 0-.07-.05-.13-.04 0-.04-.02-.08-.02-.13.13-.06.13.07.15.16zm.4-.06c-.02 0-.02 0-.02 0s.04.03 0 0zm-.18.16c-.1-.06-.16-.2-.2-.36.2.04.17 0 .4-.07-.07.16-.15.3-.2.43zm.56-.16c-.26.03-.03-.28 0 0 .3-.1-.02.32 0 0zm.83.26c-.16-.07-.12-.14-.1-.3.25-.07.07.2.1.3zm2.6-.55c.07-.23.23.2 0 0zm-.23.24c-.06.02-.12.03-.2.03 0-.08-.02-.17-.03-.25.17-.05.22.05.23.22zm-.33-.47c.04 0 .08 0 .12-.02 0 .04 0 .1.02.13-.04 0-.08 0-.12.02 0-.04-.02-.08-.02-.13zm-.4.07c.24 0 .17.35.16.5-.15-.03-.08-.36-.15-.5zM4.08 30.1zM16.14 4.6c-.23.1-.46.18-.7.27.02.04.03.07.03.1-.04 0-.08-.03-.1-.07-.14.06-.28.12-.4.18.27.27.52.56.8.9.2-.37.42-.88.37-1.37zm-.48.35c-.03-.02.05.03 0 0zm.02.13c.28-.02 0 .38 0 0zm-.34.32c.05.03-.03-.03 0 0zm2.3 26.5c.1-.04.23-.2.33-.4 0 .08-.03.16-.06.23.03.15.16.14.26.17l-.88-3.3c-.04.04-.1.1-.13.15.02-.12.03-.25 0-.4.03 0 .05 0 .06 0l-.37-1.43c-.07-.06-.14-.12-.2-.2.08.07.13.1.17.08l-1.1-4.1c-.02 0-.03 0-.04 0-.06-.33-.13-.7-.23-.9 0 0 0 0 .02 0l-.04-.17-1.07.3c-.16.66-.46 1.22-.9 1.67 0 0 0 .02 0 .03 0 0-.02 0-.04 0-.12.12-.24.23-.38.32 0 .02 0 .03 0 .02-.1.05-.17.1-.25.16l.28 1.07c.05 0 .1.07.02.08l.02.06.1-.03s0-.02-.02-.05c.1-.04.13-.02.14.03.4-.1.66-.13.8-.08.15.05.25.16.33.3.07.17.2.65.43 1.45l1.5 5.58.1-.02s-.02 0-.02 0c-.2.04.02-.95.28-1.1-.04.4-.27.66-.28 1.1.04-.02.08-.02.1-.02l.54-.14c.02-.05.03-.04.04 0l.87-.24c-.13-.05-.23-.14-.36-.2zm-4.6-6.82c-.04-.02.04.04 0 0zm.13.04c.04.04-.04-.02 0 0zm-.04-.98c.05.03-.03-.02 0 0zm.1.12c-.03-.2.26 0 0 0zm.42.26c.06 0 .08.05.14.04-.02.16-.3.1-.15-.04zm.05-.54c-.03-.02.05.04 0 0zm.1.18c.15-.27.24.16 0 0zm.54.97c.04-.27.12.24 0 0zm1.52 5.28c.05.05-.03 0 0 0zm1.03-1.67c.02-.27.1.24 0 0zm-.14-.44c-.04-.02-.06-.03-.07-.05.04-.05.1-.12.14-.2 0 .08.02.15.1.15.02.22-.24-.1-.2.1zm-1-2.55c.14-.04.1.18.22.17-.03.18-.27 0-.23-.17-.07.02-.05-.08 0 0zm-.06 1.66c.04 0 .08 0 .12 0 0 .03.02.08.02.12.3-.12-.02.3 0 0-.07 0-.15 0-.14-.1zm-.44-1.04c.1.26-.2.04 0 0 0-.06-.02-.13-.03-.2.04 0 .1 0 .13 0 0 .05.02.12.03.18-.05 0-.1.02-.14.02zm.45 1.5c.05.04-.03 0 0 0zm-.82-3.48c0-.04-.02-.08-.03-.12.04 0 .1-.02.13-.03 0 .05 0 .1.02.13-.04 0-.08.02-.13.02zm.13.05c.03.08.04.17.05.25-.04 0-.08.02-.12.02-.02-.08-.03-.17-.04-.25.03 0 .07-.02.1-.02zm-.52-1.23c0-.05 0-.1-.02-.13.05 0 .1-.02.13-.02 0 .04 0 .08 0 .13-.03 0-.07 0-.12.02zm.47 1.63c-.02-.2.27.02 0 0zm1.3 3.6c.27-.06.1.28.13.38-.24 0-.07-.17-.12-.36zm-.58-1.6c.22.05.33.26.46.44-.22-.06-.42-.15-.46-.45zm-.4-2.12c.02-.25.1.26 0 0zm.27.96c.05.03-.03-.02 0 0zm-.3-1.53c-.04-.03.03.03 0 0zm.88 1.9c-.1-.26.2-.05 0 0 .03.1-.04.15-.17.15.02-.08.06-.14.17-.16zm.35.92c.2-.24.15.33 0 0-.26.07-.08-.2-.1-.3.12-.04.05.2.1.3zm0-.4c.05.04-.03-.02 0 0zm-.15.7c.12-.3.13.2 0 0zm-.4-.87c.1-.26.08.4 0 0zm.12.32c.02 0 .04 0 .06 0-.1-.27.2-.06 0-.02.1.1.1.15.04.26-.1 0-.08-.14-.1-.25zm.6 1.74c.22 0 .27.52.03.52-.05-.2.07-.3-.02-.52zm-.6-4.12c.04-.26.12.24 0 0zm.24 1.48c.1 0 .07.13.03.2-.1 0-.05-.14-.02-.2-.04 0-.08 0-.12.02-.1-.25.05-.3.12-.42.2.06.04.32 0 .4zm-1.18-4.02c.05.03-.03-.03 0 0zm.6 2.14c0 .12.04.28-.13.28 0-.12-.03-.27.14-.28zm-.27-.15c.13-.25.2.3 0 0zm.14.5c0 .1-.06.18-.08.28-.17-.02-.1-.32.07-.28zm-.13.35c.08 0 .12.1.2.1.03.1-.05.14 0 .26-.12-.06-.17-.2-.2-.36zm-.73-2.45c.04-.27.13.24 0 0zm.45 1.47c-.03.03-.07.06-.13.06.02-.02.03-.05.04-.1.03.02.06.03.1.04zm-.5-1c.05 0 .1 0 .13-.02 0 .04.02.08.02.13-.04 0-.08 0-.12.02 0-.04-.02-.1-.02-.13zm.33 1.2c.08-.02.06.1 0 0-.07.02-.05-.1 0 0zm.04.25c.04-.27.12.24 0 0zm.07.38c.03 0 .07-.02.1-.02.02.04.03.08.03.13-.04 0-.08 0-.12 0 0-.04 0-.08 0-.12zm-.26-.75c-.05 0-.1.02-.13.02 0-.04 0-.08 0-.13.03 0 .07 0 .1-.02.02.04.03.1.04.13zm-.4-1.2c.04-.25.12.25 0 0zm-.1.23c.1.02.15.1.18.23-.18.1-.14-.13-.17-.24zm-.1.14c.05.04-.03-.02 0 0zm.35 1.33c.08 0 .1.1.2.1 0 .16-.25.04-.2-.1zm.17 1.5c-.04-.04.04.02 0 0zm.08.1c-.02 0 0 0 0 0zm-.68-2.58c-.02-.2.27.02 0 0zm1.95 7.2c.04-.28.12.23 0 0zm-.7-2.73c-.08.02-.06-.1 0 0 .07-.02.05.08 0 0zm-.5-1.83c.1 0 .15.05.16.16-.08 0-.14-.06-.15-.17zM15.6 28c.07-.25.23.17 0 0zm.3.67c.04-.27.12.23 0 0zm.77 2.3c-.05 0-.07-.05-.13-.04 0-.04-.02-.1-.02-.13.13-.05.13.07.15.17zm-.17-1.1c.05.05-.04 0 0 0zm-.37-1.05c.04 0 .08 0 .12-.02 0 .05.02.1.02.13.12-.03.16.04.16.17-.08 0-.14-.06-.15-.17-.08 0-.16 0-.15-.1zm1.25 3.3c-.18.1-.13-.14-.17-.25-.07 0-.14 0-.14-.1.05 0 .1-.02.13-.02 0 .04 0 .08 0 .12.13 0 .18.1.18.24zm-.5-1.1c0-.16 0-.35 0-.53.02-.03.05-.07.1-.12.05.25.1.5-.1.64zm-.16-1.25c-.02-.05-.04-.08-.06-.1.03-.05.08-.1.12-.13-.02.08-.04.16-.06.23zm-.14-.56c.04-.1 0-.26.23-.23-.03.1 0 .26-.22.24zm.35-.05s-.03.04-.04.06c-.02 0-.03 0-.05 0 0-.08.04-.1.07-.07zm.4 1.77c-.03-.2.27 0 0 0zm25.72-.46c-.04.06-.04.12 0 .17-.03.08-.06.17-.08.25-.1.02-.2.03-.3.05-.02.2.22.04.17.3 0 0 0 0 .02 0-.06.16-.1.32-.17.48-.04 0-.07 0-.1.02 0 .04 0 .08.02.13 0 0 0 0 .02 0-.1.25-.2.5-.3.75-.06-.03-.15-.03-.2-.08-.15-.24.3-.3.1-.45.03-.1.07-.2.1-.3.16 0 .12-.15.3-.13 0-.07 0-.13-.02-.2-.06 0-.12.02-.18.03.23-.66.43-1.34.6-2.03.04.04.07.1.18.06 0-.12-.08-.17-.16-.2.04-.16.07-.32.1-.48.04.04.06.1.15.07.04-.08-.05-.16-.1-.17.07-.46.15-.92.2-1.38.08.1.17.17.3.2-.14 1-.34 1.95-.6 2.9-.02 0-.04 0-.05 0zm-1.97 4.1c.07.04.06.26-.08.2 0-.06.02-.1.03-.13-.05.1-.1.2-.16.28-.05.1-.1.18-.15.27.06.1.12.2.18.3.1-.16.2-.32.28-.48-.1 0-.1-.1-.04-.2.05 0 .1.03.12.07.3-.52.57-1.06.82-1.62-.03 0-.05-.03-.1-.03 0-.06.08-.07.15-.1 0-.02.03-.05.04-.08 0 0 0-.02-.02-.04 0-.12.04-.08.05-.03.03-.06.06-.12.08-.18-.07-.06-.1-.16-.14-.25-.03-.02-.05-.04-.07-.06-.3.73-.62 1.42-1 2.1zm.27-.06c-.03-.02.05.03 0 0zm.03-.2c-.02-.2.27 0 0 0zm.3-.25c-.05 0-.1 0-.14 0 0-.03 0-.07-.02-.1.04-.02.08-.03.13-.04 0 .05 0 .1.02.13zm-.05-.27c.03-.26.1.25 0 0zm.36-.98c.07-.26.07.4 0 0zm-3.55 5.6c.06 0 .1.06.16.13 0 .03-.04.06-.06.1-.04-.08-.07-.15-.1-.24zm1.5-1.5c.3-.43.6-.86.87-1.3-.06-.1-.12-.2-.18-.3-.13.22-.26.42-.4.63.02.04 0 .17-.06.1-.03.04-.05.07-.08.1.08 0 .1.1.1.2-.04 0-.07-.06-.13-.05 0-.03 0-.05 0-.08-.1.12-.18.25-.27.37.1 0 .2.05.15.2-.14-.1-.07-.12-.26-.03 0-.02 0-.02-.02-.02-.22.3-.45.6-.7.9-.1.1-.18.2-.26.3.05.08.1.15.15.2-.06.1-.16.03-.24-.08-.08.1-.16.18-.24.27 0 .02.03.05.05.07-.03-.14.22-.07.3-.12.02.02.03.05.03.07.2-.22.37-.44.55-.65 0-.07.02-.07.03-.05.18-.22.36-.45.53-.68-.02 0-.03 0-.04 0 0-.1.05-.1.08-.07zm.52-1.02c-.02-.2.27.02 0 0zm-1.24 1.66c.05.02-.03-.04 0 0zm-19.4.06c.08 0 .14.06.18.13 2.24.62 4.67.68 7.07.04.13-.04.26-.07.38-.1-.02-.1-.04-.2-.07-.3-.12.05-.25.08-.38.12-2.05.54-4.12.57-6.06.16-.03.05-.14.2-.06.03.02-.02.03-.03.04-.03-.53-.12-1.04-.26-1.54-.44 0 .1 0 .2 0 .3.14.06.3.1.44.15 0-.03 0-.05 0-.07zm3.56.6c-.03-.2.26.02 0 0zM28.53 5.4c-.04 0-.07.02-.1.04 0 .15.13.2.15.28.35.1.7.2 1.06.3 0 0 .02 0 .03 0 .08.05.18.08.28.1 0-.02 0-.05-.02-.08.12-.04.14.05.15.14.12.03.2.07.32.1 0 0-.02-.02-.03-.04 0-.2.06 0 .04.05.2.07.4.14.6.23.02-.03.03-.02.04 0 .12.06.24.1.37.16 0-.06-.02-.12-.03-.17.06.05.1.13.15.2.23.1.45.2.67.32.04 0 .07 0 .1-.02 0 .02 0 .04 0 .06.28.13.57.28.85.44-.03-.07-.05-.17-.03-.3.1.18.13.3.12.35.1.05.2.1.3.16.57.34 1.14.7 1.68 1.1.14-.06.35-.07.32.08-.05 0-.1.02-.16.03 2.2 1.6 4.06 3.67 5.45 6.1.03.03.07.06.16.03 0 .04-.05.07-.1.08.12.2.23.43.35.65 0-.16.27.03.02 0 .4.8.76 1.6 1.06 2.46.06 0 .05.03.02.06.18.48.33.98.46 1.5.12.4.22.84.3 1.27.1 0 .04.2.2.1-.02.07-.08.1-.15.13.26 1.34.37 2.67.35 4 .05-.05.18.07 0 .07-.02.58-.06 1.17-.12 1.74.1.05.2.12.3.2.16-1.47.18-2.97 0-4.5-.1 0-.04-.1 0-.1-.08-.7-.2-1.42-.35-2.13-.02.03-.06.04-.1.02-.02-.04-.02-.1-.03-.13.06 0 .06-.03.05-.07.02 0 .03 0 .04 0-.06-.24-.1-.46-.18-.7-.34-1.28-.8-2.5-1.36-3.64 0 .05 0 .1-.06-.02 0-.04 0-.06.02-.07-.13-.26-.27-.52-.4-.78-.06 0-.15-.1-.22-.04 0-.1.08-.1.15-.07-.36-.62-.74-1.22-1.15-1.8-.02.02-.05.03-.1.02 0-.06-.02-.13-.03-.2-.15-.2-.3-.42-.47-.63-.02 0-.05 0-.1 0 0-.04.02-.07.04-.08-.03-.02-.05-.04-.06-.06-.03.04-.12-.04-.07-.1-1.86-2.28-4.18-4.12-6.8-5.4.02.05 0 .1-.05 0 0-.02 0-.03 0-.04-.18-.1-.38-.18-.57-.27-.32-.14-.65-.28-.98-.4.08.03.1.15.1.28-.2.1-.12-.18-.17-.3.02 0 .03 0 .05 0-.52-.2-1.04-.38-1.57-.54 0 .02 0 .02 0 0-.28-.07-.56-.14-.84-.2zm.5.26c-.02-.02.06.04 0 0zM43.53 23c.12-.3.13.2 0 0zm.1 2.28c-.13 0-.05-.3.1-.28-.02.1-.07.18-.1.28zm.08-.4c.1-.28.12.2 0 0zm-.22-1.7c.04-.25.12.26 0 0zm.3.16c-.12.24-.3-.18 0 0zm-.43-1.77c-.07 0-.07-.1-.1-.18.1-.05.13.02.15.1-.05 0-.05.03-.05.07zm-2.7-6.94c.03-.26.12.25 0 0zm-1.2-1.84c.02-.27.1.23 0 0zm-3.8-3.94c.04-.26.12.25 0 0zM29.9 6c.04.02-.04-.04 0 0zm14.75 21.55c-.02-.03.05.03 0 0zm-16.88 13.1c0 .22 0 .5.05.76l-.4-1.22c.02 0 .03 0 0 0l-.22-.74.22-.07c.06.4.1.95.34 1.27zm4.12-.48l1.28 1.17.85-.48c0-.04 0-.07 0-.1l-1.97-3.48-.7.4c.05.02.05.1.07.2-.05 0-.07-.06-.14-.05 0-.04-.02-.07-.02-.1l-.07.03.92 1.6-1.06-.9s-.03.02-.12 0c0-.05.03-.07.06-.06l-.36-.3h-.03c.02.07.02.12.05.16-.08 0-.12-.03-.15-.1l-.7.4.34.6c0-.02 0-.05-.02-.1.12 0 .17.1.17.24-.05 0-.08 0-.1-.03l1.6 2.84.85-.47-.83-1.46s-.02-.02-.02-.04l-.06-.1.05.04s0 0 0-.02c.03 0 .07-.02.12-.02 0 .04 0 .08.02.13-.02 0-.03 0-.05 0zm1.2.32c.03-.27.12.24 0 0zm.26-.84c.05.04-.03-.02 0 0zm-.16.62c-.15-.03-.26-.32 0-.33.06.15-.1.16 0 .33zm-.82-2.17c.12-.27.13.2 0 0zm.18.7c.17 0 .1.27.35.15 0 .05-.04.1-.02.2-.13-.08-.3-.1-.32-.34zm.33 1.6c.25-.06.05.13.1.24-.1 0-.1-.15-.1-.24zm-1.96-1.13c.03-.27.12.24 0 0zm-.03-.2c-.02-.02.06.04 0 0zm-.65-.4c.07-.26.23.16 0 0zm.84 1.5c-.16 0-.18-.15-.2-.3.2-.1.14.18.2.3zm-.5-1.83c.15.04.17.27.2.5-.13-.1-.18-.28-.2-.5zm.67 2.2c.08-.26.24.17 0 0zm-.2-1.23c.32-.05.38.9.55 1.3-.4-.28-.25-1.03-.54-1.3zm.7 1.94c.05-.27.13.24 0 0zm.24.16c0 .4 0-.23 0 0zm.1.24c.3-.02 0 .4 0 0zm-.52-2.08c.1-.28.12.2 0 0zm.3.28c.04-.27.12.24 0 0zm-.9-33.68c-.02 0-.03 0-.04 0 0 0 .02 0 .03 0zM15.8 13.3c-.6.4-1.16.84-1.7 1.33.07.02.13.05.13-.03.16 0 .05.2.04.26-.1 0-.16-.08-.17-.23-.1.1-.22.2-.33.32.06 0 .1.07.1.17.18-.02-.03.28 0 0-.08 0-.13-.04-.16-.12-.24.25-.48.52-.72.78.08 0 .16 0 .15.12.26-.03.04.28 0 0-.07 0-.1-.06-.15-.1-1.23 1.42-2.17 3.1-2.75 4.88.02.05.04.1.05.16-.04 0-.07 0-.1-.03-.08.28-.15.56-.22.83-.03.1-.06.23-.08.35.04-.02.08-.03.12-.04-.02.1-.08.2-.17.25-.07.34-.13.7-.17 1.05 0 0 .02 0 .03 0-.12.32.24.47.1.76-.08-.04-.13-.17-.2-.33-.1 1.3-.06 2.62.2 3.95.04-.03.08-.05.13-.07 0 .1-.05.17-.1.23.06.3.13.58.2.87.4 1.46 1 2.8 1.8 4.02 0-.13.23.04 0 .04 1.12 1.7 2.57 3.1 4.24 4.17.06-.2.12-.38.18-.57-.6-.4-1.17-.83-1.7-1.32 0 .04 0 .07 0 .1-.1.02-.15-.1-.12-.2-1.66-1.54-2.94-3.52-3.67-5.8 0 0-.03 0-.05 0 0-.06.02-.08.04-.1-.05-.16-.1-.32-.14-.5-.1-.34-.18-.7-.24-1.04-.02-.02-.04-.06-.06-.08 0 0 .03 0 .04 0-.03-.17-.06-.34-.08-.5-.14.15-.27.32-.36.5-.17-.54.35-.58.3-1.04-.07-.65-.08-1.3-.05-1.94 0 0 0-.02-.02-.02 0 0 0 0 .02 0 .04-.9.18-1.8.4-2.67-.08-.15-.13-.33-.2-.47.1 0 .18.1.26.2.1-.28.18-.57.28-.85-.02-.02-.03-.03-.06-.02.02-.07.05-.08.1-.07.13-.4.3-.8.48-1.2 0-.03 0-.06-.02-.1.03 0 .05 0 .07 0 .15-.33.32-.64.5-.95.37-.64.8-1.26 1.27-1.84.03-.05.07-.18-.04-.18.03-.17.13-.06.16.05.2-.25.43-.5.65-.72 0-.05 0-.1-.03-.12.04.02.06.04.08.06.26-.27.53-.52.8-.76 0-.02-.02-.05-.03-.1.05-.16.07 0 .06.08.2-.17.4-.33.6-.5 0 0-.04-.02-.07 0 0-.05 0-.1 0-.14.1-.04.12.04.13.12.36-.27.74-.53 1.13-.76-.02 0-.04-.02-.07 0 .03-.1.1-.1.13-.05 1.04-.62 2.18-1.1 3.4-1.44.53-.14 1.06-.25 1.58-.32-.08-.05-.1-.22-.03-.3.13-.03.08.18.1.3.05-.02.1-.02.15-.03.05-.2-.03-.26-.1-.48-.07.07-.13 0-.14-.07-.1.02-.22.04-.33.05.03.12 0 .27-.12.3-.05-.12 0-.18 0-.28-.37.07-.75.15-1.13.25.04.05 0 .44-.05.04 0 0 0-.02.02-.02-.03 0-.06 0-.08.02-1.54.4-2.94 1.05-4.2 1.88zm-2.16 21.35c.05.04-.03-.02 0 0zm-.66-1.28c-.03-.02.05.04 0 0zm.18.7zm-.22-.1c.05.04-.03-.02 0 0zm-.67-.94c-.14.03-.07-.23-.12-.3.1.05.2.2.12.3zm-.37-1.06c.04 0 .08 0 .13-.02 0 .04 0 .08.02.13-.05 0-.1 0-.13.02 0-.05-.02-.1-.02-.13zm-1.25-1.64c.05.03-.03-.02 0 0zm.54.9c-.03-.2.26.02 0 0zm0-.27c.06.04-.02-.02 0 0zm-.1-.3c-.12.22-.3-.2 0 0zm-.84-2.3c.17-.13.23.25.03.18-.02-.06-.03-.13-.04-.2zm-.2-.44c-.03-.02.05.04 0 0zm.07.06c0 .04.02.08.03.13-.05 0-.1.02-.13.03 0-.05 0-.1-.02-.13.05 0 .1-.02.13-.02zM9.7 26.4c-.07.02-.05-.08 0 0 .17-.04.2.1.24.23-.2.1-.13-.2-.24-.23zm.3.22c-.03-.02.05.03 0 0zm-.36-1c.07-.24.23.18 0 0zm-.05-1.1c.1.02.14.1.17.23-.12 0-.16-.1-.17-.24zm.14.43c.14-.05.14.07.17.18-.06 0-.08-.06-.14-.05 0-.04-.02-.08-.02-.13zm.34.8c.03-.26.1.25 0 0zm-.33-1.6c0-.18.28.03 0 0zm.3.16c-.02-.1-.04-.2-.06-.3.18-.14.27.38.05.3zm.03-.6c-.14.05-.07-.2-.12-.3.2-.04.12.22.13.32zm-.17-1c.05.02-.03-.04 0 0zm.3.27c0 .04-.03.08-.06 0-.08.02-.07-.1-.14-.1 0-.18.2-.04.14.1.03 0 .05 0 .07 0-.02-.2.27.02 0 0zm-.12-1.17c-.02-.2.28.02 0 0zm.68-1.5c.06-.23.23.2 0 0zm.22-.22c-.04 0-.1 0-.13.02 0-.1-.02-.17-.03-.26-.08.02-.06-.1 0 0 .04 0 .08 0 .13-.02 0 .08.03.17.04.26zm.35-1.84c.08.08.2.13.24.3-.18.03-.2-.14-.25-.3zm.6-.76c.02-.26.1.25 0 0zm.22-.56c.32.04.1.34.34.47-.15.2-.24-.35-.34-.48zm.77-.13c-.07 0-.1-.06-.15-.05 0-.04 0-.08-.02-.13.13-.05.13.07.16.17zm-.13-.32c.03-.26.12.25 0 0zm.73-1.17c-.04 0 .04.05 0 0zm-.1.3c-.02-.03.06.03 0 0zm.03.12c.1-.27.1.38 0 0zm.1-.15c.04-.27.12.24 0 0zm.37-.2c-.03 0 .05.04 0 0zm.73-.7c-.05 0-.07-.06-.14-.05 0-.04-.02-.08-.03-.13.13-.06.14.07.16.16zm.9-.94c.07 0 .06.12.14.1 0 .2-.2.04-.14-.1zm5.8-2.2c.04-.22.18.23 0 0zm-.3-.08c.06.03-.02-.02 0 0zm-.28.24c-.03-.03.05.03 0 0zm-2.86.85c-.03-.2.26.02 0 0zm-.9.15c-.04-.02.04.04 0 0zm-.52.48c.07-.24.24.18 0 0zm-.35.25c.07-.24.23.18 0 0zm-.15.3c-.03-.03.05.03 0 0zm22.9 19.64c0 .02 0 .04 0 .06-.04 0-.08-.04 0-.06zM27.8 37.62c.8-.27 1.55-.6 2.26-.98 0-.1.03-.08.05-.03 1.8-1 3.32-2.4 4.46-4.04-.03-.04-.06-.08-.1-.13 0 .02 0 .05.02.07-.04 0-.1 0-.13.02 0-.04 0-.1-.02-.13-1.55 2.24-3.82 4-6.58 4.93.02.1.04.2.06.3zm2.86-1.66c.05.03-.03-.03 0 0zm8.06-1.46c0-.02 0-.04 0-.06.1-.03.1.06.14.12-.04-.02-.1-.04-.14-.06zm-.54 2.6c-.02 0-.05 0-.07 0 0-.03 0-.07-.02-.12.05 0 .1 0 .13-.02.02.03.02.06.03.08l.5-.62s0 0-.02 0c.03-.06.05-.07.07-.06l.03-.04-1.28-1.02c.02.03.04.07.05.12.08-.02.05.1 0 0-.08 0-.1-.07-.2-.03 0-.1.06-.1.03-.2l-.3-.24s-.02 0-.03-.02l-1.46-1.16-.05.08c.05.08.1.16.17.22-.1-.26.2-.05 0 0 .07.3.66.68.4.92.47.3.72.93 1.02 1.48l.94.75.1-.13zm-.18-.24c-.03-.02.05.04 0 0zm-1.6-1.78c.05.04-.03-.02 0 0zm.3.22c.2-.2-.12.24 0 0zm.1-.15c0-.1.1-.12.1-.2.17 0 .05.23-.1.2zm.36.14c.05.02-.03-.03 0 0zm1.8-1.82c-.05 0-.08 0-.08-.05.04 0 .08 0 .07.05zm.1.25c.05.03-.03-.03 0 0zM23.86 9c.07-.25.07.4 0 0zm1.12 1.05V5.97h-.96V7.8l-.34-.93c.24 1.05.36 2.13.52 3.18h.78zm-.07-3.32c.04-.26.13.24 0 0zm-.2-.03c.05.14 0 .2-.15.22.06-.07-.02-.24.16-.22zm.1 1.3c.04.04-.04-.02 0 0zm-.2-.42c-.04-.03.04.03 0 0zm.34 1.32c.05.04-.03-.02 0 0zm-.02 1.12c-.03-.02.05.04 0 0zm-.45-1.17c0-.05 0-.1-.02-.13.04 0 .1-.02.13-.02 0 .04 0 .08.02.13-.04 0-.1 0-.13.02zm.32.34c.18-.03-.03.27 0 0-.2 0 0-.3 0 0zm-.74-2.07c.03-.26.12.25 0 0zm.3.95c.17-.04.16.3-.02.33.04-.08.05-.18 0-.32zm.1 1.03c-.2.33.12-.2 0 0zm-.23.25c.2-.02-.02.27 0 0-.2.02 0-.28 0 0zM22 11.6c.06 0 .12-.02.18-.02 0-.02 0-.04-.02-.05.04.03.1.04.16.03.03 0 .07 0 .1 0 .1-.02.18-.04.26-.05.1-.17.18-.04.14.02 1.2-.07 2.37.02 3.5.25.83.17 1.63.4 2.4.73.53.2 1.03.45 1.5.72.06-.14.16.02.1.06.03 0 .05.02.06.03.04.03.08.05.12.08.02-.22.04-.43.1-.62-.73-.4-1.5-.76-2.28-1.04 0 0-.03 0-.04 0 0 0 0 0 0-.02-.44-.15-.88-.28-1.32-.4 0 .05-.02.07-.05 0-.15-.04-.3-.07-.46-.1 0 .03 0 .07 0 .1-.12-.03-.13-.07-.12-.13-.1-.02-.22-.04-.33-.06-.02.04-.03.06-.04.07-.04 0-.06-.03-.07-.07-.1-.02-.2-.03-.28-.04 0 0 0 .02 0 .04-.1.05-.12 0-.14-.06-.1-.02-.22-.03-.34-.04 0 0 0 .02.02.04 0-.02 0-.03-.02-.04-.28-.03-.56-.06-.85-.07-.08.02-.14.02-.18 0-.07 0-.15 0-.22 0-.02 0-.04 0-.07 0-.06 0-.12 0-.2 0 0 0 0 0 0 .03.05 0 .1-.02.14-.02.08.24-.23.38-.34.32.04.17-.15.24-.23.17 0-.12.08-.17.23-.17-.08-.22.22-.15.2-.3-.04 0-.07-.02-.07-.04-.58 0-1.16.04-1.75.12.03.02.04.04.04.08.1 0 .28.37.16.48zm8.15 1.2c.04 0 .1-.02.13-.03 0 .04 0 .1.02.13-.05 0-.1 0-.13.02 0-.04 0-.08-.02-.13zm-.52 0c-.02-.18.28.03 0 0zm-.77-.72c-.02-.2.27.02 0 0zm-1.9-.48c.16-.12.22.26.02.2 0-.07-.02-.13-.03-.2zm-1.3-.25c-.03-.02.05.04 0 0zm-1.46-.15c.27.15-.16.24 0 0zm-.48.27c.05.04-.03-.02 0 0zm-.44-.32c-.06-.28.24-.06 0 0 .02.07-.1.05 0 0zM19 37.4c-.06-.1-.08.02 0 0 0 .02 0 .04.02.06-.08-.02-.15-.05-.23-.1.05-.06.1-.15.14-.24.1.04.2.08.3.12 0 .15-.08.26-.24.16zm11.83-15.8v2.6c.04-.02.07.24 0 .12v1.57c.08-.15.2.18 0 .04v.1c.13.18.23.4.22.5-.1-.04-.16-.12-.2-.22v2.55l.7-.2-.02-2.33c-.04 0-.08.02-.12.02 0-.04 0-.08 0-.13.03 0 .08 0 .12-.02 0 .04 0 .07 0 .1v-1.26c0-.03 0-.04 0-.05v-3.64c0-.04-.02-.1-.03-.15 0 0 0 0 .02.02v-.34s0 0-.02 0c.02.08-.1.06 0 0-.05-.1-.02-.13.02-.12V17.1l-.7.2v4.15c.04 0 .07 0 .1-.02-.08-.06-.1-.22-.04-.32.08 0 .1.1.1.2.08-.02.07-.1.18-.1 0-.1.14-.08.24-.1-.12.15.1.2 0 .33-.14 0-.07-.28-.24-.23.04.17-.1.2-.23.23-.02.06-.06.1-.1.16zm.18 3.9c.1.02.16.07.17.18-.08-.02-.14-.07-.16-.18zm.1-.67c.03-.27.1.24 0 0zm.1-1c.03-.27.1.24 0 0zm.12-5.68c-.04-.03.04.03 0 0zm-8.64-6.62s0 0 0-.02c.02.02.03.02.04.03 0 0-.02 0-.04 0zM17.32 36.7c0-.08-.04-.08-.08-.05-.26-.14-.52-.3-.77-.46.02-.1.05-.2.07-.3.2.12.4.24.6.36.52.3 1.06.56 1.62.8-.02.1-.04.2-.08.27-.46-.18-.92-.4-1.36-.64zm5.32-16.82c0 .04 0 .1.02.14-.04 0-.06-.04-.07-.08 0 0-.02.02-.02.02-.27.38-.4.83-.4 1.33 0 .1.02.2.03.3.02.02.02.02 0 0 .04.32.1.68.2 1.1.06.03.04.07.03.12.04.2.1.43.16.67l.96 3.62c.2.73.38 1.26.54 1.58.08.15.17.3.27.44s.23.28.36.42c.25.26.54.42.87.48.1.02.22.03.34.04 0-.02 0-.04 0-.06-.37-.27-.45-.85-.43-1.38.35.25.38.93.43 1.38.1-.13.12-.06.14.06.2 0 .44-.05.68-.1.33-.1.6-.25.84-.46.22-.2.4-.5.5-.86.1-.36.14-.73.1-1.1-.03-.38-.15-.97-.36-1.75l-.54-1.98s-.02 0-.03 0c0-.07-.02-.14-.03-.2l-.33-1.3c-.2-.78-.4-1.34-.54-1.7-.15-.33-.35-.63-.58-.87-.23-.25-.54-.43-.9-.54 0 0-.02 0-.03 0 0 .06 0 .1 0 .13-.1 0-.14-.07-.15-.17-.32-.06-.64-.05-.98.04-.46.12-.8.35-1.08.68zm1.16 7.92c.05.03-.03-.03 0 0zm.6 1.28zm-.04-.65c.05.04-.03-.02 0 0zm-.1-.58c-.02-.02.06.04 0 0zm-1.9-7.1c0-.03.03-.16.04-.2 0 .02 0 .05-.03.1 0 .06-.02.08-.02.1zm2.4 8.54c-.03-.03.05.02 0 0zm.08.1c.02 0 .02 0 .02 0s0 0-.02 0zm-.28-.93c0-.05 0-.1-.02-.13.06 0 .06-.04.06-.08.12-.04.14.28-.04.2zm-1.6-7.05c.05.03-.04-.03 0 0zm.7 1.86c-.04-.02.04.03 0 0zm1.56 6c.12-.28.13.2 0 0zm-.03-.98c.04.03-.04-.03 0 0zm-.25-.7c-.08 0-.07-.1-.1-.17.1-.04.13.03.15.1-.05 0-.05.04-.05.08zm-.7-3.5c.03-.26.1.25 0 0zm-.52-1.95c-.02-.2.27.02 0 0zm1.78 6.1c.06.03-.02-.03 0 0zM23.5 20.2c-.18 0-.5-.28-.13-.36 0 .05-.05.07-.04.14.05.1.22.02.18.23zm2.54 8.75c-.1-.03-.15-.12-.17-.23.17-.04.23.14.17.23zm.53.05c.05.03-.03-.02 0 0zm-.98-4.78c.03-.27.12.24 0 0zm1.52 3.7c.04.04-.04-.02 0 0zm.02-.2c-.04 0-.08 0-.12.02 0-.05-.02-.1-.02-.13.04 0 .08 0 .12 0 0 .03.02.08.02.12zm-.28-.55c0-.04-.02-.08-.02-.13.04 0 .08 0 .12-.02 0 .04.02.1.03.13-.05 0-.1 0-.13.02zm.36.6c.06-.22.2.23 0 0zm-.9-3.8c-.03 0-.07 0-.1 0-.02-.03-.03-.07-.03-.1.04-.02.08-.03.12-.04 0 .05 0 .1 0 .13zM25.74 22c.2-.2-.1.24 0 0zm2.12 6.96c.1-.26.1.4 0 0zm.02-.27c-.05 0-.07-.04-.13-.03 0-.04-.02-.08-.03-.13.15-.05.15.07.17.17zm-.3-3.36c-.02-.03.06.04 0 0zm.06.25c-.02-.2.27 0 0 0zm-.15-.5c-.03-.03.05.03 0 0zm.3 1.13c.3-.13-.05.28.2.3-.1.25-.18-.17-.2-.3zm.1.84c-.15-.1-.23-.27-.3-.48.27-.1.32.4.3.47zm-1.05-3.12c.2-.2-.1.24 0 0zm-.92-2.88c.07-.23.2.22 0 0zm-.33-1.26c.05.04-.03-.02 0 0zm2.1 8.1c.06-.24.2.2 0 0zm-.44-1.12c.06.03.13.06.13-.02.05-.02.06 0 .07.05 0 .05.02.1.02.14-.06 0-.12.02-.2.03 0-.06 0-.13-.02-.2zm.47 1.7c-.1-.03-.14-.12-.17-.24.2-.1.14.13.17.24zm-2.73-9.17c.25-.05.05.14.1.26-.1 0-.08-.15-.1-.25zm.72 2.86c.04 0 .08-.02.12-.02 0 .08.03.17.04.25-.04 0-.08 0-.12 0-.02-.07-.03-.16-.05-.24zm.14.5c.18.15.13.6.2.9-.25-.02-.23-.73-.2-.9zm-.4-.92c.18-.2-.13.24 0 0zm-.6-.37c.02.08-.08.06 0 0-.07-.52.06-1.17-.27-1.67.3.15.14 0 .22-.23.2.73.16 1.78.22 2.6-.22-.1-.03-.66-.18-.7zm-.72-1.66c.25-.05.05.14.1.26-.1 0-.07-.15-.1-.25zm-.16-.16c.03-.26.1.24 0 0zm.55 1.38c.08.13.2.47.34 1.03l1.38 5.15c.14.5.2.85.2 1 0 .16-.07.26-.2.3-.1.02-.17 0-.23-.04 0 .02 0 .05 0 .07-.18.06-.17-.16-.18-.33-.03-.07-.06-.17-.1-.28 0 .02 0 .04 0 .06-.25-.52-.4-1.3-.53-2.02l-1-3.74c-.16-.53-.23-.88-.22-1.04 0-.16.07-.26.2-.3.14-.03.25 0 .33.14zM15.8 7.66l-1.07.47 1.64 3.73 1.07-.46-.7-1.57.33-.14.68 1.55.1-.04s0 0 0-.02c.02 0 .04 0 .05 0l.92-.4-1.64-3.73-.46.2c0 .02 0 .02-.02 0l-.15.08c.08.07.12.37-.06.32.03-.08.05-.18 0-.3l-.38.17.58 1.34-.32.14-.58-1.34zm1.7.15c-.03 0 .05.04 0 0zm.35 1.34c-.03-.03.05.03 0 0zm-4.48-.2l-2.05 1.5.48.66.38-.28s0-.02 0-.03c0-.15.04-.08.05 0l.13-.1 1.93 2.6c0-.07.05-.1.16-.12 0 0-.02.02-.03.03l.28-.2c.04-.04.1-.08.13-.08l.4-.3-1.54-2.1c0 .07 0 .16-.06.03 0-.04 0-.06 0-.07L13.3 10l.56-.4-.5-.67zM11.7 10.8c.05-.27.13.24 0 0zm3.3 1.7c.03-.27.1.24 0 0zm-.08-.05c-.02.26-.37.3-.65.37-.02-.1-.03-.17-.05-.26.27.03.46 0 .7-.12zm-1.12-1.27c.13-.25.2.3 0 0zm.37 1.06c-.12.23-.33-.13 0 0zm-1.63-1.97c-.03-.03.05.03 0 0zm.2.82c-.23-.2.1-.44 0 0zm.04-1c-.1 0-.08-.16-.1-.25.18.03.08.1.1.25zm.16.23c.08 0 .07.12.15.1 0 .2-.2.04-.16-.1zm.23.56c.05-.24.2.2 0 0zm.1.23c-.02-.2.28.02 0 0zm21.17 21.1c0 .08.02.14.03.2-.03-.04-.06-.08-.1-.1.03-.04.04-.06.06-.1zM22.4 5.98l-.02 4.08h.97V9.7c-.12.03-.12-.1-.14-.2.08.03.13.06.15.14v-.17c-.02-.02-.05-.04-.1-.03 0-.04 0-.1 0-.13.05 0 .1 0 .1.03V8.2l.5 1.47c-.08-.38-.12-.74.07-1-.3-.82-.52-1.73-.74-2.7h-.8zm0 2.56c.04.03-.04-.03 0 0zm.05.32c.28-.02 0 .38 0 0zm0-1.65c-.04-.02.04.04 0 0zm.64 2.4c.04.03-.04-.02 0 0zm-.07-.4c-.1 0-.08-.14-.1-.23.1.04.17.14.1.24zm-.2-.8c-.02-.2.27 0 0 0zm.37.65c.03-.26.1.24 0 0zm-.38-2.3c.03-.27.12.24 0 0zm.26 1.2c.05.04-.03-.02 0 0zm.1.18c-.02-.2.27.02 0 0zM23 7.12c.15-.17.08.6 0 0zm.48.86c.04.03-.03-.03 0 0zm.1.3c-.15.02-.04-.2-.03-.25.2.02-.04.15.04.27zm18.24 11.5s0 0-.02 0h.02zm-11.32-5.8c.3.2.6.4.9.6.18.04.28.2.5.18.02.1.04.18.05.26.1-.02.02-.17.17-.16.07.15-.07.15-.08.24.04.04.1.08.14.12-.02-.1.07-.12.1-.2-.08.03-.06-.07 0 0 .07.06.16.1.24.12-.6-.55-1.26-1.03-1.95-1.46-.02.1-.05.2-.07.3zm.44.08c.05.04-.03-.02 0 0zm-4.1-5.18c-.05-.04-.1-.05-.2-.04l.1-.4c.06.12.12.2.2.3-.06.02-.1.06-.1.14zm15.56 22.8c0-.02.02-.05.03-.1 0 .05 0 .1-.03.1zm-5.93-10.1c-.62-2.32-1.82-4.34-3.4-5.93-.3-.12-.56-.25-.84-.38 1.24 1.1 2.28 2.42 3.04 3.95.1-.03.1.04.13.1-.04 0-.05.03-.06.06.35.7.64 1.48.85 2.28.02.1.04.2.07.3.14.14.26.28.4.42-.06-.26-.13-.53-.2-.8zm-3.07-5.28c-.12-.03-.03-.12-.03-.2.12.03.03.12.03.2zm1.26 1.7c.03-.26.1.25 0 0zm1.6 3.76c-.04-.02.04.04 0 0zm-.05-.26c.04-.26.13.25 0 0zm-10.28 22.3c.04-.08.06-.05.07 0l.27-.03c-.04-.04-.07-.08-.1-.15.1.03.25.05.34.13l.26-.02-.38-4.05-.3.02c.03.06.05.23-.03.07 0-.03 0-.05 0-.06l-.84.08.04.3c.05.25.07.52.07.73l.05.4-.35.04-.13-1.45-1.17.1.2 2.18c.1.05.17.1.26.14-.06 0-.15 0-.24 0l.16 1.74.88-.1c.04 0 .08 0 .12-.02 0 0 0 .02 0 .02h.17l-.06-.65c-.15-.03-.08-.12-.04-.23l-.05-.58c0-.02 0 0 0 0v-.26l.33-.03.16 1.7.32-.02zm.2-3.93c.18-.12.24.26.04.2 0-.07-.02-.13-.03-.2zm.06.33c.04-.27.12.24 0 0zm-.12 1.66c0-.2.28.02 0 0zm-.03-1.38c.04-.26.12.24 0 0zm-.28-.54c.06 0 .06-.04.05-.08.12-.05.14.28-.03.2 0-.04 0-.08-.02-.12zm.26 1.6c.1 0 .16 0 .16.1-.04 0-.08.02-.13.03 0-.05 0-.1-.02-.13-.07.02-.04-.1 0 0zm-.48-1.43c.08-.28.08.37 0 0zm.12.36c.26.2-.12.36 0 0zm-1.53-.54c.14-.05.15.07.17.17-.05 0-.07-.06-.13-.05 0-.04-.02-.1-.03-.13zm0 1.52c.2-.06.17.18.24.3-.2.05-.22-.12-.24-.3zm.5 1.5c-.12.15-.14 0-.08-.12.05 0 .1.04.1.12.06-.02.04.08 0 0zm-.15-.18c.05.04-.03-.02 0 0zm.06-.4c-.1 0-.26.02-.27-.15.12 0 .27 0 .28.16zm-.36-1.06c-.02-.2.28.02 0 0zm-.2-1.22c.27.2-.12.35 0 0zm.7 2.2c.12 0 .14.15.27.14-.02.18-.27 0-.27-.15zm0-.4c.02-.27.1.24 0 0zm-.03-.13c0-.2.28.02 0 0zm-.15-1.36c-.04 0-.08 0-.12 0 0-.03-.02-.07-.02-.12.05 0 .1 0 .13-.02 0 .05.02.1.02.13zm.63 1.4c-.05 0-.1.02-.13.03 0-.1-.03-.18-.04-.26.05 0 .1-.02.13-.02.02.08.03.17.05.26zm.83 1.12c-.2.07-.2-.16-.24-.35.08-.02.17-.03.25-.05-.05.1-.02.24 0 .4zm-.6-1.02c-.13-.37.07-.5.13-.75.37.28.37.9.4 1.2-.22-.1-.22-.5-.54-.45zm11.37-19.48c-.14.2-.1.4 0 .7-.08-.2-.17-.4-.27-.58.3 1.6.3 3.22.03 4.76.06 0 .14.08 0 .08-.05.2-.1.4-.14.6 0 .02 0 .05 0 .07 0 0-.02 0-.03 0-.2.82-.47 1.6-.82 2.37.07.08.14.15.2.24 1.2-2.5 1.6-5.37 1.02-8.24zm.15 1.2c.05.04-.03-.02 0 0zm-.16 1.02c-.02-.2.28.02 0 0zm.02.13c.12-.28.13.2 0 0zm.14 1.22c.12.02.02.1.03.2-.12-.04-.03-.13-.03-.2zm-.58 2.46c-.02-.2.27.02 0 0 .02.08-.1.05 0 0zm-.45 1.65c.07-.25.07.4 0 0zm4.6-4.95l.05.85.26-.23c-.03-.32-.18-.5-.2-.84.15.18.3.4.44.64l.16-.14.83.2-.2-.47c-.05-.02-.1-.02-.15 0 0-.12-.02-.22.02-.3h-.02l.46-.74-.7.06c0 .03 0 .04-.03 0l-.1.02-.57-.66-.2.85-.28.1c.13.07.22.2.14.33-.14-.02-.24-.1-.26-.28l-.4.16.75.45zm1.45-.77c.05.04-.03-.02 0 0zm-.5 1c-.1-.25.2-.04 0 0 .03.08-.08.06 0 0zm-.3-.6c.02.04.03.08.03.12-.04 0-.08.02-.12.03 0-.05-.02-.1-.02-.13.04 0 .08-.02.12-.03zm-.27-.16c.04 0 .08 0 .12-.02 0 .05.02.1.03.13-.05 0-.1 0-.13.02 0-.04-.02-.08-.02-.13zM31.94 15zm2.53 17.18c.15-.22.3-.45.42-.68.18-.32.35-.64.5-.98.06.1.12.2.2.3-.27.52-.56 1.02-.88 1.5-.08-.07-.16-.13-.25-.14zm6.7-12.37s0 .02 0 .02c-.03 0-.06 0-.08 0l-.32.03-.68-.8-.1.47c0 .03 0 .07.02.1 0 0-.03 0-.04 0l-.1.45-.17.07c.05.05.04.17.06.24-.02 0-.04 0-.07 0 .05.2.28.13.26.43-.1-.04-.54-.33-.27-.4-.04-.08-.1-.1-.1-.2l-.68.27.9.53.07 1.04.34-.3c0-.03 0-.04 0-.06.05 0 .05-.03.05-.07 0 0 .04 0 .05.03l.14-.12c-.08 0-.13 0-.17-.03.02.2-.28-.02 0 0-.1-.27.13.03.1-.15.07 0 .1.07.1.15l.14-.13 1.02.25-.43-.97.53-.85c-.02 0-.05.02-.1.02 0-.02 0-.03 0-.04l-.53.05zm-.68 1.05c.04.04-.04-.02 0 0zm.13.44c-.25-.03-.07-.2-.13-.38.25-.08 0 .2.13.37zm.03-.2c.05.02-.03-.04 0 0zm-.12-.72c.04-.26.12.24 0 0zm.5.25c.03-.27.12.24 0 0zm.25.75c.04.03-.04-.02 0 0zM22.96 4.78c.05.1.1.22.14.32.24 0 .47 0 .7 0 .02-.07.1-.04.12 0 1.36 0 2.7.17 4 .46 0-.04 0-.07 0-.1.05 0 .05.07.07.1.1 0 .1-.1.24-.1-.05-.03-.08-.1-.1-.17-1.67-.4-3.4-.57-5.17-.5zm.6.07c.07-.27.07.38 0 0zm4.2.56c-.15.22.15-.2 0 0zM40.4 33.9s0 0 .02 0c0 0 .02-.03.03-.05.03-.05.05-.1.07-.13-.12-.04-.3 0-.3-.18.05 0 .1-.02.18-.03 0-.05-.03-.12-.04-.18.2-.06.06.23.16.38.1-.23.16-.46.15-.68-.02-.26-.1-.46-.2-.6-.1-.1-.2-.18-.37-.28-.02.1-.1.2-.15.26-.22-.1.03-.18.08-.3-.1-.07-.2-.13-.32-.2l-.13-.06-.55 1.03.46.24c.03.03.06.04.08.06-.02-.04-.03-.1-.03-.17.04-.02.08-.02.13-.03-.16-.1.03-.26.06-.4.17.05.04.36-.06.4 0 .1.02.17.04.26.06.04.1.08.14.1.04.07.04.13 0 .2-.05.1-.1.12-.16.12s-.15-.04-.27-.1c.02.05 0 .1-.1 0 0-.02 0-.04.02-.05l-.4-.2c.05.05.08.1.1.17-.02 0-.05 0-.07 0 0 .05.02.1.02.14.1 0 .08-.1.2-.1.05.28-.06.28.06.46-.2-.14-.13.2-.36.2.02-.2.16-.3.1-.55-.1.05 0 .27-.22.24 0-.32-.25-.55-.2-.74l-.2-.1c-.1.4-.3.72-.55 1.02l.65.34s.02 0 .03.02c0-.03-.02-.06-.06-.15.22-.1.1.28.3.2.02-.16.25 0 .22.16.13.04.25.07.35.1.07 0 .15 0 .22-.02 0 0 0-.03 0-.04.04 0 .06 0 .08.03.1-.03.2-.08.3-.16.05-.02.1-.05.13-.1-.1-.18-.22-.36-.3-.52.14 0 .1.23.24.23 0-.07 0-.15.1-.14 0 .04.02.08.03.13-.05 0-.1 0-.13 0 .05.08.1.16.14.24.1-.1.2-.23.3-.38 0-.02 0-.04 0-.06zm.17-.95c.12.03.03.12.03.2-.12-.03-.03-.12-.03-.2zm-2.5 1.07c-.04-.02.04.04 0 0zm1.06.16c.03-.27.12.24 0 0zm.28-.3c.03.06-.08.04 0 0-.1-.3.32 0 0 0zm.2.02c.06.04-.02-.02 0 0zm.16-1.47c.03-.27.12.24 0 0zm.5 1.5c-.03 0-.08 0-.12.02 0-.04 0-.1-.02-.13.04 0 .1-.02.13-.02 0 .04 0 .08.02.13zm-.5-16.35l-.24-.06c.03-.14.07-.27.05-.4l.2.46zm-20.02 21.8c-.02.06-.06.13-.13.15-.03-.1-.03-.16 0-.22l-.38-.12c0 .03 0 .06.02.1-.06-.05-.1-.1-.14-.14l-.3-.1-.24.7c0 .03 0 .06-.02.1 0 0 0-.02 0-.03l-.42 1.17c.02.05.04.1.05.18.1.05.07.46-.12.48.07-.14.08-.32.12-.48-.05.02-.08 0-.12 0l-.25.72c-.07.2-.12.3-.16.35-.04.05-.1.05-.16.03-.06-.02-.1-.06-.1-.1 0-.07.03-.18.1-.34l.65-1.85c-.1-.03-.2.12-.24-.13.12-.04.2-.03.25.06l.3-.86c0-.03.02-.07.02-.1l-1.08-.38-.25.7c0 .05 0 .1-.05.13l-.24.66c.1.1.06.42-.12.37 0 0 0-.02 0-.02l-.16.43c-.15.44-.24.73-.27.87-.03.14 0 .3.04.44s.16.32.33.47c.16.14.37.26.62.35.22.08.43.12.62.1.03 0 .07 0 .1 0-.02 0 0 0 0 0 .15 0 .3-.05.4-.12.15-.1.26-.2.32-.3.05-.1.12-.24.2-.45 0 0 0 0-.02 0 0-.04 0-.08-.02-.13-.2.02.02-.27 0 0 .03 0 .06 0 .08 0 0 0 0 0 0-.02l.93-2.57-.16-.06zm-2.1.2c.23-.1.17.27.13.32-.14.03-.07-.22-.12-.3zm-.27-.14c.05 0 .05-.03.05-.07.12-.05.14.27-.03.2-.02-.04-.02-.1-.03-.13zm.28 1.34c.05.03-.03-.03 0 0zm-.53-.44c.23-.1.16.2.3.2 0 .1-.15.1-.25.12 0-.1-.03-.22-.05-.32zm-.35.65c.13-.07.14.06.16.16-.05 0-.08-.05-.14-.04-.02-.05-.02-.1-.03-.13zm-.1 1.05c0-.17.14-.24.3-.3-.07.12-.1.27-.3.3zm.57.24c-.14-.05-.35-.22-.25-.36.16 0 .3.25.24.35zm.34.07c.12-.28.13.2 0 0zm.37.2c-.03 0-.05 0-.07 0 .02.1-.08.07 0 0-.04-.07-.1-.08-.03-.18.06-.02.08.03.14.04 0 .06-.05.08-.05.13zm.2.03c.18-.2-.12.25 0 0zm.5-.14c.18-.2-.12.24 0 0zm-.43-1.38c-.04-.13.02-.18.03-.27.1-.02.17.35-.03.28zm.5 1.04c-.03-.03.05.03 0 0zm.08-.74c-.05 0-.1 0-.13.02 0-.04-.02-.08-.02-.13.04 0 .08 0 .12-.02 0 .05.02.1.03.13zm-.32-1.13c.08-.27.08.38 0 0zm.4.4c-.04-.03.04.03 0 0zm.17.3c.05.03-.03-.03 0 0zm-.06-.8c-.05.02-.1.03-.14.04 0-.08-.02-.14-.03-.2.1-.04.12.03.2.03 0 .05-.05.07-.04.13zm.3.75c-.03-.02.05.04 0 0zm-.37-1.52c-.03-.02.05.04 0 0zm.4.8c.02-.27.1.24 0 0zm.16.23c-.13-.02-.04-.1-.05-.18.13.03.04.1.04.2zm-.3-.93c-.02-.2.28.02 0 0zm.1-.15c-.02-.02.06.03 0 0zm9.4-32.55c-.14 0-.2-.08-.26-.2l-.43-.1c.06.07.1.16.1.27-.15 0-.22-.14-.28-.3l-.7-.16c-.08.07-.25.06-.22.2-.1 0-.08-.16-.1-.25.03 0 .05 0 .07 0l-.17-.04s0 0-.02-.02l-.13-.03-.08.33s.02 0 .03 0c0 .04.02.08.02.12-.02 0-.05 0-.08 0l-.07.35.22.05c-.02-.03-.02-.05-.02-.08-.2.02 0-.27 0 0 .07 0 .15 0 .14.1l.32.08-.05.2c.1.04.1.26-.05.22l-.16.68c.12.27.17.65.45.46 0 .2-.28.17-.12.48-.22.07-.06-.4-.3-.28.05.15-.3 0-.16.22.08 0 .14.06.16.17-.1 0-.15-.06-.16-.17-.03.02-.06.03-.08.02l-.27 1.18.96.22c.03-.13.05-.06.05 0l.1.04.26-1.1c0-.05.02-.08.03-.08l.17-.8c-.05-.03-.08-.1-.1-.2.1-.04.12 0 .14.07l.24-1.08.68.16.17-.8-.4-.08c.03.05.05.1.08.15zm-2-.33c-.13-.03-.03-.1-.04-.2.12.04.03.13.04.2zm.16 3.8c-.04-.03.05.03 0 0zm.33-2.37c-.2.02 0-.27 0 0 .1.04.15.14.17.3-.2.1-.13-.18-.18-.3zm.16.64c.13-.24.2.3 0 0zm.17.24c.2-.2-.12.24 0 0zm.2.5c-.16 0-.15-.2-.18-.37.16-.02.16.2.2.36zm-.8-2.64c.06-.2.26.08.28.22-.2.08-.13-.22-.28-.22zm.54.97c-.03-.03.05.03 0 0zm-.17-.63c.14-.04.06.22.1.3-.1-.03-.2-.2-.1-.3zm.24.68c.24 0 .17.4.3.55-.24 0-.24-.32-.3-.55zm-.1-.64c0-.06-.02-.13-.03-.2.17-.12.24.26.04.2zm.47.9c.05-.25.13.25 0 0zm-.13-.43c-.14.02-.07-.27-.12-.37.22-.1.17.32.12.37zm.4-.46c-.02-.07-.03-.14-.04-.2.17-.12.23.26.03.2zm.16.23c.08 0 .14.06.16.17-.1 0-.16-.06-.17-.17zm.42-.2c.03-.27.12.24 0 0zm10.97 9.04l-.7.08-.55-.66-.2.83-.78.33.73.43v.18c.08-.1.18.17.02.08l.04.6.64-.6.5.13c.02-.16.06-.32.1-.48l-.1-.23.44-.74h-.1c0 .04-.04.03-.06.02zm-1.08 1.46c.05.04-.03-.02 0 0zm.15-.3c.05-.2.2.24 0 0zm.22-.55c-.04 0-.08 0-.13.02 0-.04-.02-.1-.03-.13.05 0 .1 0 .13-.02 0 .04.02.1.02.13zm-5.7 11.1c.03.02.06.03.08.04.25.1.56.12.94.02 0-.02 0-.03 0-.05-.1 0-.07-.1 0 0 0 0 .03 0 .05.02.3-.1.54-.24.7-.46.14-.23.22-.47.22-.73 0-.25-.06-.6-.2-1.07l-.02-.13c-.2.06-.24-.2-.16-.3.03-.02.05-.02.07-.02l-.35-1.33c-.13-.5-.26-.85-.4-1.07-.04-.07-.1-.14-.16-.2-.02 0-.02 0-.02-.02-.1-.1-.25-.2-.42-.28-.26-.12-.57-.13-.9-.04-.1.03-.18.06-.26.1.07.03-.06.2-.06.02-.17.08-.3.2-.4.33-.18.22-.27.46-.28.73 0 .26.06.65.2 1.16l.03.13.08.33s0-.02.02-.03c.13-.03.06.22.1.3 0 0-.03 0-.05 0l.3 1.14c.12.43.24.75.38.96.1.18.26.32.46.43 0 0 .02 0 .03.02zm1.8-1.1c.1-.27.1.38 0 0zm-.98-3.27c.04 0 .08 0 .12 0 0 .04.02.08.03.12-.06 0-.1 0-.14.02 0-.04-.02-.08-.02-.13zm-1.47 1.83c-.02-.2.27.02 0 0zm.45.4c-.22.07-.13-.3-.3-.3.08-.17.33.06.3.3zm.28.87c-.03-.03.05.03 0 0zm-.37-1.46c-.1 0-.16-.08-.17-.23.1 0 .16.1.17.24zm1.14 2.2c-.04 0-.1 0-.13 0 0-.04 0-.08-.02-.12.04 0 .1-.02.13-.02 0 .04 0 .08.02.13zm-.15-2.16s.03.02 0 0zm.9 2.35c-.1-.03-.14-.1-.16-.23.18-.1.13.12.16.23zm-.34-1.72c-.02-.18.27.03 0 0zm-.24-1.07c-.06.07 0 .24-.16.23-.04-.14 0-.22.16-.23zm-.4-.33c.05-.27.13.24.02 0zm-.5-2.02c.04.03-.04-.03 0 0zm.03.65c.07-.25.23.17 0 0 .1.26-.2.04 0 0zm1.23 4.74c-.08-.02-.15-.07-.16-.18.08 0 .15.05.16.17zm-1.93-5.42c.03-.26.1.25 0 0zm.22 1.48c-.08-.27-.12-.44-.1-.52 0-.06.04-.1.12-.13.08-.02.15 0 .18.06.04.06.1.23.17.5l.6 2.2c.12.02.03.4.17.4.2 0-.02.3 0 0-.03 0-.05 0-.07 0v.06c.08.25.12.4.1.48 0 .08-.03.12-.12.14-.08.03-.14 0-.18-.04-.04-.06-.1-.23-.18-.53l-.2-.73c-.02.02-.03.02 0-.03l-.5-1.87zm-1.17-.4c.04-.27.12.24 0 0zm.35.53c0-.15-.14-.12-.1-.3.32.45.68.87 1.15 1.12-.45.04-.75-.36-1.05-.82.12.3-.3-.02 0 0zm-21.83.8c-.02.55 0 1.1.06 1.67.1-.03.2-.1.28-.2-.03-.43-.05-.84-.05-1.25 0-.04 0-.08 0-.1 0-.38.04-.75.07-1.1-.03 0-.06 0-.1 0 .04-.02.08-.06.1-.1.1-.85.28-1.68.54-2.5.2-.62.44-1.23.73-1.82 0-.03 0-.07 0-.14-.2 0 0-.28 0 0 .02 0 .04.02.06.03.1-.22.22-.44.35-.65 0 0 0 0 0-.02 0 0 0-.02 0-.02s0 0 .02 0c.22-.37.45-.73.7-1.08-.05-.03-.08-.1-.1-.2.2-.04.1.04.14.15.3-.42.65-.83 1-1.22 0-.02 0-.06 0-.1.05-.03.1-.03.1 0 .27-.26.53-.52.8-.76-.03-.12-.08-.22-.15-.22 0-.04.05-.07.07-.1-.3.25-.58.52-.85.8 0 .02.02.04.04.08-.06.02-.1.02-.12 0-.1.1-.2.22-.3.33.04.06.05.15.06.25-.1 0-.14-.05-.16-.14-1.37 1.57-2.37 3.45-2.9 5.48.03.06.04.12.03.16-.02 0-.04 0-.05-.02-.04.17-.08.33-.1.5.06.02.12.07.13.18-.1.03-.14 0-.17-.06-.08.43-.14.87-.18 1.3.02-.04.07-.07.15-.08-.02.07-.06.13-.16.15-.03.2-.04.4-.05.62.03.05.06.1.1.17-.05 0-.08.02-.1.02zm.1.77c.02-.27.1.24 0 0zm.08.18c.04-.26.12.25 0 0zm3.96-10.2c-.04 0 .04.05 0 0zm-1.1 1.25c.04.03-.04-.02 0 0zm-.76 1.04c-.02-.2.28 0 0 0zm-.95 1.8c-.04-.03.04.03 0 0zm-.5 1.33c.15 0 .08.3-.05.14 0-.06.05-.08.04-.14zm-.15-.05c-.03-.02.05.04 0 0zm-.26 2.02c-.04-.02.04.04 0 0zm-.2.36c.02-.26.1.24 0 0zM7.56 30.5c.1-.08.2-.17.28-.27l.17.38-.45-.1zm9.2-16.88c-.62.38-1.2.8-1.74 1.25.06.04.08.16.1.3.13-.1.25-.2.38-.32 0-.02-.03-.04-.06-.05.02-.14.1-.08.14 0 1.35-1.07 2.93-1.88 4.7-2.36.12-.03.25-.06.4-.1 0-.08.06-.07.1-.02.15-.03.3-.07.45-.1.03-.13.06-.07.06 0 .2-.05.43-.08.65-.1 0-.04-.02-.06-.03-.1.05.02.1.04.13.08.07 0 .14-.02.2-.03.02-.1 0-.2 0-.3-.7.1-1.37.2-2.05.4-1 .26-1.92.63-2.8 1.08 0 .07-.02.1-.03.18-.07 0-.1-.03-.13-.08-.13.07-.26.14-.4.22.03.05.05.1.06.13-.08.02-.1-.02-.14-.08zm2.7-1c-.04-.02.05.04 0 0zM5.43 25.23l-.25.1.34.2c.06-.12.18-.2.27-.13 0 .1-.08.14-.2.16l.33.2.06.84.4-.36c-.03-.07-.04-.15-.05-.2-.2.03-.23-.32-.2-.38-.07.02-.04-.08 0 0 .13.05.13.26.2.37.08 0 .15 0 .15.1.05-.02.06-.06.04-.13.05 0 .08 0 .1.03l.83.2-.16-.37c0 .03 0 .06.02.07-.12-.03-.27-.1-.17-.23.03-.02.05-.02.07-.02l-.07-.18s-.02 0-.03 0c.02.2-.28 0 0 0 0-.06-.02-.12-.03-.2.03 0 .05.04.07.07l.4-.65-.85.08-.56-.66-.1.46c.08.1.14.23-.03.23 0 .08.04.18-.04.2 0 .08-.1.06 0 0 0-.02 0-.05-.02-.07v.02l-.43.18c0 .02 0 .05.02.07-.08.04-.12.03-.14-.02zm1.85-.33c-.12.22-.3-.2 0 0zm-.26 1.2c.05.05-.03 0 0 0zm-.18-.28c.03-.27.12.24 0 0zm-.03-.2c-.18 0-.2-.2-.3-.34.16.03.3.1.3.34zm-.57-.76zm.12-.02c.15.02.35.14.25.3-.14-.24-.32-.13-.45.06-.27-.14.24-.2.2-.36zm-.4.33c.16.02.1.32-.1.28.03-.1.08-.18.1-.28zm9.28 15.3c0-.06.03-.1.06-.16 0 .02 0 .02 0 .03l-.07.14zm-8.6-28.62c.2 0 .42-.02.58.2.14-.1.4-.1.58-.04.24-.28.48-.56.73-.83 0-.1-.02-.2-.05-.3.1.05.14.1.17.18.33-.36.67-.7 1.02-1.03-.02 0-.04 0-.08 0 0-.12.1-.07.12-.03 1.75-1.64 3.8-2.98 6.1-3.93-.36-.26-.7-.57-1-.92-.04.02-.08.04-.12.06 0 .04-.15.23-.06.05.02 0 .03-.02.04-.03-.32.14-.62.3-.92.44.06 0 .15.1.13.18.07-.02.05.08 0 0-.1 0-.13-.1-.22-.1 0 0 0-.03 0-.04-2.34 1.2-4.4 2.82-6.1 4.72.2 0 .02.55.22.56-.14.2-.2-.32-.27-.5-.15.16-.3.33-.45.5.08.18.1.34-.06.4.03-.1 0-.2-.04-.3-.18.23-.35.46-.53.7.1 0 .17.04.23.07zm8.77-5.67c.05.03-.03-.03 0 0zm-.83-.72c-.02-.2.27 0 0 0zM14 6c-.03 0 .05.04 0 0zm-5.57 4.74c.05.03-.03-.03 0 0zm.9-.6c-.08 0-.08-.13-.16-.1.03-.2.3 0 .15.1zM9 9.83c.08-.23.24.2 0 .02zm-.18.05c.2 0 .08.07.1.23.2-.02 0 .28 0 0-.1 0-.08-.14-.1-.24zm-.23-.24c.12-.05.12.07.14.17-.05 0-.07-.05-.13-.04 0-.05 0-.1 0-.14zm-.44.2c.14-.04.1.18.22.16-.03.2-.26.02-.22-.16zm-.43 1.4c.03-.28.12.23 0 0zm.02.12c.12 0 .17.08.17.23-.1.02-.16-.08-.17-.22zm-1.02.1zm30.72 20.6c.06 0 .18.05.36.15l.63.33.55-1.03-.34-.18c-.13-.07-.24-.13-.35-.17.07.05.07.2.13.28.06 0 .12-.02.2-.03 0 .04 0 .08 0 .13-.05 0-.12.02-.18.03 0-.05-.02-.1-.02-.14-.12-.04-.24-.08-.25-.3.03 0 .06 0 .08 0-.17-.06-.3-.1-.42-.1-.2-.04-.4.02-.6.16-.1.07-.18.14-.26.23.02.05.02.12.03.18-.05 0-.1-.03-.1-.07-.1.1-.15.2-.22.33-.12.2-.2.43-.2.64s0 .4.06.56c.07.15.17.28.28.37.06.04.12.08.2.12.02 0 .04 0 .05.02.04.03.08.05.12.08.07.04.13.07.2.1l.07.05c.03-.07.06-.13.07-.2-.07.02-.05-.1 0 0 .05-.03.13-.03.12-.1.08 0 .08.12.15.12.2-.23.3-.5.55-.68l-.7-.38c-.2-.1-.3-.17-.35-.23-.03-.05-.03-.1 0-.17-.02 0-.04 0-.05 0-.03-.14.08-.2 0-.38-.06 0-.07.06-.12.08.04.1-.04.18-.06.02-.04 0-.1 0-.13.02-.02-.17.06-.27.2-.3.02.04.02.08-.04.07.02.05.07.07.14.04 0 .03 0 .05 0 .07.12-.02.18.02.22.1 0 .05 0 .1-.03.13 0 0 0 0 .02 0zm.9-.28c.03-.26.12.24 0 0zm-.24-.3c.15 0 .17.15.2.3-.1-.03-.17-.13-.2-.3zm.1.65c-.1-.02 0-.1-.02-.2.12.04.03.13.03.2zm-.35-.6c.23.02.04.26.26.36-.1.22-.25-.14-.25-.34zm-1.13 1.5c-.02-.02.05.04 0 0zm.16-.28c-.04-.03.04.03 0 0zm.46.45c.05.03-.03-.02 0 0zm-.3-1.8c-.02-.02.06.04 0 0zm.58 2.28c.1 0 .1.15.02.23l-.08-.04c.02-.07.04-.13.06-.2zm-2.86-23.5c.04-.2 0-.4-.12-.63-.13-.22-.33-.43-.62-.6-.2-.15-.42-.24-.63-.28-.2-.05-.4-.04-.57 0-.16.07-.3.15-.4.26-.1.1-.22.3-.38.54l-.65 1c-.13.2-.23.38-.3.54 0 .16-.02.33.02.48-.06-.06-.1-.13-.1-.22 0 0-.02 0-.02 0-.04.2 0 .4.1.58 0 0 .02.02.02.07.13.2.33.4.62.6.28.17.54.27.8.28.27 0 .47-.04.62-.16.15-.1.34-.34.57-.7l.1-.13-1-.63-.27.44c-.12.18-.2.3-.27.33-.06.04-.12.03-.2 0-.07-.06-.1-.12-.1-.2.02-.05.08-.16.2-.33l1-1.6c.13-.16.2-.27.27-.3.05-.05.12-.04.2 0 .07.06.1.1.1.17 0 .06-.07.18-.18.35l-.4.6.98.63.2-.33c.22-.3.34-.57.38-.76zm-3.66 1.58c-.03-.02.05.04 0 0zm.4.13c.06.05-.02 0 0 0zm.85.33c.03-.26.1.25 0 0zm-.9-1.56c-.04-.02.04.04 0 0zm.5 1.56c.04-.26.12.24 0 0zm-.04-1.9c.03-.34-.04.64 0 0zm.4.33c.03-.08.05-.18 0-.33.1-.02.2.4 0 .33zm.3-1.36c.02-.27.1.24 0 0zm.07.5c-.03-.14-.06-.3 0-.38.1-.02.22.45 0 .4zm.36-.18c.03-.26.12.24 0 0zm-.05-.7c.12-.3.13.18 0 0zm1.22 2.22c-.08 0-.08-.1-.1-.18.1-.04.13.03.15.1-.06 0-.06.04-.05.08zm-.35-1.72c.2-.26.35.13 0 0zm1.17 26.4s0-.02 0-.02zm-5.63 2c.04-.03.07-.03.1 0 2.25-1.04 4.13-2.62 5.53-4.55-.1-.17-.22-.35-.34-.52-.5.7-1.07 1.36-1.7 1.97.2-.05.17.18.25.3-.12-.06-.24-.1-.24-.3-1.4 1.37-3.16 2.45-5.15 3.1.05.2.1.4.14.58.47-.16.94-.35 1.4-.55 0 0 0-.03 0-.04zm4.42-3.76c.05.03-.04-.03 0 0zm-.8 1.18c.04-.27.12.24 0 0zM30.7 37c.03-.26.12.24 0 0zm-.94.22c.2-.1.14.2.1.25-.1 0-.08-.15-.1-.25zm-1.05.44c.13.06.26.13.32.27-.2.05-.24-.13-.3-.27zm7.1 1.8l.02.02.87-.78-2.18-2.43.4-.37c-.04-.03-.07-.1-.05-.17.06 0 .08.02.12.03l-.5-.56-.4.36c.07.1.08.3.16.4-.14-.04-.2-.17-.27-.32l-.8.7c.03.07 0 .35-.05.06l-.56.5.3.35s0 0 0-.02c.04-.14.06 0 .06.08l.17.2.52-.45 1.06 1.18s0-.02 0-.04c0-.22.07.07.03.06l1 1.1c0-.06-.02-.14-.04-.2.06-.02.12-.03.2-.04-.1.1.08.26-.1.33zm-2.6-2.73c.12-.28.13.2 0 0zm.2-.04c.07-.25.23.17 0 0zm.53.04c-.05 0-.1 0-.13.02 0-.04 0-.1-.02-.13.04 0 .08 0 .13-.02 0 .05.02.1.03.14zm.3-.5c-.03-.04.06.02 0 0zm.56 1.8c-.05 0-.1.02-.13.03 0-.05-.02-.1-.02-.13.04 0 .08-.02.12-.02 0 .04.02.08.02.13zm-.28-1.66c-.05 0-.07-.06-.14-.04 0-.05 0-.1-.02-.13.14-.05.14.08.16.18zm1.54 2.18c-.1 0-.08-.15-.1-.24.2-.1.13.2.1.24zm-.25-.3c0-.03 0-.07 0-.1.05 0 .05-.05.05-.1.12-.04.13.3-.04.2zm-.82-.3c.03-.27.1.23 0 0zm-.24-1.03c.07 0 .1.04.14.05-.02-.2.28.02 0 0 0 .07.06.16.08.05.04 0 .07 0 .07.06 0 .03.02.07.02.1-.06.03-.13.03-.2.04 0-.15-.13-.12-.1-.3zm.4.8c-.04-.02.04.03 0 0zm-.08-.45c.2-.1.13.18.18.3-.14 0-.16-.14-.18-.3zm.3 1.07c.05 0 .1-.02.13-.02 0 .08.02.17.03.25-.04 0-.08.02-.12.02 0-.08-.02-.17-.03-.25zm.24.62c0-.05-.02-.1-.02-.13.05 0 .05-.04.05-.07.12-.05.14.27-.03.2zm-.03-.98c.1-.08.06-.24.22-.25.04.15-.1.16-.02.33-.13.06-.1-.1-.2-.1zM9.73 32.76l-.85.1c-.02 0-.03 0-.04 0 0-.03 0-.05 0-.07l-.1-.1c-.02 0-.04 0-.06 0 0-.03 0-.05 0-.07l-.36-.43-.18.84-.35.14c.04.04.06.22-.08.06 0 0 0-.02.02-.03l-.4.17.74.43.07.86.64-.57.82.2-.26-.6c-.23.02-.2-.2-.18-.36.1-.05.13 0 .15.08l.4-.65zM8 33.73c-.02-.2.28 0 0 0zm.42.2c-.04 0-.08 0-.12 0 0-.03-.02-.07-.02-.12.04 0 .08 0 .12 0 0 .03.02.08.02.12zm1-1.1c-.03-.02.05.04 0 0zm-3.26-2.6l.06.83.78-.7.2.05c0-.02 0-.05-.02-.1.22-.07.38-.2.57-.3l-.15-.34.5-.82c-.03 0-.06-.03-.1-.06l-.9.1-.66-.8-.23 1-.38.18c.04.06.08.12.1.2-.08-.05-.16-.1-.24-.15l-.43.2.7.4c.03 0 .04 0 .05.03l.15.1v.05c.06 0 .08.05.15.04-.03.06-.05.1-.03.2-.04 0-.08-.04-.1-.08zm1.05-1.32c.06.05-.02 0 0 0zm-.02.22c-.02-.2.28.02 0 0zm-.75-.6c.06-.23.2.22 0 0zm.1.24c.05 0 .1 0 .13-.02 0 .1.06.14.1.18.07-.02.05.1 0 0-.1.03-.2.02-.27-.02-.02-.06.03-.1.04-.14zm0 .8c0-.2.28 0 0 0zm-.03.6c.05.03-.03-.03 0 0zm29.96 5.78L34.9 34.7l.55-.72c.4.67.72 1.34 1 1.96zM6.02 24.8c0 .02 0 .02 0 .03v-.02zm9.73 10.9c.2.13.38.27.58.4.03-.1.06-.2.1-.3-.75-.48-1.45-1.06-2.07-1.7 0 .04-.02.07 0 .1-.08 0-.08-.1-.1-.2-1.47-1.52-2.6-3.44-3.18-5.64 0-.02 0-.04-.02-.07 0 0-.04 0-.1-.06.02-.08.05-.08.07-.05-.15-.62-.26-1.24-.33-1.85-.08.1-.17.2-.25.3.03.27.07.55.13.84.05.05.07.12.04.2.16-.06.14.1.27.1-.02.1-.18.1-.25.02.04.2.1.4.15.62.32 1.2.8 2.34 1.4 3.36.05-.1.22.05.04.06.85 1.4 1.94 2.62 3.2 3.6-.02-.02-.04-.06-.05-.1.08 0 .14.05.15.16-.02 0-.04 0-.06-.02.07.06.14.1.2.17.02-.14.24.02.05.02zm-4.48-6c.07 0 .06.12.14.1.02.2-.18.04-.13-.1zm4.64 6.03c.04-.27.13.24 0 0zM7.25 15.32l-.8 1.48.15.1c0-.03.02 0 .02.03l.2.15c.02-.03.03 0 .03.02l1.93 1.42c.02 0 .04.02.05.05l.93.68.15-.28c-.07 0-.13-.04-.15-.15.1 0 .16 0 .2.05l.38-.68-.06-.05s-.05.02-.1 0c0-.02 0-.05 0-.06l-.46-.32.2-.37.7.3.34-.65c-.05.05-.17-.06-.13-.18.08 0 .07.12.16.1 0 .03 0 .04 0 .06l.2-.38L9 15.92c0 .02.02.04.03.06-.07-.02-.12-.06-.16-.1l-.75-.27c0 .06-.04.1-.12.08.04.13-.07.14-.1.22-.16 0-.04-.25.1-.22 0-.04 0-.07 0-.1l-.76-.27zm3.5 1.5c.04.03-.04-.03 0 0zm-.3.5c.02-.26.1.25 0 0zm-.62-.88s.04.02 0 0zm-.02.27c.28 0 0 .4 0 0zm0 .4c-.03-.02.05.04 0 0zm-.14-.44s.04.03 0 0zm-2.96-.1c.03-.27.12.23 0 0zm.62.16zm0-1.25c.07 0 .07.1.08.18.28-.05.14.4.08.45-.17-.04.04-.26-.08-.45-.13.2-.17-.1-.1-.2zm.28 1.4c0-.2.28.02 0 0zm.23.16c-.05 0-.1 0-.13.02 0-.04-.02-.1-.02-.13.04 0 .08 0 .13-.02 0 .04.02.08.03.13zm.56.63c.04.04-.04-.02 0 0zm.44.78c-.15 0-.08-.27-.05-.32.14 0 .07.28.04.32zm-.3-1.07c.03-.26.1.24 0 0zm.96 1.5c-.18.1-.14-.13-.17-.25.1 0 .16.1.17.24zm-.36-2.2c.1.04.14.13.17.25-.1 0-.15-.1-.16-.24zm-.27-.47c.03-.26.1.24 0 0zm-.12.1c.2-.2-.12.22 0-.02zm.1.23c-.03-.02.05.04 0 0zm-.35-.6c.06-.24.23.18 0 0zm-.45.07c.26.04.13.36.1.58-.3-.04.08-.27-.1-.58zm1.2 1.1l-.18.35c-.3-.2-.77-.53-1.4-1 .62.26 1.16.48 1.6.65zm9.82-10.53c-.05 0-.1 0-.13.02 0-.03 0-.04 0-.05l-.1.02.83 4 .3-.08c.03-.1.05-.07.06-.02l.64-.13s0-.02 0-.03c0-.15.04-.05.05.02l.8-.17s-.03-.02-.04-.04c.03-.14.1-.03.1.03h.07l-.17-.8-.84.16-.18-.88.7-.14-.15-.76-.7.14c0 .08 0 .13-.05-.06 0-.03.02-.04.03-.05l-.08-.37c-.08-.06-.15-.15-.2-.26.06 0 .12.04.16.07l-.02-.07.68-.15c-.02 0-.04 0-.06-.03.05-.17.14-.03.12.02h.02l-.15-.75c-.03 0-.05-.02-.06-.04l-1.25.26c.16.24.36.48.5.77-.16-.05-.22-.25-.32-.4-.18.03-.1.13-.26.05.07-.1.18-.18-.08-.12-.04-.1-.06-.18-.07-.25l-.17.04c0 .02 0 .03 0 .05zm1.75 1.55c.1-.26.1.4 0 0zm-.1 1.8c-.03-.02.05.03 0 0zm-.14-3.27c.14-.04.2.02.22.16-.13.04-.2 0-.22-.15zm-.7-.22c.22.07 0 .3.1.45-.25 0-.18-.36-.1-.45zm.24 1.4c.08 0 .06.1 0 0-.07.03-.05-.07 0 0zm.25 1.95c-.03-.02.05.03 0 0zm-.02-.53c.04-.26.12.25 0 0zm-.15-.56c.04.02-.04-.04 0 0zm-.3-.7c.1-.26.12.2 0 0zm.08.6c-.03-.03.05.03 0 0zm-.8-.47c-.02-.03.06.03 0 0zm.1.1c.04.05-.04 0 0 0zm.4 1.33c.27.2-.12.35 0 0zm-.05-1.1c.04-.28.12.23 0 0zm-.07-.06c-.04 0-.08 0-.13.02 0-.05 0-.1-.02-.13.05-.02.1-.02.14-.03 0 .04 0 .08.02.13zm7.72 10.1c-.17.2-.26.44-.27.7 0 .27.07.66.2 1.18l.5 1.87c.13.43.25.75.38.96.14.23.32.4.57.5.25.1.56.1.95 0 .25-.06.46-.17.6-.3-.07-.14-.14-.28-.2-.43.14.05.23.17.3.3 0 0 .03-.02.04-.04.16-.22.23-.46.23-.7 0-.2-.03-.45-.1-.75 0 .18-.27-.02 0 0-.03-.1-.05-.22-.1-.34l-.07-.32c-.1-.2-.14-.47-.3-.6.05 0 .1 0 .15.04l-.24-.9c-.13-.5-.26-.86-.4-1.08-.14-.23-.34-.4-.6-.5-.25-.1-.55-.13-.9-.03-.08.02-.15.04-.22.07.02.07 0 .16-.03.2-.08.03-.1-.05-.1-.14-.14.08-.27.18-.37.3zm.78 4.52c-.02-.2.27.02 0 0zm.26.42c.06-.23.2.22 0 0zm1.4-3.8c.05.04 0 0 0 0zm.28 1.3c0-.02 0-.02 0-.02s.04.03 0 0zm.23 1c.2-.2-.1.24 0 0zm-.75-1.8c.25-.07.23.23.27.43.08.02.14.06.16.17-.08 0-.14-.06-.15-.17-.16-.04-.24-.18-.27-.42zm-.04 2.52c-.02-.2.27.02 0 0zm.62.23c-.24-.04-.33-.27-.4-.53.23.04.25.37.4.52zm-2.15-4.4c.12.13.24.3.36.46.07-.02.12-.02.16 0 .06.03.1.08.1.16.02.08.06.2.1.4l.02.03c.18.3.33.62.43.87-.1-.02-.16-.05-.22-.1l.5 1.85c.06.26.1.42.08.5 0 .07-.04.12-.12.14-.08.03-.14.02-.18-.04-.04-.05-.1-.23-.18-.53l-.7-2.62c-.07-.26-.1-.43-.1-.5 0 0 0-.02 0-.03-.03-.02-.08-.03-.14 0 .08-.23-.06-.3-.1-.57zm-.24 1.7c-.02-.2.27 0 0 0zM11.9 14.77c-.03.05-.08.06-.13.05-.05-.02-.13-.08-.25-.18-.04.05-.1-.02-.12-.1L9.2 12.6l-.33.36s0 .03 0 .06c.2-.02 0 .28 0 0-.02 0-.03 0-.04 0l-.4.46 1.8 1.58c.36.3.6.5.7.57.14.1.28.13.44.14.17 0 .35-.05.54-.15.2-.1.4-.26.57-.46.16-.2.27-.37.34-.55.07-.18.1-.35.06-.52-.02-.17-.08-.3-.16-.4-.08-.1-.23-.25-.47-.46l-1.16-1c-.45-.03-.8-.1-1.2 0 0-.13-.04-.24-.08-.34l-.33.36c.12 0 .23.05.35.12.08 0 .16 0 .15.1-.04.02-.08.02-.13.03 0-.04 0-.1-.02-.13-.1.02-.2.04-.28.05l.76.66c.04-.04.14.04.07.07l1.3 1.14c.02 0 .03 0 .04.02 0-.05 0-.1 0-.13.16 0 .12.1.1.22.08.08.13.13.15.17.02.05 0 .1-.04.16zm-2.57-.96c.08.02.14.06.16.17-.14.04-.15-.08-.17-.18zm0-.73c.3.24-.13.27 0 0zm.7 1c-.18.1-.14-.12-.17-.23.1 0 .16.08.17.23zm.52 1.17c.03-.27.1.24 0 0zm.7.34c.05.05-.03 0 0 0zm-.96-3.12c.07-.27.07.38 0 0zm.7.8c.04-.26.12.24 0 0zm1 .83c.05-.22.2.23 0 0zm.12.78c.07-.25.23.17 0 0zm16.64-3.93l.2.07s.02 0 .03.02l.8.33s-.02-.02-.02-.03c.06 0 .06-.04.05-.08.03 0 .04 0 .06 0l1.5-3.64-.4-.16c0 .05-.03.1-.1 0 .02 0 .03-.02.03-.03l-.62-.25-1.4 3.4c.02 0 .02 0 0 0l-.14.37zm2.37-3c.03-.26.1.25 0 0zM31 7.6c.17-.12.23.26.03.2 0-.07-.02-.13-.03-.2zm-.85 2.84c.05.04-.02-.02 0 0zm.25-2.48c.05.04-.02-.02 0 0zm.37.6c-.02-.2.27.02 0 0zm-.13-.37c-.02-.2.27.02 0 0zm.16.57c.2-.02-.02.27 0 0-.2 0 0-.28 0 0zm-.54-1.3c.03-.27.1.24 0 0zm0 .4c-.02-.2.27 0 0 0zm.1 1.43c-.03-.03.05.03 0 0zm-.63-.63c.1-.26.1.4 0 0zm.1.58c.2.03-.06.18.05.32-.15 0-.08-.27-.05-.32zm.14.84c-.1-.02-.15-.07-.16-.18.1.02.15.07.16.18zm-.14.35c.03-.26.1.25 0 0zm-.48-.1c-.03-.03.05.02 0 0zm-19.17 1.2s0 0-.03 0l-.27.33c.27.2.6.23.94.2l-.64-.54zm-.02.2c.1-.26.08.4 0 0zM37.6 23.28c-.07-.64-.2-1.28-.36-1.9-.03-.1-.06-.2-.08-.3-.2 0-.14-.32-.34-.28-.03-.06 0-.07.05-.08.06 0 .06-.04.05-.08.07.03.12.1.16.18-.1-.3-.2-.6-.3-.87 0 0-.02-.02-.05-.07 0 0 0-.03 0-.04-.48-1.25-1.14-2.4-1.93-3.43-.2-.08-.4-.15-.57-.26-.15-.02-.27-.1-.45-.05.73.8 1.36 1.74 1.88 2.75.03-.17.08.1.04.1.13.24.25.5.36.78.18.13.27.34.2.5 0 0 0 0 0-.02.16.43.3.86.4 1.3.1.36.2.7.26 1.07.02.05.03.12.02.18.05.26.1.52.12.78.04.05.02.17.05.24 0 0 0 0-.02 0 .12 1.3.05 2.56-.2 3.8.03-.03.05-.05.05-.08.18-.04.2.27.13.36-.1 0-.1-.13-.2-.1-.23 1.07-.6 2.1-1.06 3.1.08.13.15.28.2.47-.1-.1-.2-.2-.28-.32-.12.26-.25.5-.4.75-.1.16-.18.33-.28.48 0 .07 0 .14-.1.14-.02.04-.05.1-.08.13.1.16.2.37.3.58 1.26-1.78 2.1-3.84 2.4-6.02-.1 0-.02-.1.03-.13.13-1.02.16-2.08.07-3.14-.2-.1-.23-.56-.54-.3.1-.16.2-.33.1-.67.2.03.2.36.38.44zm-.84-2.8c.05 0 .1 0 .13-.02 0 .04 0 .1 0 .13-.03 0-.07 0-.1.02-.02-.04-.03-.1-.03-.13zm-1.48-2.65c-.03-.03.05.03 0 0zm.08-.35c.05.04-.03-.02 0 0zm.93 13.3c-.05-.04.04.02 0 0zm-.04-.14c-.03-.03.05.03 0 0zm.26-.44c-.04 0-.08 0-.13 0 0-.03-.02-.07-.03-.12.04 0 .1 0 .13-.02 0 .05 0 .1.02.13zm.13-.43c.05.04-.03-.02 0 0zm.06-.8c0-.2.3.02 0 0zm.55-1.53c-.16.02-.2-.22-.12-.3.16-.03.2.2.12.3zm.18-.5c.02.2-.27 0 0 0-.02-.07.1-.05 0 0zm-.28-2.9c-.03-.03.05.03 0 0zm.38-.07c.05.03-.03-.02 0 0zm-.65-2c.03-.27.1.24 0 0zm.17-.16c-.03 0 .05.04 0 0zM25.4 41.76c.03-.26.1.24 0 0zm8.83-25.6c-.02-.08.1-.06 0 0zm4.75 23.12c-.07.02-.05-.08 0 0zm-27.77 2.5c.03-.14.07-.27.1-.4-1.37-1.04-2.63-2.25-3.7-3.62 0 .04 0 .08.03.12-.17.05-.22-.06-.23-.23.04 0 .07 0 .1 0-.76-.96-1.43-2-2-3.12-.05 0-.08.02-.1.02 0-.04.03-.07.03-.12 0-.03-.03-.05-.04-.08-.02 0-.03 0-.05 0-.02-.04-.03-.08-.02-.12-.04-.08-.08-.17-.12-.25-.23.4-.43.83-.8 1.12 1.6 3.05 3.86 5.62 6.58 7.56.1-.3.17-.6.23-.9-.07.02-.05-.08 0 0zM4.85 35.6c.05.04-.03-.02 0 0zm.1.12c.03 0 .07 0 .12-.02 0 .04 0 .08.02.13-.05 0-.1 0-.13.02 0-.04-.02-.1-.02-.13zm.18.36c.1.03.14.12.17.24-.2.04-.25-.15-.18-.24zm.24.3c.05.03-.03-.03 0 0zm-.04-.26c.03-.27.1.24 0 0zm-.03-.2c.02-.26.1.25 0 0zm.25-.82s.03.02 0 0zm.17 1.48c.04-.26.12.24 0 0zm-.1-.3c.02-.28.1.23 0 0zm.23.67c.02.08-.1.05 0 0-.02-.08-.1-.07-.1-.18.1 0 .15.05.16.16 0 0-.03 0-.05 0zm.3-.24c0 .1 0 .2-.04.27-.14 0-.16-.15-.1-.25-.07 0-.08-.1-.1-.18.08 0 .14-.02.2-.04 0 .1-.08.13-.1.22.05 0 .1 0 .14-.02zm-.42-.86c.07 0 .13-.02.2-.03 0 .32.34.15.28.55-.2-.1-.38-.25-.46-.53zm.86 1.25c.04.03-.04-.03 0 0zm-.3-.22c.1-.03.14.06.26.02.04.1-.34.18-.26-.02zm.56 1.03c.03-.27.1.24 0 0zm.1-.15c-.03-.02.05.04 0 0zm-.2-.76c.1-.03.13.04.2.03 0 .2 0 .13.07.32-.2.06-.16-.25-.26-.35zm.9 2.56c.04.03-.04-.02 0 0zm.4.07zm.1.3c.05.04-.02-.02 0 0zm1.25.8c.08-.26.24.17 0 0zm1.16 1.05c-.16.05-.22-.05-.23-.22.1.04.2.06.23.22zm.35.14c-.08 0-.1-.1-.2-.1 0-.07.1-.06.18-.1 0 .07.02.14.03.2zm11.94-30.2c.03.1-.15.18-.25.3.26-.02.52-.03.8-.04-.02 0-.03 0-.05 0 0-.05 0-.1-.02-.14.06 0 .06-.03.05-.07.1-.05.13.18.03.2.86 0 1.7.05 2.53.2-.03-.05-.07-.1-.14-.08.05-.14.24-.02.32.12.77.15 1.52.37 2.25.65-.05-.06-.05-.15 0-.2.1 0 .08.14.1.23.57.23 1.13.5 1.67.8.1.07.2.14.3.2.02-.1.03-.2.04-.32-.22-.12-.45-.25-.68-.37.02.07.03.15.06.2-.16.02-.2-.13-.23-.3-1.22-.6-2.53-1.03-3.9-1.25.03.05.04.22-.03.06 0-.03 0-.06 0-.07-.93-.15-1.9-.2-2.86-.14zm6.3 1.35c.06.02-.02-.04 0 0zm-2.95-.9c.04.02-.04-.04 0 0zm10 30.03c0-.04-.02-.1-.03-.13.07 0 .1.1.03.13zm1.46-18.48c-.06-.1-.05-.18-.02-.27 0 .1.02.18.02.27zm7.67 2.57s-.02 0-.03 0c0-.03.02-.05.03-.08 0 .03 0 .06 0 .08zM30.6 12.77c.07.18.05.43 0 .67.28.17.55.34.8.53 0 0 0-.03-.02-.06.02-.2.08.08.05.07.56.4 1.1.84 1.6 1.32.12.06.23.15.3.3.14.15.3.3.43.47 0-.22-.08-.34-.14-.5.26.2.56.3.86.44-.53-.62-1.1-1.2-1.73-1.73-.02 0-.04-.02-.08-.04 0 0 0-.02 0-.03-.64-.53-1.33-1.02-2.06-1.43zm1.2.87c.08-.26.08.4 0 0zM12.53 40.36c.04 0 .08.03.1.06l.57.37.47-.6.35.23-.34.66.62.38s0 0 0-.02c.06 0 .12.05.14.12l.24.15.22-.52c-.02-.06.02-.16.1-.2l.1-.23c-.1-.42.2-.97.37-1.35.2.25-.23.55-.18.89l1.02-2.36-.37-.24c-.06.16-.12.3-.17.42.03-.17.05-.33.1-.48l-.98-.62-2.7 3.12.34.22zm3.15-1.96c-.12-.1-.36-.2-.2-.43.15 0 .08.3.3.2 0 .25-.06.27.06.46-.33-.12-.14.56-.4.66-.1-.43.07-.66.23-.9zm-1.24 2.04c.08-.26.08.4 0 0zm.4-2.7c.04-.27.12.24 0 0zm-.58.82c-.02-.2.28.02 0 0zm.27.02c0 .05 0 .1.02.13-.05.02-.1.02-.13.03 0-.04 0-.08-.02-.12.04 0 .08 0 .13-.02zm-.64-.3c.04-.25.13.25 0 0zm.23.97c.06 0 .1.02.13.07.22-.27.52-.62.9-1.05-.32.6-.58 1.12-.78 1.54l-.08-.04c-.02 0-.04 0-.1-.06l-.15-.1c.03-.05.07-.1.1-.15 0-.06 0-.15-.02-.2-.2.24-.14-.33 0 0zm0 1.12c-.03-.2.26 0 0 0zm-.7-.62c.1.04.22.07.23.23-.16.05-.22-.06-.23-.23zm-.25.05c-.02-.2.27 0 0 0zm23.95-7.86c-.02 0-.04 0-.06 0 0-.03.04-.08.06 0zM50.13 7.8h-.02l-1.44.7-.3-1.37 2.02-.96h1.47v7.8h-1.72v-6.2zM59.97 10.03c0 2.4-.95 4.06-2.9 4.06-1.96 0-2.82-1.82-2.83-4.02 0-2.26.93-4.05 2.9-4.05 2.03 0 2.83 1.86 2.83 4zm-3.94.05c-.02 1.78.4 2.63 1.1 2.63s1.06-.87 1.06-2.65c0-1.73-.37-2.64-1.1-2.64-.64 0-1.1.87-1.07 2.68zM66.46 10.03c0 2.4-.94 4.06-2.9 4.06s-2.82-1.82-2.83-4.02c0-2.26.93-4.05 2.9-4.05 2.04 0 2.83 1.86 2.83 4zm-3.94.05c0 1.78.4 2.63 1.1 2.63s1.06-.87 1.06-2.65c0-1.73-.36-2.64-1.07-2.64-.65 0-1.1.87-1.08 2.68zM71.34 8.35c0 1.63-1 2.48-2.1 2.48-1.16 0-2.08-.9-2.08-2.35 0-1.4.83-2.45 2.13-2.45 1.3 0 2.04 1 2.04 2.32zm-2.86.08c0 .82.27 1.4.8 1.4.5 0 .74-.52.74-1.4 0-.8-.2-1.4-.76-1.4-.53 0-.78.62-.78 1.4zm.85 5.66l4.36-8.07h.95l-4.38 8.06h-.94zm7.5-2.5c0 1.62-1.02 2.47-2.12 2.47-1.14 0-2.05-.9-2.06-2.35 0-1.4.83-2.45 2.13-2.45 1.3 0 2.05 1 2.05 2.32zm-2.86.07c0 .82.26 1.4.78 1.4.5 0 .74-.52.74-1.4 0-.8-.2-1.4-.76-1.4-.53 0-.77.62-.77 1.4zM49.98 26.3l-.56 2.06h-1.85l2.4-8.08h2.35l2.44 8.08h-1.92l-.6-2.07h-2.26zm2-1.38l-.5-1.72c-.13-.47-.27-1.07-.4-1.55-.13.48-.25 1.1-.38 1.55l-.46 1.72h1.74zM60.98 26.48c0 .77.02 1.4.04 1.88h-1.54l-.08-.83h-.04c-.22.36-.76.96-1.8.96-1.15 0-2-.75-2-2.56V22.5h1.8v3.15c0 .85.26 1.37.88 1.37.5 0 .77-.35.9-.64.03-.1.05-.25.05-.4V22.5h1.78v3.98zM64.4 20.82v1.68h1.27v1.34H64.4v2.12c0 .7.15 1.03.7 1.03.22 0 .4-.03.52-.06v1.38c-.22.1-.64.16-1.15.16-.57 0-1.05-.2-1.33-.5-.33-.35-.5-.92-.5-1.74v-2.4h-.75V22.5h.75v-1.27l1.74-.4zM66.7 19.85h1.77v3.34h.03c.18-.26.42-.45.7-.6.25-.15.6-.24.92-.24 1.14 0 2 .8 2 2.57v3.43h-1.78v-3.23c0-.76-.25-1.3-.92-1.3-.47 0-.76.32-.9.65-.04.1-.05.27-.05.4v3.48H66.7v-8.5zM74.92 26c.06.77.78 1.13 1.6 1.13.62 0 1.1-.1 1.6-.24l.23 1.22c-.6.24-1.3.36-2.07.36-1.95 0-3.06-1.15-3.06-3 0-1.47.9-3.12 2.9-3.12 1.84 0 2.54 1.48 2.54 2.93 0 .3-.03.58-.06.7h-3.68zm2.1-1.24c0-.44-.2-1.18-1-1.18-.76 0-1.07.7-1.1 1.18H77zM79.73 24.37c0-.73-.03-1.36-.05-1.87h1.54l.1.8h.02c.24-.37.82-.94 1.77-.94 1.18 0 2.06.8 2.06 2.52v3.48h-1.78V25.1c0-.74-.26-1.26-.9-1.26-.5 0-.8.35-.9.7-.05.1-.07.27-.07.44v3.38h-1.77v-4zM88.5 20.82v1.68h1.28v1.34H88.5v2.12c0 .7.17 1.03.7 1.03.23 0 .4-.03.53-.06v1.38c-.22.1-.64.16-1.15.16-.57 0-1.05-.2-1.33-.5-.33-.35-.5-.92-.5-1.74v-2.4H86V22.5h.76v-1.27l1.74-.4zM92.64 20.86c0 .5-.37.92-.96.92-.56 0-.93-.4-.92-.92 0-.52.36-.92.94-.92s.93.4.94.92zm-1.83 7.5V22.5h1.8v5.86h-1.8zM98.3 28.22c-.3.14-.9.26-1.6.26-1.84 0-3.02-1.15-3.02-3 0-1.7 1.15-3.1 3.28-3.1.47 0 .98.07 1.36.2l-.28 1.37c-.2-.1-.53-.18-1-.18-.94 0-1.54.68-1.53 1.64 0 1.1.7 1.65 1.58 1.65.42 0 .75-.07 1.02-.18l.2 1.35zM48.14 34.8c.55-.1 1.32-.18 2.4-.18 1.1 0 1.9.2 2.42.65.5.4.85 1.07.85 1.87s-.25 1.46-.72 1.92c-.6.58-1.5.85-2.56.85-.24 0-.45 0-.6-.03v2.9h-1.78v-7.98zm1.77 3.66c.16.03.35.04.6.04.95 0 1.54-.5 1.54-1.3 0-.76-.5-1.2-1.4-1.2-.36 0-.6.03-.73.07v2.4zM54.77 38.83c0-.86-.02-1.43-.04-1.93h1.53l.06 1.08h.05c.3-.86 1-1.22 1.54-1.22.18 0 .26 0 .4.03v1.7c-.14-.02-.3-.04-.5-.04-.65 0-1.1.35-1.2.92-.03.12-.05.26-.05.4v2.98h-1.77v-3.93zM64.78 39.76c0 2.15-1.5 3.13-3.02 3.13-1.67 0-2.96-1.13-2.96-3.03s1.22-3.1 3.05-3.1c1.76 0 2.93 1.23 2.93 3zm-4.14.06c0 1 .4 1.77 1.17 1.77.7 0 1.14-.72 1.14-1.78 0-.87-.32-1.76-1.13-1.76-.85 0-1.16.9-1.16 1.76zM71.46 34.25V41c0 .67.02 1.37.05 1.76h-1.57l-.1-.86c-.37.66-1.06 1-1.8 1-1.36 0-2.45-1.2-2.45-3.02 0-1.98 1.2-3.12 2.57-3.12.7 0 1.25.26 1.5.66h.03v-3.17h1.78zm-1.78 5.13c0-.1 0-.23-.02-.32-.1-.5-.5-.9-1.04-.9-.8 0-1.23.74-1.23 1.66 0 1 .47 1.62 1.2 1.62.52 0 .93-.36 1.03-.87.04-.13.05-.27.05-.42v-.77zM78.28 40.88c0 .77.02 1.4.05 1.88h-1.55l-.08-.82h-.04c-.22.35-.76.95-1.8.95-1.15 0-2-.75-2-2.56V36.9h1.8v3.15c0 .85.26 1.37.88 1.37.5 0 .77-.35.9-.64.04-.1.05-.25.05-.4V36.9h1.78v3.98zM84 42.62c-.32.14-.9.26-1.6.26-1.84 0-3.02-1.15-3.02-3 0-1.7 1.14-3.1 3.27-3.1.47-.02.98.07 1.36.2l-.27 1.37c-.2-.1-.53-.18-1-.18-.93 0-1.54.68-1.53 1.64 0 1.1.7 1.66 1.57 1.66.42 0 .75-.08 1.02-.2l.2 1.36zM87.16 35.22v1.68h1.27v1.34h-1.28v2.12c0 .7.17 1.04.7 1.04.23 0 .4-.03.53-.05l.02 1.38c-.24.1-.66.15-1.16.15-.58 0-1.06-.2-1.34-.5-.32-.35-.5-.9-.5-1.74v-2.4h-.75V36.9h.76v-1.27l1.75-.4zM89.45 41.17c.32.2 1 .44 1.53.44.54 0 .76-.18.76-.48s-.17-.44-.84-.67c-1.18-.4-1.64-1.07-1.63-1.77 0-1.1.9-1.92 2.33-1.92.67 0 1.26.16 1.6.34l-.3 1.26c-.26-.14-.75-.34-1.24-.34-.43 0-.68.18-.68.48 0 .28.22.42.92.68 1.1.38 1.55.94 1.56 1.8 0 1.1-.84 1.9-2.48 1.9-.75 0-1.42-.17-1.85-.4l.32-1.3z"/></svg>