<?xml version="1.0" encoding="utf-8"?>
<!-- Generator: Adobe Illustrator 16.0.0, SVG Export Plug-In . SVG Version: 6.00 Build 0)  -->
<!DOCTYPE svg PUBLIC "-//W3C//DTD SVG 1.0//EN" "http://www.w3.org/TR/2001/REC-SVG-20010904/DTD/svg10.dtd">
<svg version="1.0" xmlns="http://www.w3.org/2000/svg" xmlns:xlink="http://www.w3.org/1999/xlink" x="0px" y="0px" width="100px"
	 height="50px" viewBox="0 0 100 50" enable-background="new 0 0 100 50" xml:space="preserve">
<g id="Layer_2">
	<rect fill="#FFFFFF" width="100" height="50"/>
</g>
<g id="Layer_1">
	<g>
		<path display="none" fill-rule="evenodd" clip-rule="evenodd" d="M0,46.433c0-14.26,0-28.523,0-42.785
			c0.549-1.563,1.408-2.775,2.639-3.565c31.58,0,63.159,0,94.739,0c1.925,1.257,2.688,3.157,2.671,5.914
			c-0.082,12.871-0.035,25.742-0.037,38.613c0,3.542-1.487,5.382-4.339,5.382c-30.208,0-60.421-0.025-90.631,0.054
			C2.628,50.053,0.96,49.186,0,46.433z M50.138,0.968c-15.228,0-30.455,0-45.682,0c-2.56,0-3.687,1.405-3.688,4.631
			C0.763,18.571,0.762,31.543,0.769,44.514c0.002,3.146,1.2,4.599,3.75,4.599c30.295,0.001,60.589,0.001,90.883,0
			c2.721,0,3.869-1.393,3.871-4.754c0.007-12.92,0.007-25.842,0-38.764c-0.001-3.238-1.125-4.626-3.694-4.626
			C80.431,0.968,65.284,0.968,50.138,0.968z"/>
		<path display="none" fill-rule="evenodd" clip-rule="evenodd" d="M4.982,24.009c4.408-0.207,8.797,0.358,10.766-4.95
			c-3.945,0-7.64,0-11.51,0c0.891-1.809,1.778-2.932,3.917-2.688c2.207,0.252,4.463,0.056,6.924,0.056
			c-1.264-1.958-3.021-2.602-4.966-2.729c-1.866-0.122-3.748-0.026-5.868-0.026c0.942-1.761,1.706-2.796,3.758-2.716
			c5.165,0.2,10.342,0.066,15.515,0.066c0.432,0,0.866,0,1.382,0c-0.752,1.783-1.747,2.879-3.778,2.543
			c-0.869-0.144-1.781-0.024-2.791-0.024c0.396,0.916,0.679,1.742,1.111,2.48c0.146,0.249,0.666,0.377,1.02,0.388
			c1.434,0.042,2.87,0.017,4.328,0.017c-0.881,2.252-1.36,2.656-3.594,2.567c-1.128-0.044-1.551,0.361-1.962,1.401
			c-1.313,3.319-4.153,4.627-7.449,5.195c-0.571,0.1-1.151,0.152-1.964,0.258c3.694,4.182,7.26,8.218,10.883,12.319
			c-2.186,0.849-4.221,0.473-5.524-0.935c-3.146-3.397-6.33-6.767-9.359-10.266C5.227,26.281,5.258,25.057,4.982,24.009z"/>
		<g display="none">
			<path display="inline" fill-rule="evenodd" clip-rule="evenodd" d="M93.824,20.489c-1.435,0.313-2.601,0.226-3.456-1.209
				c-0.799-1.339-1.811-2.552-2.958-4.139c0,1.994,0,3.647,0,5.378c-0.974,0-1.763,0-2.647,0c0-3.127,0-6.241,0-9.367
				c1.679-0.455,2.99-0.204,3.907,1.485c0.608,1.12,1.511,2.081,2.514,3.422c0-1.855,0-3.379,0-4.979c0.972,0,1.755,0,2.641,0
				C93.824,14.22,93.824,17.332,93.824,20.489z"/>
			<path display="inline" fill-rule="evenodd" clip-rule="evenodd" d="M73.602,15.844c0.007-2.97,2.036-5.072,4.902-5.079
				c2.787-0.007,4.828,2.125,4.805,5.021c-0.021,2.927-2.087,4.967-5.01,4.95C75.482,20.718,73.596,18.754,73.602,15.844z
				 M80.243,15.877c-0.117-0.593-0.06-1.207-0.341-1.516c-0.429-0.472-1.104-1.048-1.648-1.02c-1.288,0.064-1.544,1.215-1.586,2.26
				c-0.043,1.082,0.072,2.297,1.359,2.579c0.518,0.112,1.313-0.345,1.744-0.779C80.123,17.048,80.116,16.343,80.243,15.877z"/>
			<path display="inline" fill-rule="evenodd" clip-rule="evenodd" fill="#FFFFFF" d="M80.243,15.877
				c-0.127,0.466-0.12,1.171-0.472,1.524c-0.432,0.434-1.227,0.891-1.744,0.779c-1.287-0.282-1.402-1.498-1.359-2.579
				c0.042-1.044,0.298-2.196,1.586-2.26c0.544-0.028,1.22,0.548,1.648,1.02C80.184,14.67,80.126,15.284,80.243,15.877z"/>
		</g>
		<g display="none">
			<path display="inline" fill-rule="evenodd" clip-rule="evenodd" d="M31.878,28.317c1.97,0,3.815-0.149,5.625,0.038
				c2.245,0.232,3.435,1.961,3.426,4.538c-0.007,2.533-1.486,4.509-3.781,4.801c-1.325,0.171-2.685,0.076-4.028,0.084
				c-0.39,0.001-0.782-0.048-1.241-0.077C31.878,34.552,31.878,31.483,31.878,28.317z M34.78,35.511
				c1.165,0.162,2.112-0.025,2.662-1.021c0.552-1.001,0.613-2.083-0.029-3.063c-0.604-0.92-1.524-1.145-2.632-0.866
				C34.78,32.188,34.78,33.79,34.78,35.511z"/>
			<path display="inline" fill-rule="evenodd" clip-rule="evenodd" d="M79.628,28.254c1.593,0,3.073-0.056,4.548,0.014
				c1.919,0.09,2.771,0.691,3.099,2.014c0.299,1.198-0.336,2.298-1.759,3.152c0.898,1.364,1.801,2.732,2.859,4.339
				c-1.148,0-2.004,0.11-2.811-0.046c-0.408-0.079-0.779-0.592-1.074-0.98c-0.578-0.764-0.702-1.904-2.001-2.413
				c0,1.224,0,2.228,0,3.338c-1.013,0-1.885,0-2.861,0C79.628,34.599,79.628,31.484,79.628,28.254z M82.489,32.287
				c1.004,0.153,1.683-0.087,1.646-1.097c-0.038-1.082-0.81-1.041-1.646-0.949C82.489,30.96,82.489,31.569,82.489,32.287z"/>
			<path display="inline" fill-rule="evenodd" clip-rule="evenodd" d="M70.776,28.297c-0.514,1.572-0.991,3.039-1.47,4.504
				c-0.36,1.104-0.839,2.186-1.05,3.317c-0.256,1.376-0.935,1.734-2.288,1.717c-1.191-0.017-1.738-0.334-2.067-1.491
				c-0.751-2.652-1.646-5.265-2.563-8.144c0.949,0,1.75-0.101,2.508,0.046c0.329,0.063,0.704,0.588,0.816,0.973
				c0.514,1.786,0.941,3.596,1.497,5.784c0.478-2.004,0.957-3.589,1.21-5.212c0.21-1.365,0.887-1.797,2.152-1.604
				C69.867,28.24,70.22,28.25,70.776,28.297z"/>
			<path display="inline" fill-rule="evenodd" clip-rule="evenodd" d="M48.431,35.607c0,0.805,0,1.42,0,2.102
				c-2.024,0-3.983,0-6.041,0c0-3.11,0-6.221,0-9.422c1.92,0,3.819,0,5.802,0c0,0.694,0,1.346,0,2.127c-0.932,0-1.853,0-2.869,0
				c-0.023,0.498-0.041,0.872-0.065,1.382c0.958,0,1.835,0,3.047,0c-0.195,0.894-0.131,1.966-0.562,2.23
				c-0.58,0.355-1.541,0.087-2.419,0.087c-0.025,0.542-0.043,0.923-0.072,1.494C46.373,35.607,47.415,35.607,48.431,35.607z"/>
			<path display="inline" fill-rule="evenodd" clip-rule="evenodd" d="M77.608,31.765c0,0.887,0,1.549,0,2.256
				c-0.942,0.125-1.854,0.217-2.744,0.407c-0.096,0.021-0.061,0.637-0.094,1.099c1.129,0,2.144,0,3.271,0c0,0.754,0,1.394,0,2.25
				c-0.983,0-1.995,0-3.009,0c-0.978,0-1.955,0-3.024,0c0-3.188,0-6.261,0-9.461c1.897,0,3.798,0,5.802,0c0,0.623,0,1.272,0,2.064
				c-0.903,0-1.867,0-2.94,0c-0.047,0.496-0.084,0.868-0.134,1.385C75.713,31.765,76.588,31.765,77.608,31.765z"/>
			<path display="inline" fill-rule="evenodd" clip-rule="evenodd" d="M96.97,28.273c-1.02,3.168-3.73,5.705-2.735,9.42
				c-1.131,0-2.009,0-3.125,0c0.77-3.544-1.686-6.167-2.85-9.567c1.234,0.119,2.588-0.14,3.256,0.42
				c0.725,0.608,0.814,1.979,1.273,3.283c0.303-0.82,0.612-1.355,0.687-1.924c0.189-1.482,1.018-1.939,2.393-1.712
				C96.207,28.249,96.558,28.245,96.97,28.273z"/>
			<path display="inline" fill-rule="evenodd" clip-rule="evenodd" d="M49.934,37.673c0-3.149,0-6.19,0-9.352
				c0.918,0,1.79,0,2.795,0c0,2.313,0,4.673,0,7.217c1.167,0,2.212,0,3.323,0c0,0.798,0,1.413,0,2.135
				C54.056,37.673,52.063,37.673,49.934,37.673z"/>
			<path display="inline" fill-rule="evenodd" clip-rule="evenodd" d="M60.257,37.699c-0.936,0-1.812,0-2.77,0
				c0-3.104,0-6.186,0-9.389c0.896,0,1.795,0,2.77,0C60.257,31.462,60.257,34.539,60.257,37.699z"/>
			<path display="inline" fill-rule="evenodd" clip-rule="evenodd" fill="#FFFFFF" d="M34.78,35.511c0-1.721,0-3.322,0-4.951
				c1.108-0.278,2.028-0.054,2.632,0.866c0.643,0.98,0.582,2.063,0.029,3.063C36.892,35.485,35.945,35.673,34.78,35.511z"/>
			<path display="inline" fill-rule="evenodd" clip-rule="evenodd" fill="#FFFFFF" d="M82.489,32.287c0-0.718,0-1.327,0-2.046
				c0.837-0.092,1.608-0.133,1.646,0.949C84.172,32.2,83.493,32.44,82.489,32.287z"/>
		</g>
		<g display="none">
			<path display="inline" fill-rule="evenodd" clip-rule="evenodd" d="M68.327,20.519c-0.9,0-1.777,0-2.772,0
				c0-1.127,0-2.229,0-3.442c-1.119,0-2.124,0-3.329,0c0,1.08,0,2.21,0,3.438c-1.066,0-1.937,0-2.88,0c0-3.135,0-6.217,0-9.407
				c0.864,0,1.733,0,2.769,0c0,1.073,0,2.167,0,3.345c1.175,0,2.187,0,3.342,0c0-1.08,0-2.177,0-3.359c1.014,0,1.888,0,2.871,0
				C68.327,14.194,68.327,17.308,68.327,20.519z"/>
			<path display="inline" fill-rule="evenodd" clip-rule="evenodd" d="M49.724,20.598c-0.969,0-1.688,0.077-2.375-0.033
				c-0.349-0.055-0.902-0.432-0.92-0.694c-0.09-1.299-1-1.011-1.759-1.021c-0.733-0.008-1.554-0.228-1.673,0.976
				c-0.029,0.288-0.63,0.665-1.018,0.739c-0.643,0.124-1.326,0.034-2.091,0.034c0.033-0.355,0.008-0.617,0.085-0.843
				c0.888-2.615,1.815-5.218,2.675-7.842c0.237-0.72,0.599-0.935,1.344-0.935c2.637,0,2.629-0.029,3.428,2.483
				C48.145,15.748,48.893,18.026,49.724,20.598z M45.6,16.646c-0.284-1.034-0.538-1.958-0.792-2.881
				c-0.083,0.012-0.168,0.024-0.252,0.038c-0.232,0.916-0.462,1.833-0.717,2.844C44.428,16.646,44.897,16.646,45.6,16.646z"/>
			<path display="inline" fill-rule="evenodd" clip-rule="evenodd" d="M57.329,11.171c0,0.751,0,1.456,0,2.239
				c-0.876-0.166-1.724-0.402-2.583-0.45c-0.356-0.021-0.733,0.363-1.101,0.563c0.264,0.316,0.469,0.731,0.803,0.927
				c0.689,0.406,1.508,0.605,2.164,1.049c1.923,1.299,1.712,3.744-0.399,4.741c-1.619,0.765-3.317,0.645-4.991,0.189
				c-0.24-0.066-0.509-0.464-0.55-0.74c-0.086-0.569-0.026-1.16-0.026-1.755c1.036,0.227,2,0.494,2.983,0.619
				c0.303,0.039,0.656-0.315,0.988-0.488c-0.216-0.3-0.368-0.705-0.659-0.876c-0.649-0.381-1.52-0.495-2.02-0.997
				c-0.644-0.648-1.304-1.527-1.429-2.383c-0.161-1.102,0.566-2.021,1.664-2.516C53.819,10.547,55.491,10.685,57.329,11.171z"/>
			<path display="inline" fill-rule="evenodd" clip-rule="evenodd" d="M38.99,11.204c0,0.781,0,1.579,0,2.439
				c-1.551-0.385-3.266-0.948-4.184,0.806c-0.395,0.756-0.344,2.139,0.106,2.86c0.962,1.54,2.564,1.025,4.067,0.539
				c0,0.844,0,1.627,0,2.396c-2.69,1.014-5.379,0.54-6.684-1.152c-1.291-1.675-1.336-4.427-0.102-6.175
				C33.583,10.948,36.04,10.319,38.99,11.204z"/>
			<path display="inline" fill-rule="evenodd" clip-rule="evenodd" fill="#FFFFFF" d="M45.6,16.646c-0.702,0-1.172,0-1.761,0
				c0.255-1.011,0.485-1.928,0.717-2.844c0.084-0.013,0.169-0.025,0.252-0.038C45.062,14.688,45.316,15.611,45.6,16.646z"/>
		</g>
	</g>
	<g>
		<g>
			<path d="M5.05,19.221H4.763c-1.069,0-1.94-0.871-1.94-1.941v-2.24c0-1.07,0.871-1.941,1.94-1.941H5.05
				c1.07,0,1.941,0.871,1.941,1.941v2.24C6.992,18.351,6.121,19.221,5.05,19.221z M4.763,14.281c-0.418,0-0.758,0.341-0.758,0.759
				v2.24c0,0.418,0.34,0.759,0.758,0.759H5.05c0.418,0,0.759-0.34,0.759-0.759v-2.24c0-0.418-0.341-0.759-0.759-0.759H4.763z"/>
		</g>
		<g>
			<path d="M9.046,27.725H8.759c-1.071,0-1.94-0.87-1.94-1.941v-2.24c0-1.07,0.87-1.941,1.94-1.941h0.287
				c1.07,0,1.941,0.871,1.941,1.941v2.24C10.987,26.854,10.117,27.725,9.046,27.725z M8.759,22.784C8.341,22.784,8,23.125,8,23.543
				v2.24c0,0.42,0.341,0.76,0.759,0.76h0.287c0.419,0,0.759-0.34,0.759-0.76v-2.24c0-0.419-0.34-0.759-0.759-0.759H8.759z"/>
		</g>
		<g>
			<path d="M10.352,19.086c-0.327,0-0.591-0.264-0.591-0.591V13.44c0-0.327,0.265-0.591,0.591-0.591
				c0.326,0,0.591,0.264,0.591,0.591v5.055C10.943,18.822,10.678,19.086,10.352,19.086z"/>
		</g>
		<g>
			<path d="M3.537,28.027c-0.326,0-0.59-0.265-0.59-0.591v-5.056c0-0.326,0.264-0.591,0.59-0.591s0.591,0.265,0.591,0.591v5.056
				C4.127,27.763,3.863,28.027,3.537,28.027z"/>
		</g>
		<g>
			<path d="M23.996,27.725h-0.287c-1.07,0-1.941-0.87-1.941-1.941v-2.24c0-1.07,0.871-1.941,1.941-1.941h0.287
				c1.07,0,1.94,0.871,1.94,1.941v2.24C25.936,26.854,25.066,27.725,23.996,27.725z M23.708,22.784c-0.418,0-0.759,0.34-0.759,0.759
				v2.24c0,0.42,0.341,0.76,0.759,0.76h0.287c0.418,0,0.759-0.34,0.759-0.76v-2.24c0-0.419-0.34-0.759-0.759-0.759H23.708z"/>
		</g>
		<g>
			<path d="M17.917,28.027c-0.326,0-0.591-0.265-0.591-0.591v-5.056c0-0.326,0.265-0.591,0.591-0.591
				c0.327,0,0.591,0.265,0.591,0.591v5.056C18.508,27.763,18.244,28.027,17.917,28.027z"/>
		</g>
		<g>
			<path d="M34.557,27.725h-0.288c-1.07,0-1.94-0.87-1.94-1.941v-2.24c0-1.07,0.87-1.941,1.94-1.941h0.288
				c1.071,0,1.941,0.871,1.941,1.941v2.24C36.498,26.854,35.627,27.725,34.557,27.725z M34.269,22.784
				c-0.418,0-0.758,0.34-0.758,0.759v2.24c0,0.42,0.34,0.76,0.758,0.76h0.288c0.418,0,0.76-0.34,0.76-0.76v-2.24
				c0-0.419-0.341-0.759-0.76-0.759H34.269z"/>
		</g>
		<g>
			<path d="M39.676,28.027c-0.326,0-0.591-0.265-0.591-0.591v-5.056c0-0.326,0.265-0.591,0.591-0.591
				c0.326,0,0.591,0.265,0.591,0.591v5.056C40.267,27.763,40.001,28.027,39.676,28.027z"/>
		</g>
		<g>
			<path d="M14.438,16.532c-0.327,0-0.591-0.264-0.591-0.591V15.04c0-1.07,0.87-1.941,1.94-1.941h0.288
				c1.07,0,1.941,0.871,1.941,1.941v0.775c0,0.327-0.265,0.591-0.591,0.591c-0.326,0-0.591-0.265-0.591-0.591V15.04
				c0-0.418-0.34-0.759-0.759-0.759h-0.288c-0.418,0-0.759,0.341-0.759,0.759v0.901C15.028,16.268,14.764,16.532,14.438,16.532z"/>
		</g>
		<g>
			<path d="M21.376,16.282c-0.326,0-0.591-0.265-0.591-0.592v-2.25c0-0.327,0.265-0.591,0.591-0.591
				c0.327,0,0.592,0.264,0.592,0.591v2.25C21.968,16.018,21.703,16.282,21.376,16.282z"/>
		</g>
		<g>
			<path d="M25.462,16.407c-0.327,0-0.591-0.265-0.591-0.591V15.04c0-1.07,0.871-1.941,1.941-1.941H27.1
				c1.07,0,1.94,0.871,1.94,1.941v0.713c0,0.327-0.265,0.591-0.59,0.591c-0.327,0-0.591-0.264-0.591-0.591V15.04
				c0-0.418-0.341-0.759-0.759-0.759h-0.288c-0.418,0-0.759,0.341-0.759,0.759v0.775C26.053,16.142,25.789,16.407,25.462,16.407z"/>
		</g>
		<g>
			<path d="M32.401,19.086c-0.326,0-0.591-0.264-0.591-0.591V13.44c0-0.327,0.265-0.591,0.591-0.591c0.325,0,0.59,0.264,0.59,0.591
				v5.055C32.992,18.822,32.727,19.086,32.401,19.086z"/>
		</g>
		<g>
			<path d="M38.125,19.221h-0.287c-1.071,0-1.942-0.871-1.942-1.941v-2.24c0-1.07,0.871-1.941,1.942-1.941h0.287
				c1.07,0,1.94,0.871,1.94,1.941v2.24C40.064,18.351,39.194,19.221,38.125,19.221z M37.838,14.281c-0.419,0-0.76,0.341-0.76,0.759
				v2.24c0,0.418,0.341,0.759,0.76,0.759h0.287c0.417,0,0.758-0.34,0.758-0.759v-2.24c0-0.418-0.34-0.759-0.758-0.759H37.838z"/>
		</g>
		<g>
			<path d="M5.05,36.728H4.763c-1.069,0-1.94-0.87-1.94-1.94v-2.241c0-1.069,0.871-1.939,1.94-1.939H5.05
				c1.07,0,1.941,0.87,1.941,1.939v2.241C6.992,35.857,6.121,36.728,5.05,36.728z M4.763,31.788c-0.418,0-0.758,0.341-0.758,0.758
				v2.241c0,0.418,0.34,0.758,0.758,0.758H5.05c0.418,0,0.759-0.34,0.759-0.758v-2.241c0-0.417-0.341-0.758-0.759-0.758H4.763z"/>
		</g>
		<g>
			<path d="M10.352,36.593c-0.327,0-0.591-0.265-0.591-0.591v-5.056c0-0.326,0.265-0.59,0.591-0.59c0.326,0,0.591,0.264,0.591,0.59
				v5.056C10.943,36.328,10.678,36.593,10.352,36.593z"/>
		</g>
		<g>
			<path d="M19.826,36.728h-0.287c-1.07,0-1.94-0.87-1.94-1.94c0-0.326,0.264-0.591,0.59-0.591c0.327,0,0.591,0.265,0.591,0.591
				c0,0.418,0.341,0.758,0.759,0.758h0.287c0.419,0,0.759-0.34,0.759-0.758c0-0.326,0.265-0.591,0.591-0.591
				c0.326,0,0.59,0.265,0.59,0.591C21.767,35.857,20.897,36.728,19.826,36.728z"/>
		</g>
		<g>
			<path d="M14.424,36.593c-0.327,0-0.591-0.265-0.591-0.591v-3.304c0-0.327,0.264-0.593,0.591-0.593
				c0.326,0,0.591,0.266,0.591,0.593v3.304C15.015,36.328,14.75,36.593,14.424,36.593z"/>
		</g>
		<g>
			<path d="M27.1,36.728h-0.288c-1.07,0-1.941-0.87-1.941-1.94c0-0.326,0.265-0.591,0.591-0.591c0.326,0,0.591,0.265,0.591,0.591
				c0,0.418,0.341,0.758,0.759,0.758H27.1c0.418,0,0.759-0.34,0.759-0.758c0-0.326,0.264-0.591,0.591-0.591
				c0.326,0,0.59,0.265,0.59,0.591C29.04,35.857,28.17,36.728,27.1,36.728z"/>
		</g>
		<g>
			<path d="M32.401,36.593c-0.326,0-0.591-0.265-0.591-0.591v-3.055c0-0.327,0.265-0.591,0.591-0.591c0.325,0,0.59,0.264,0.59,0.591
				v3.055C32.992,36.328,32.727,36.593,32.401,36.593z"/>
		</g>
		<g>
			<path d="M38.125,36.728h-0.287c-1.071,0-1.942-0.87-1.942-1.94v-2.241c0-1.069,0.871-1.939,1.942-1.939h0.287
				c1.07,0,1.94,0.87,1.94,1.939v2.241C40.064,35.857,39.194,36.728,38.125,36.728z M37.838,31.788c-0.419,0-0.76,0.341-0.76,0.758
				v2.241c0,0.418,0.341,0.758,0.76,0.758h0.287c0.417,0,0.758-0.34,0.758-0.758v-2.241c0-0.417-0.34-0.758-0.758-0.758H37.838z"/>
		</g>
		<g>
			<path d="M21.302,32.851c-4.395,0-7.969-3.574-7.969-7.968c0-4.395,3.575-7.969,7.969-7.969c4.394,0,7.969,3.574,7.969,7.969
				C29.271,29.276,25.696,32.851,21.302,32.851z M21.302,18.095c-3.743,0-6.787,3.045-6.787,6.788c0,3.741,3.044,6.786,6.787,6.786
				c3.742,0,6.787-3.045,6.787-6.786C28.088,21.14,25.044,18.095,21.302,18.095z"/>
		</g>
		<g>
			<path d="M30.68,35.038c-0.145,0-0.29-0.053-0.405-0.16l-4.126-3.877c-0.238-0.224-0.25-0.598-0.026-0.834
				c0.224-0.238,0.599-0.25,0.836-0.025l4.126,3.876c0.239,0.222,0.25,0.597,0.027,0.834C30.994,34.977,30.838,35.038,30.68,35.038z
				"/>
		</g>
	</g>
	<g>
		<path d="M43.494,13.549h2.24v6.459h3.496v2.11h-5.736V13.549z"/>
		<path d="M51.949,17.922l-1.923-0.24c0.073-0.397,0.177-0.71,0.314-0.938c0.137-0.228,0.334-0.426,0.591-0.594
			c0.184-0.121,0.438-0.214,0.761-0.28c0.323-0.066,0.673-0.1,1.049-0.1c0.603,0,1.088,0.04,1.453,0.12
			c0.366,0.08,0.671,0.246,0.915,0.5c0.171,0.175,0.307,0.424,0.405,0.746c0.099,0.321,0.148,0.628,0.148,0.92v2.742
			c0,0.292,0.016,0.521,0.047,0.687s0.1,0.377,0.205,0.634h-1.889c-0.076-0.16-0.125-0.282-0.148-0.365
			c-0.023-0.084-0.046-0.215-0.069-0.395c-0.264,0.3-0.525,0.514-0.786,0.643c-0.355,0.171-0.77,0.257-1.241,0.257
			c-0.626,0-1.102-0.171-1.426-0.514s-0.487-0.766-0.487-1.269c0-0.472,0.117-0.859,0.351-1.164c0.234-0.304,0.666-0.53,1.296-0.678
			c0.755-0.179,1.244-0.305,1.469-0.377c0.224-0.072,0.461-0.167,0.712-0.283c0-0.292-0.052-0.497-0.153-0.614
			c-0.103-0.117-0.282-0.176-0.539-0.176c-0.33,0-0.577,0.063-0.742,0.188C52.133,17.47,52.028,17.653,51.949,17.922z
			 M53.695,19.173c-0.277,0.117-0.565,0.22-0.865,0.31c-0.409,0.128-0.668,0.255-0.776,0.38c-0.112,0.128-0.168,0.274-0.168,0.438
			c0,0.187,0.055,0.34,0.165,0.458c0.11,0.119,0.272,0.179,0.487,0.179c0.224,0,0.433-0.064,0.625-0.193
			c0.193-0.129,0.33-0.286,0.411-0.471c0.08-0.185,0.121-0.426,0.121-0.722V19.173z"/>
		<path d="M56.89,15.911h1.884v1.018c0.182-0.44,0.369-0.744,0.562-0.909s0.431-0.249,0.715-0.249c0.296,0,0.621,0.109,0.974,0.328
			L60.4,17.793c-0.237-0.117-0.425-0.176-0.563-0.176c-0.264,0-0.468,0.129-0.613,0.386c-0.208,0.362-0.312,1.041-0.312,2.034v2.081
			H56.89V15.911z"/>
		<path d="M65.271,15.911h1.884v5.864l0.005,0.274c0,0.39-0.07,0.761-0.21,1.114c-0.141,0.353-0.326,0.638-0.559,0.856
			s-0.527,0.376-0.886,0.474c-0.357,0.097-0.767,0.146-1.229,0.146c-1.055,0-1.779-0.187-2.173-0.561
			c-0.395-0.375-0.592-0.875-0.592-1.502c0-0.078,0.004-0.183,0.011-0.316l1.953,0.263c0.049,0.214,0.125,0.362,0.228,0.444
			c0.148,0.121,0.334,0.181,0.559,0.181c0.29,0,0.507-0.092,0.65-0.275c0.143-0.183,0.215-0.502,0.215-0.958v-0.941
			c-0.198,0.277-0.396,0.478-0.594,0.603c-0.31,0.195-0.645,0.292-1.004,0.292c-0.702,0-1.269-0.362-1.7-1.087
			c-0.307-0.514-0.46-1.194-0.46-2.04c0-0.966,0.197-1.703,0.593-2.209c0.396-0.507,0.913-0.76,1.553-0.76
			c0.409,0,0.746,0.082,1.012,0.246c0.265,0.164,0.513,0.435,0.744,0.813V15.911z M63.376,18.921c0,0.448,0.081,0.78,0.243,0.997
			c0.161,0.216,0.374,0.325,0.638,0.325c0.25,0,0.46-0.112,0.63-0.336s0.255-0.563,0.255-1.015c0-0.452-0.089-0.798-0.267-1.038
			c-0.179-0.24-0.396-0.359-0.653-0.359c-0.257,0-0.462,0.11-0.615,0.33C63.453,18.045,63.376,18.411,63.376,18.921z"/>
		<path d="M74.201,19.605h-4.035c0.036,0.382,0.123,0.667,0.262,0.854c0.194,0.269,0.448,0.403,0.762,0.403
			c0.198,0,0.386-0.059,0.563-0.175c0.109-0.074,0.226-0.205,0.352-0.392l1.982,0.216c-0.303,0.624-0.669,1.071-1.098,1.341
			c-0.429,0.271-1.043,0.406-1.845,0.406c-0.695,0-1.242-0.116-1.642-0.348c-0.398-0.232-0.729-0.6-0.991-1.105
			c-0.262-0.504-0.393-1.098-0.393-1.78c0-0.971,0.263-1.756,0.788-2.356c0.526-0.6,1.252-0.9,2.179-0.9
			c0.751,0,1.345,0.135,1.78,0.403c0.435,0.269,0.766,0.659,0.993,1.169c0.228,0.51,0.342,1.175,0.342,1.993V19.605z M72.153,18.465
			c-0.039-0.459-0.144-0.789-0.313-0.988s-0.394-0.298-0.67-0.298c-0.32,0-0.575,0.15-0.767,0.45
			c-0.122,0.187-0.199,0.466-0.232,0.836H72.153z"/>
		<path d="M74.77,20.395l1.998-0.222c0.082,0.281,0.197,0.481,0.346,0.602c0.148,0.121,0.347,0.182,0.594,0.182
			c0.271,0,0.479-0.068,0.628-0.205c0.115-0.101,0.173-0.228,0.173-0.379c0-0.171-0.075-0.303-0.228-0.397
			c-0.108-0.066-0.396-0.147-0.865-0.245c-0.698-0.144-1.184-0.277-1.456-0.4c-0.271-0.123-0.501-0.33-0.688-0.622
			s-0.279-0.625-0.279-0.999c0-0.409,0.101-0.761,0.302-1.057s0.478-0.517,0.831-0.663c0.353-0.146,0.825-0.219,1.419-0.219
			c0.626,0,1.089,0.057,1.387,0.169c0.299,0.113,0.548,0.289,0.747,0.526s0.365,0.559,0.497,0.964l-1.909,0.222
			c-0.049-0.199-0.132-0.345-0.247-0.438c-0.158-0.125-0.35-0.187-0.573-0.187c-0.228,0-0.394,0.048-0.497,0.143
			c-0.104,0.095-0.156,0.211-0.156,0.347c0,0.152,0.066,0.267,0.198,0.345c0.132,0.078,0.418,0.147,0.86,0.21
			c0.669,0.089,1.167,0.214,1.493,0.374c0.326,0.159,0.576,0.387,0.749,0.683s0.26,0.621,0.26,0.975
			c0,0.358-0.092,0.707-0.274,1.045s-0.472,0.608-0.865,0.809c-0.395,0.2-0.931,0.3-1.609,0.3c-0.96,0-1.643-0.162-2.05-0.485
			C75.146,21.451,74.885,20.991,74.77,20.395z"/>
		<path d="M83.739,13.549v2.361h1.107v1.742h-1.107v2.2c0,0.265,0.021,0.439,0.064,0.525c0.065,0.132,0.181,0.198,0.346,0.198
			c0.148,0,0.356-0.05,0.623-0.151l0.148,1.642c-0.498,0.129-0.963,0.193-1.395,0.193c-0.501,0-0.87-0.076-1.107-0.228
			s-0.413-0.382-0.526-0.692c-0.114-0.31-0.171-0.811-0.171-1.503v-2.184H80.98v-1.742h0.741v-1.14L83.739,13.549z"/>
		<path d="M48.32,32.978l1.963,0.702c-0.132,0.65-0.339,1.194-0.623,1.631c-0.283,0.437-0.635,0.766-1.056,0.987
			c-0.42,0.223-0.955,0.334-1.604,0.334c-0.788,0-1.432-0.136-1.931-0.406c-0.5-0.271-0.931-0.747-1.293-1.429
			c-0.362-0.682-0.544-1.554-0.544-2.617c0-1.417,0.319-2.507,0.957-3.269c0.638-0.761,1.54-1.142,2.707-1.142
			c0.913,0,1.631,0.218,2.154,0.654s0.911,1.107,1.165,2.011l-1.978,0.521c-0.069-0.261-0.142-0.452-0.218-0.573
			c-0.125-0.202-0.278-0.358-0.46-0.467c-0.181-0.109-0.384-0.164-0.608-0.164c-0.508,0-0.897,0.241-1.167,0.724
			c-0.205,0.358-0.307,0.921-0.307,1.688c0,0.95,0.122,1.602,0.366,1.953c0.244,0.353,0.587,0.528,1.029,0.528
			c0.428,0,0.752-0.142,0.972-0.427C48.062,33.933,48.221,33.52,48.32,32.978z"/>
		<path d="M50.99,33.398c0-0.946,0.27-1.728,0.811-2.341c0.541-0.614,1.271-0.921,2.19-0.921c1.052,0,1.847,0.36,2.384,1.082
			c0.432,0.58,0.647,1.295,0.647,2.145c0,0.955-0.268,1.737-0.804,2.348c-0.535,0.609-1.276,0.915-2.223,0.915
			c-0.844,0-1.526-0.254-2.047-0.761C51.31,35.238,50.99,34.416,50.99,33.398z M53.008,33.393c0,0.554,0.095,0.963,0.284,1.228
			c0.189,0.266,0.428,0.397,0.714,0.397c0.29,0,0.528-0.13,0.715-0.392C54.907,34.365,55,33.946,55,33.369
			c0-0.537-0.094-0.938-0.281-1.201c-0.188-0.263-0.421-0.395-0.697-0.395c-0.294,0-0.536,0.134-0.728,0.4
			C53.103,32.441,53.008,32.848,53.008,33.393z"/>
		<path d="M58.062,27.915h2.018v8.57h-2.018V27.915z"/>
		<path d="M61.434,27.915h2.018v8.57h-2.018V27.915z"/>
		<path d="M70.567,33.972h-4.035c0.036,0.382,0.123,0.666,0.262,0.854c0.194,0.269,0.448,0.403,0.762,0.403
			c0.198,0,0.386-0.059,0.563-0.176c0.109-0.073,0.226-0.204,0.352-0.392l1.982,0.217c-0.303,0.623-0.669,1.07-1.098,1.342
			c-0.429,0.271-1.043,0.406-1.845,0.406c-0.695,0-1.242-0.116-1.642-0.349c-0.398-0.231-0.729-0.6-0.991-1.104
			s-0.393-1.098-0.393-1.78c0-0.97,0.263-1.755,0.788-2.355c0.526-0.601,1.252-0.9,2.179-0.9c0.751,0,1.345,0.135,1.78,0.403
			c0.435,0.269,0.766,0.659,0.993,1.169c0.228,0.511,0.342,1.176,0.342,1.994V33.972z M68.52,32.832
			c-0.039-0.46-0.144-0.789-0.313-0.988s-0.394-0.298-0.67-0.298c-0.32,0-0.575,0.149-0.767,0.45
			c-0.122,0.187-0.199,0.466-0.232,0.836H68.52z"/>
		<path d="M75.407,34.054l1.914,0.257c-0.105,0.472-0.279,0.88-0.52,1.225s-0.548,0.613-0.922,0.804
			c-0.374,0.191-0.85,0.287-1.427,0.287c-0.558,0-1.021-0.062-1.393-0.185c-0.37-0.122-0.689-0.321-0.956-0.596
			c-0.268-0.274-0.477-0.597-0.628-0.966c-0.152-0.37-0.228-0.861-0.228-1.473c0-0.639,0.092-1.17,0.276-1.594
			c0.136-0.312,0.32-0.591,0.554-0.839c0.234-0.247,0.475-0.431,0.723-0.552c0.392-0.19,0.895-0.286,1.508-0.286
			c0.857,0,1.511,0.182,1.961,0.544c0.449,0.362,0.766,0.893,0.946,1.59l-1.894,0.298c-0.06-0.265-0.167-0.465-0.324-0.599
			c-0.156-0.135-0.366-0.202-0.63-0.202c-0.333,0-0.603,0.142-0.809,0.423c-0.206,0.282-0.31,0.709-0.31,1.281
			c0,0.51,0.103,0.896,0.307,1.161c0.205,0.265,0.465,0.396,0.781,0.396c0.264,0,0.485-0.079,0.665-0.239
			S75.318,34.385,75.407,34.054z"/>
		<path d="M80.674,27.915v2.362h1.107v1.742h-1.107v2.199c0,0.265,0.021,0.439,0.064,0.525c0.065,0.132,0.181,0.198,0.346,0.198
			c0.148,0,0.356-0.051,0.623-0.152l0.148,1.643c-0.498,0.129-0.963,0.193-1.395,0.193c-0.501,0-0.87-0.076-1.107-0.229
			c-0.237-0.151-0.413-0.382-0.526-0.691c-0.114-0.31-0.171-0.811-0.171-1.503V32.02h-0.741v-1.742h0.741v-1.141L80.674,27.915z"/>
		<path d="M82.815,27.915h2.013v1.62h-2.013V27.915z M82.815,30.277h2.013v6.208h-2.013V30.277z"/>
		<path d="M85.866,33.398c0-0.946,0.27-1.728,0.811-2.341c0.541-0.614,1.271-0.921,2.19-0.921c1.052,0,1.847,0.36,2.384,1.082
			c0.432,0.58,0.647,1.295,0.647,2.145c0,0.955-0.268,1.737-0.804,2.348c-0.535,0.609-1.276,0.915-2.223,0.915
			c-0.844,0-1.526-0.254-2.047-0.761C86.186,35.238,85.866,34.416,85.866,33.398z M87.884,33.393c0,0.554,0.095,0.963,0.284,1.228
			c0.189,0.266,0.428,0.397,0.714,0.397c0.29,0,0.528-0.13,0.715-0.392c0.187-0.261,0.279-0.68,0.279-1.257
			c0-0.537-0.094-0.938-0.281-1.201c-0.188-0.263-0.421-0.395-0.697-0.395c-0.294,0-0.536,0.134-0.728,0.4
			C87.979,32.441,87.884,32.848,87.884,33.393z"/>
		<path d="M92.868,30.277h1.874v1.011c0.28-0.413,0.563-0.708,0.851-0.886c0.286-0.177,0.636-0.266,1.048-0.266
			c0.558,0,0.993,0.196,1.309,0.588c0.314,0.392,0.472,0.996,0.472,1.814v3.946h-2.022v-3.414c0-0.39-0.061-0.665-0.183-0.827
			c-0.122-0.161-0.294-0.242-0.515-0.242c-0.244,0-0.441,0.108-0.593,0.327c-0.152,0.218-0.228,0.609-0.228,1.175v2.981h-2.013
			V30.277z"/>
	</g>
</g>
</svg>
