<svg xmlns="http://www.w3.org/2000/svg" width="100" height="50"><path fill="#fff" d="M0 0h100v50H0z"/><g><path fill="#6A6B6B" d="M35.1 30.47V27.9c0-2.94 2.38-5.33 5.32-5.33 2.94 0 5.34 2.4 5.34 5.33v2.57h1.88V27.9c0-3.98-3.24-7.2-7.22-7.2s-7.2 3.22-7.2 7.2v2.57h1.87z"/><path fill="#333" d="M40.42 20.7v1.87c2.94 0 5.34 2.4 5.34 5.33v2.57h1.88V27.9c0-3.98-3.24-7.2-7.22-7.2z"/><path fill="#71C2A0" d="M32.55 29.4v3.17c0 4.38 3.54 7.96 7.88 7.96 4.33 0 7.87-3.58 7.87-7.96V29.4H32.55z"/><path fill="#64AF89" d="M40.42 29.4v11.13c4.34 0 7.88-3.6 7.88-7.96V29.4h-7.88z"/><path fill="#fff" d="M43.52 31.47l-4.1 4.1-2.1-2.12-.18.2-1 1 3.3 3.3 1.2-1.2 4.08-4.08z"/><path fill="#3A3A3A" d="M5.34 23.7H17.3c.17 0 .3-.15.3-.32v-2.7c0-.18-.13-.32-.3-.32H5.34c-.18 0-.32.14-.32.32v2.7c0 .17.14.32.32.32zM5.34 26.45h15.6c.18 0 .32-.15.32-.32v-.05c0-.18-.14-.32-.3-.32H5.33c-.18 0-.32.15-.32.32v.05c0 .18.14.32.32.32zM5.34 28.62H15.6c.18 0 .33-.15.33-.32v-.05c0-.18-.15-.32-.32-.32H5.35c-.18 0-.32.14-.32.32v.05c0 .18.14.32.32.32zM32.44 33.13v-.74H5.14c-.84 0-1.53-.7-1.53-1.52V18.83h37.23v1.8c.3-.02.58-.03.88-.03.13 0 .24 0 .36 0V12.5c0-1.5-1.25-2.72-2.77-2.72H5.13c-1.52 0-2.76 1.22-2.76 2.7v18.4c0 1.5 1.24 2.7 2.76 2.7h27.3c0-.14 0-.3 0-.45zM3.6 12.5c0-.84.7-1.5 1.54-1.5H39.3c.84 0 1.53.66 1.53 1.5v1.62H3.6V12.5z"/><g fill="#1B1C1C" enable-background="new"><path d="M52.1 12.74c.5.25 1.25.5 2.03.5.84 0 1.28-.34 1.28-.87 0-.5-.37-.8-1.34-1.14-1.35-.47-2.22-1.2-2.22-2.4 0-1.37 1.15-2.42 3.06-2.42.9 0 1.58.2 2.06.42l-.4 1.47c-.33-.16-.9-.4-1.7-.4s-1.17.37-1.17.8c0 .5.44.73 1.5 1.13 1.4.52 2.1 1.27 2.1 2.4 0 1.36-1.06 2.5-3.28 2.5-.92 0-1.83-.23-2.3-.48l.38-1.5zM61.9 14.63l-.1-.6h-.05c-.4.48-.98.73-1.68.73-1.2 0-1.9-.87-1.9-1.8 0-1.52 1.37-2.26 3.45-2.24v-.1c0-.3-.17-.74-1.07-.74-.6 0-1.24.2-1.62.44l-.34-1.18c.4-.22 1.2-.5 2.27-.5 1.96 0 2.58 1.14 2.58 2.52v2.04c0 .56.02 1.1.1 1.42h-1.66zm-.22-2.78c-.96 0-1.7.22-1.7.93 0 .47.3.7.7.7.47 0 .84-.3.96-.68.02-.1.04-.2.04-.3v-.65zM65.1 14.63V10.1h-.77V8.76h.77v-.23c0-.7.22-1.48.74-1.96.46-.44 1.1-.6 1.62-.6.4 0 .72.05.97.13l-.07 1.4c-.16-.05-.35-.08-.6-.08-.6 0-.84.46-.84 1.04v.3h1.17v1.34h-1.17v4.52H65.1zM70.27 12.27c.06.76.8 1.12 1.65 1.12.63 0 1.13-.1 1.62-.25l.24 1.23c-.6.24-1.33.36-2.12.36-2 0-3.13-1.15-3.13-2.98 0-1.5.92-3.13 2.96-3.13 1.9 0 2.6 1.47 2.6 2.92 0 .32-.03.6-.06.72h-3.77zm2.15-1.24c0-.45-.2-1.2-1.04-1.2-.76 0-1.07.7-1.12 1.2h2.16zM82.83 14.63c-.17-.2-.34-.36-.53-.58-.52.4-1.26.7-2.22.7-1.95 0-2.8-1.16-2.8-2.28 0-1.07.6-1.84 1.52-2.32v-.05c-.35-.38-.6-.98-.6-1.56 0-1.02.8-2.13 2.4-2.13 1.26 0 2.2.74 2.2 1.9 0 .82-.47 1.52-1.6 2.08v.05c.47.5.96 1.1 1.35 1.5.33-.5.58-1.24.7-1.96h1.62c-.22 1.23-.62 2.27-1.35 3.07.46.52.93 1.04 1.43 1.58h-2.12zm-1.38-1.6c-.5-.5-1.16-1.24-1.82-1.98-.34.24-.64.6-.64 1.12 0 .68.5 1.27 1.34 1.27.47 0 .87-.18 1.1-.4zm-1.63-4.65c0 .4.2.76.55 1.16.6-.4.9-.72.9-1.2 0-.37-.24-.8-.72-.8-.47 0-.73.42-.73.84z"/></g><g fill="#1B1C1C" enable-background="new"><path d="M52.1 27.14c.5.26 1.25.5 2.03.5.84 0 1.28-.34 1.28-.87 0-.5-.37-.8-1.34-1.14-1.35-.47-2.22-1.2-2.22-2.4 0-1.37 1.15-2.42 3.06-2.42.9 0 1.58.2 2.06.42l-.4 1.47c-.33-.16-.9-.4-1.7-.4s-1.17.37-1.17.8c0 .5.44.73 1.5 1.13 1.4.53 2.1 1.27 2.1 2.4 0 1.36-1.06 2.52-3.28 2.52-.92 0-1.83-.24-2.3-.5l.38-1.5zM59.95 26.68c.06.75.8 1.1 1.65 1.1.63 0 1.13-.07 1.62-.23l.24 1.24c-.6.22-1.33.34-2.12.34-2 0-3.13-1.15-3.13-2.98 0-1.5.93-3.13 2.97-3.13 1.9 0 2.6 1.47 2.6 2.92 0 .32-.02.6-.05.72h-3.77zm2.15-1.25c0-.45-.2-1.2-1.04-1.2-.76 0-1.08.7-1.12 1.2h2.16zM69.28 28.88c-.32.15-.93.27-1.63.27-1.9 0-3.1-1.15-3.1-3 0-1.72 1.17-3.12 3.35-3.12.48 0 1 .08 1.4.23L69 24.6c-.2-.08-.53-.17-1-.17-.97 0-1.6.7-1.58 1.65 0 1.08.72 1.64 1.6 1.64.44 0 .77-.07 1.05-.18l.2 1.34zM75.82 27.14c0 .77.03 1.4.05 1.9H74.3l-.1-.84h-.03c-.23.36-.78.96-1.84.96-1.2 0-2.06-.74-2.06-2.56v-3.44h1.83v3.15c0 .87.28 1.38.92 1.38.5 0 .8-.35.9-.63.05-.1.07-.26.07-.4v-3.5h1.82v4zM77.3 25.1c0-.87-.03-1.44-.06-1.94h1.57l.07 1.08h.05c.3-.85 1.02-1.2 1.58-1.2.17 0 .26 0 .4 0v1.73c-.14-.03-.3-.05-.5-.05-.68 0-1.13.36-1.25.92-.02.12-.04.27-.04.4v3h-1.8v-3.95zM83.16 26.68c.06.75.8 1.1 1.65 1.1.64 0 1.14-.07 1.63-.23l.24 1.24c-.6.22-1.33.34-2.12.34-2 0-3.13-1.15-3.13-2.98 0-1.5.92-3.13 2.96-3.13 1.9 0 2.6 1.47 2.6 2.92 0 .32-.02.6-.05.72h-3.77zm2.14-1.25c0-.45-.2-1.2-1.03-1.2-.77 0-1.08.7-1.13 1.2h2.16z"/></g><g fill="#1B1C1C" enable-background="new"><path d="M52.04 35.45c.56-.1 1.36-.17 2.47-.17 1.14 0 1.94.22 2.48.65.52.4.87 1.08.87 1.87 0 .8-.27 1.46-.75 1.92-.62.6-1.54.85-2.62.85-.24 0-.46 0-.63-.04v2.9h-1.8v-7.98zm1.8 3.67c.17.04.36.05.62.05.98 0 1.57-.5 1.57-1.32 0-.74-.5-1.2-1.42-1.2-.36 0-.62.04-.75.08v2.4zM62.07 43.42l-.1-.58h-.04c-.4.46-.98.72-1.68.72-1.2 0-1.9-.87-1.9-1.8 0-1.53 1.37-2.26 3.44-2.24v-.1c0-.3-.17-.74-1.07-.74-.6 0-1.24.2-1.62.44l-.33-1.18c.4-.23 1.2-.5 2.28-.5 1.96 0 2.58 1.14 2.58 2.52V42c0 .56.02 1.1.08 1.42h-1.63zm-.22-2.77c-.95 0-1.7.22-1.7.93 0 .47.3.7.72.7.46 0 .83-.3.95-.68.02-.1.03-.2.03-.3v-.65zM66.3 37.56l.87 2.88c.1.35.22.78.3 1.1h.03c.08-.32.18-.76.26-1.1l.72-2.88h1.96l-1.37 3.86c-.84 2.33-1.4 3.27-2.06 3.85-.63.55-1.3.75-1.76.8l-.38-1.54c.23-.04.5-.15.8-.3.26-.16.56-.45.74-.74.07-.1.1-.2.1-.28 0-.06 0-.15-.08-.3l-2.15-5.36h2.03zM71.2 39.43c0-.73-.02-1.35-.04-1.87h1.53l.08.8h.03c.26-.38.78-.93 1.8-.93.74 0 1.34.38 1.6 1 .23-.3.5-.55.77-.7.32-.2.7-.3 1.12-.3 1.1 0 1.96.8 1.96 2.54v3.46H78.3v-3.2c0-.85-.28-1.34-.87-1.34-.42 0-.72.28-.84.63-.06.13-.08.32-.08.47v3.43h-1.78v-3.3c0-.73-.26-1.24-.84-1.24-.47 0-.74.35-.85.65-.06.15-.07.32-.07.46v3.43H71.2v-4zM82.93 41.07c.06.76.8 1.12 1.65 1.12.63 0 1.13-.1 1.62-.25l.24 1.23c-.6.24-1.33.36-2.12.36-2 0-3.13-1.15-3.13-2.98 0-1.5.9-3.13 2.95-3.13 1.9 0 2.6 1.47 2.6 2.92 0 .32-.02.6-.05.72h-3.77zm2.15-1.24c0-.45-.2-1.2-1.04-1.2-.77 0-1.08.7-1.12 1.2h2.16zM87.86 39.43c0-.73-.02-1.35-.05-1.87h1.6l.08.8h.04c.23-.37.84-.93 1.8-.93 1.2 0 2.1.8 2.1 2.52v3.48H91.6v-3.25c0-.76-.26-1.27-.92-1.27-.5 0-.8.35-.92.7-.05.1-.07.28-.07.45v3.38h-1.84v-4zM96.86 35.88v1.68h1.3v1.34h-1.3v2.13c0 .7.17 1.03.72 1.03.23 0 .4-.03.54-.05v1.4c-.23.08-.66.14-1.18.14-.58 0-1.07-.2-1.36-.5-.34-.35-.5-.9-.5-1.74v-2.4h-.8v-1.34h.8V36.3l1.78-.42z"/></g></g></svg>