<svg xmlns="http://www.w3.org/2000/svg" width="100" height="50"><g><path fill="#fff" d="M0 0h100v50H0z"/><path fill="#71C2A0" d="M42.23 39.72c-2.98 2.98-16.85 7.96-16.85 7.96S11.5 42.7 8.53 39.72C.78 31.97 9.58 3.8 9.58 3.8s9.74-1.47 15.8-1.47c5.7 0 15.8 1.46 15.8 1.46s8.8 28.17 1.05 35.92z"/><path fill="none" stroke="#fff" stroke-width="2.5" stroke-miterlimit="10" d="M25.38 43.48c-4.75-1.74-12.22-4.85-13.88-6.52-2.4-2.38-2.97-8.48-1.63-17.2.76-5 1.98-9.64 2.62-11.9 4.7-.9 10.06-1.27 12.88-1.27 2.82 0 8.38.34 12.9 1.26.64 2.26 1.85 6.9 2.62 11.9 1.33 8.72.75 14.82-1.63 17.2-1.67 1.67-9.14 4.78-13.9 6.52z"/><g fill="#fff"><path d="M15.36 30.3h.58v2c.1-.17.25-.3.43-.4.17-.1.37-.18.6-.18.42 0 1.1.27 1.1 1.37V35h-.58v-1.84c0-.52-.2-.95-.75-.95-.37 0-.67.27-.77.6-.04.07-.04.15-.04.26V35h-.58v-4.7zM19.7 30.88v.92h.82v.44h-.83v1.72c0 .4.1.62.43.62.15 0 .26-.02.33-.04l.03.44c-.12.05-.3.08-.53.08-.27 0-.48-.1-.62-.25-.17-.16-.23-.44-.23-.82v-1.74h-.5v-.44h.5v-.77l.57-.15zM21.87 30.88v.92h.84v.44h-.83v1.72c0 .4.12.62.44.62.16 0 .27-.02.35-.04l.02.44c-.1.05-.3.08-.5.08-.28 0-.5-.1-.64-.25-.16-.16-.22-.44-.22-.82v-1.74h-.5v-.44h.5v-.77l.57-.15zM23.36 32.84c0-.4 0-.74-.03-1.04h.52l.03.55c.25-.4.63-.63 1.15-.63.77 0 1.35.66 1.35 1.63 0 1.15-.7 1.7-1.45 1.7-.42 0-.8-.17-.98-.5h-.02v1.75h-.57v-3.46zm.57.85c0 .07.02.15.03.23.1.4.45.68.87.68.6 0 .97-.5.97-1.23 0-.64-.34-1.18-.95-1.18-.4-.02-.77.27-.88.7-.02.08-.04.16-.04.24v.55zM27.03 34.1c.18.12.56.25.86.25.3 0 .42-.1.42-.27 0-.16-.1-.24-.47-.37-.67-.2-.93-.57-.92-.95 0-.6.5-1.06 1.3-1.06.4 0 .72.07.92.17l-.18.7c-.14-.08-.42-.2-.7-.2-.24 0-.38.1-.38.28 0 .15.12.23.5.37.63.2.88.52.9 1 0 .6-.5 1.03-1.4 1.03-.43 0-.8-.1-1.05-.22l.18-.72zM29.84 32.33c0-.25.16-.42.4-.42.22 0 .38.18.38.43 0 .23-.15.4-.4.4-.22 0-.38-.17-.38-.4zm0 2.32c0-.24.16-.4.4-.4.22 0 .38.16.38.4 0 .23-.15.4-.4.4-.22 0-.38-.17-.38-.4zM30.85 35.26l1.85-4.8h.44l-1.85 4.8h-.45zM33.12 35.26l1.84-4.8h.44l-1.84 4.8h-.44z"/></g><g fill="#fff"><path d="M22.65 15.85c0-.1 0-1.13 0-1.2 0-1.53 1.22-2.75 2.73-2.75s2.74 1.22 2.74 2.74c0 .08 0 1.12 0 1.2h1c0-.08.02-1.12.02-1.2 0-2.08-1.68-3.76-3.76-3.76s-3.75 1.68-3.75 3.76c0 .08 0 1.12 0 1.2h1.02zM29.68 16.27h-8.6c-.97 0-1.76.7-1.76 1.58v7.73c0 .87.8 1.58 1.76 1.58h8.8c.88-.1 1.56-.77 1.56-1.58v-7.73c0-.87-.8-1.58-1.76-1.58z"/></g><path fill="#71C2A0" d="M28.5 17.9l-3.63 5.7-3.07-2.62-.9 1.3 4 3.25 4.96-6.7z"/></g><g><path d="M51.9 11.64c.5.27 1.3.53 2.1.53.9 0 1.36-.37 1.36-.92 0-.53-.4-.83-1.42-1.2-1.4-.48-2.32-1.26-2.32-2.5 0-1.43 1.2-2.54 3.2-2.54.95 0 1.66.2 2.16.44l-.43 1.54c-.34-.16-.94-.4-1.77-.4-.83 0-1.23.38-1.23.82 0 .54.48.78 1.57 1.2 1.5.54 2.2 1.32 2.2 2.5 0 1.43-1.1 2.64-3.42 2.64-.97 0-1.92-.25-2.4-.52l.4-1.58zM58.67 11.64c.52.27 1.3.53 2.13.53.88 0 1.34-.37 1.34-.92 0-.53-.4-.83-1.42-1.2-1.4-.48-2.32-1.26-2.32-2.5 0-1.43 1.2-2.54 3.2-2.54.96 0 1.66.2 2.16.44l-.43 1.54c-.34-.16-.94-.4-1.77-.4-.83 0-1.23.38-1.23.82 0 .54.48.78 1.57 1.2 1.5.54 2.2 1.32 2.2 2.5 0 1.43-1.1 2.64-3.42 2.64-.96 0-1.92-.25-2.4-.52l.4-1.58zM65.4 5.15h1.92V12h3.36v1.6H65.4V5.16zM51.9 26.71c.5.28 1.3.54 2.1.54.9 0 1.36-.36 1.36-.9s-.4-.84-1.42-1.2c-1.4-.5-2.32-1.28-2.32-2.5 0-1.45 1.2-2.56 3.2-2.56.95 0 1.66.2 2.16.43l-.43 1.56c-.34-.17-.94-.4-1.77-.4-.83 0-1.23.37-1.23.8 0 .55.48.8 1.57 1.2 1.5.56 2.2 1.34 2.2 2.53 0 1.4-1.1 2.6-3.42 2.6-.97 0-1.92-.24-2.4-.5l.4-1.6zM60.1 26.23c.07.8.85 1.16 1.74 1.16.65 0 1.18-.1 1.7-.26l.24 1.3c-.62.25-1.4.37-2.22.37-2.08 0-3.28-1.2-3.28-3.1 0-1.57.97-3.3 3.1-3.3 2 0 2.74 1.55 2.74 3.07 0 .33-.03.62-.06.76H60.1zm2.25-1.3c0-.47-.2-1.25-1.08-1.25-.8 0-1.13.73-1.18 1.24h2.25zM69.88 28.54c-.34.15-.98.27-1.7.27-2 0-3.26-1.2-3.26-3.13 0-1.8 1.23-3.26 3.5-3.26.52 0 1.07.1 1.47.25l-.3 1.4c-.24-.1-.58-.17-1.08-.17-1 0-1.66.7-1.64 1.72 0 1.13.75 1.72 1.68 1.72.45 0 .8-.08 1.1-.2l.22 1.42zM76.72 26.71c0 .82.03 1.47.05 2h-1.65l-.1-.88H75c-.25.38-.83 1-1.93 1-1.25 0-2.16-.77-2.16-2.67v-3.6h1.93v3.3c0 .9.3 1.43.95 1.43.53 0 .83-.36.96-.66.05-.12.06-.27.06-.42v-3.65h1.92v4.16zM78.26 24.57c0-.9-.03-1.5-.05-2.02h1.65l.07 1.13h.05c.3-.9 1.06-1.27 1.65-1.27.18 0 .27 0 .4.03v1.8c-.13-.03-.3-.05-.5-.05-.7 0-1.2.38-1.32.97-.02.12-.03.27-.03.42v3.12h-1.9v-4.13zM84.4 26.23c.06.8.84 1.16 1.73 1.16.65 0 1.18-.1 1.7-.26l.25 1.3c-.63.25-1.4.37-2.22.37-2.1 0-3.28-1.2-3.28-3.1 0-1.57.96-3.3 3.1-3.3 1.98 0 2.74 1.55 2.74 3.07 0 .33-.04.62-.07.76H84.4zm2.25-1.3c0-.47-.2-1.25-1.08-1.25-.8 0-1.13.73-1.18 1.24h2.25zM95.52 19.77v7.08c0 .7.02 1.42.05 1.84h-1.7l-.1-.92c-.4.7-1.14 1.04-1.93 1.04-1.46 0-2.63-1.24-2.63-3.15 0-2.07 1.3-3.26 2.76-3.26.76 0 1.35.27 1.62.7h.03v-3.33h1.92zm-1.9 5.38c-.02-.1-.03-.24-.04-.34-.1-.5-.53-.93-1.12-.93-.86 0-1.3.77-1.3 1.74-.02 1.05.5 1.7 1.3 1.7.54 0 .98-.37 1.1-.9.03-.15.05-.3.05-.45v-.8zM53.2 43.76l-2-8.46h2.03l.65 3.5c.18 1 .36 2.1.5 2.94h.02c.14-.92.34-1.94.56-2.98l.7-3.46h2.05l.68 3.56c.2 1 .33 1.9.46 2.84h.02c.13-.94.3-1.93.5-2.94l.68-3.46H62l-2.2 8.46h-2.07L57 40.12c-.15-.86-.3-1.65-.4-2.6-.16.94-.3 1.74-.5 2.6l-.8 3.64h-2.1zM63.86 41.3c.07.8.84 1.17 1.74 1.17.65 0 1.18-.1 1.7-.25l.24 1.3c-.63.24-1.4.37-2.22.37-2.1 0-3.28-1.22-3.28-3.14 0-1.56.97-3.28 3.1-3.28 2 0 2.74 1.55 2.74 3.07 0 .32-.04.6-.06.75h-3.96zM66.1 40c0-.47-.2-1.25-1.07-1.25-.8 0-1.13.73-1.18 1.24h2.26zM68.97 43.76c.03-.4.05-1.14.05-1.83v-7.08h1.9v3.5h.04c.36-.53 1-.87 1.86-.87 1.47 0 2.55 1.22 2.53 3.1 0 2.22-1.4 3.32-2.8 3.32-.72 0-1.4-.26-1.85-1h-.03l-.07.86h-1.63zm1.96-2.6c0 .1.02.23.04.33.13.5.57.9 1.12.9.8 0 1.3-.64 1.3-1.74 0-.96-.42-1.7-1.3-1.7-.53 0-1 .38-1.13.93-.02.1-.04.22-.04.34v.9zM76.52 42.1c.36.2 1.08.46 1.65.46.58 0 .8-.2.8-.52.02-.3-.17-.46-.9-.7-1.26-.43-1.75-1.12-1.73-1.85 0-1.15.97-2.02 2.5-2.02.7 0 1.35.16 1.73.35l-.34 1.32c-.28-.15-.8-.35-1.33-.35-.47 0-.73.2-.73.5s.24.44 1 .7c1.16.4 1.65 1 1.66 1.9 0 1.14-.9 2-2.66 2-.8 0-1.52-.2-2-.44l.35-1.37zM83.96 35.9c0 .54-.4.97-1.03.97-.6 0-1-.43-1-.96 0-.54.4-.95 1-.95s1.02.4 1.03.96zM82 43.77v-6.14h1.9v6.14H82zM87.56 35.86v1.76h1.37v1.4h-1.37v2.23c0 .74.18 1.08.76 1.08.24 0 .43-.03.56-.05l.02 1.44c-.26.1-.7.17-1.25.17-.6 0-1.13-.23-1.43-.54-.35-.37-.53-.96-.53-1.82v-2.5h-.82V37.6h.8V36.3l1.88-.44zM91.45 41.3c.06.8.84 1.17 1.73 1.17.65 0 1.18-.1 1.7-.25l.24 1.3c-.62.24-1.4.37-2.22.37-2.08 0-3.28-1.22-3.28-3.14 0-1.56.97-3.28 3.1-3.28 2 0 2.74 1.55 2.74 3.07 0 .32-.03.6-.06.75h-3.95zM93.7 40c0-.47-.2-1.25-1.1-1.25-.8 0-1.12.73-1.17 1.24h2.26z"/></g></svg>